<svg fill="#243166" xmlns="http://www.w3.org/2000/svg" width="106.06" height="106.06"><path d="M53.029.001c-13.587 0-27.173 5.17-37.515 15.512-20.687 20.687-20.685 54.345.002 75.033 10.341 10.343 23.927 15.513 37.513 15.513s27.172-5.172 37.517-15.519c20.686-20.684 20.684-54.339.002-75.022C80.202 5.173 66.615.001 53.029.001zm31.729 84.756C76.01 93.505 64.52 97.878 53.029 97.88c-11.49 0-22.98-4.373-31.728-13.119a44.932 44.932 0 0 1-5.741-7.033C4.078 60.317 5.993 36.609 21.301 21.3c8.748-8.747 20.238-13.12 31.728-13.12s22.98 4.373 31.729 13.121c17.496 17.495 17.494 45.963 0 63.456zm-60.07-32.444a3.005 3.005 0 0 1-.142-4.246 2.99 2.99 0 0 1 4.247-.143c3.251 3.053 6.589.242 6.959-.088a3.003 3.003 0 0 1 4.243.235 3.005 3.005 0 0 1-.235 4.242c-2.664 2.385-9.208 5.485-15.072 0zm56.814-4.277a3.006 3.006 0 0 1-.235 4.242c-2.664 2.385-9.208 5.484-15.072 0-1.212-1.133-1.273-3.033-.142-4.246s3.018-1.291 4.247-.143c3.251 3.053 6.589.242 6.959-.088a3.003 3.003 0 0 1 4.243.235zm-4.485 31.297a3 3 0 1 1-5.505 2.382c-2.895-6.688-9.731-11.013-17.422-11.013-7.867 0-14.746 4.32-17.523 11.007a3.005 3.005 0 0 1-3.92 1.621 3.002 3.002 0 0 1-1.62-3.922c3.711-8.933 12.764-14.703 23.064-14.703 10.084-.001 19.084 5.741 22.926 14.628z"/></svg>