<?xml version="1.0" standalone="no"?>
<!DOCTYPE svg PUBLIC "-//W3C//DTD SVG 1.1//EN" "http://www.w3.org/Graphics/SVG/1.1/DTD/svg11.dtd" >
<svg>
<metadata>
Created by FontForge 20090622 at Mon Apr 23 16:35:19 2018
 By deploy user
Copyright BeeSid. (vkontakte.ru/BeeSid | beesid@bk.ru)
</metadata>
<defs>
<font id="BeeSidcool" horiz-adv-x="2048" >
  <font-face 
    font-family="BeeSid"
    font-weight="400"
    font-stretch="normal"
    units-per-em="2048"
    panose-1="4 4 8 5 4 11 2 2 6 3"
    ascent="1638"
    descent="-410"
    x-height="1004"
    cap-height="1675"
    bbox="-342 -664 2414 2175"
    underline-thickness="242"
    underline-position="-127"
    unicode-range="U+0020-U+FB02"
  />
<missing-glyph 
 />
    <glyph glyph-name=".notdef" 
 />
    <glyph glyph-name="NULL.001" horiz-adv-x="0" 
 />
    <glyph glyph-name="CR.001" horiz-adv-x="696" 
 />
    <glyph glyph-name="space.001" horiz-adv-x="696" 
 />
    <glyph glyph-name="exclam.001" horiz-adv-x="639" 
d="M324 -72q-111 0 -169.5 57.5t-58.5 166.5q0 81 61.5 130.5t155.5 49.5q95 0 150 -52t55 -141q0 -104 -49 -157.5t-145 -53.5zM156 412q9 112 13.5 217t4.5 205q0 170 -8.5 347t-26.5 359l404 -35l-23 -418q-34 -214 -54.5 -369.5t-27.5 -240.5z" />
    <glyph glyph-name="quotedbl" unicode="&#x22;" horiz-adv-x="844" 
d="M76 1438h219l31 -558l-354 14zM514 1432h219l33 -531l-347 -28z" />
    <glyph glyph-name="numbersign" unicode="#" horiz-adv-x="1710" 
d="M805 927l-125 -237l261 41l93 221zM679 1682l362 -16l-177 -454h256l95 443l358 11l-180 -454l303 54l-100 -344l-295 30l-86 -260l334 54l-130 -376l-293 62l-116 -437h-354l197 437h-257l-102 -453h-362l191 453l-330 -37l132 351l288 -54l88 260l-338 -53l131 352
l296 -39z" />
    <glyph glyph-name="dollar.001" horiz-adv-x="1395" 
d="M786 594l5 -201h172v201h-177zM393 944h160v223h-154q-3 -43 -4.5 -85t-1.5 -83v-55zM522 -61l8 215q-216 28 -318 113t-109 241l313 4l10 -115h117l2 213q-227 24 -331.5 121.5t-104.5 286.5q0 122 22 193.5t68 99.5q65 38 155 63.5t191 34.5v127h258l2 -127
q213 -32 316 -118.5t108 -235.5l-307 -11l-9 107l-149 10l6 -217q284 -27 412.5 -124t128.5 -283q0 -184 -128.5 -281.5t-385.5 -110.5l-2 -206h-273z" />
    <glyph glyph-name="percent.001" horiz-adv-x="1659" 
d="M1098 217l221 -20l27 249l-244 17zM1225 -43q-192 0 -287.5 89.5t-95.5 270.5q0 185 109.5 302.5t281.5 117.5q164 0 255 -95t91 -267q0 -93 -36.5 -189.5t-96.5 -162.5q-30 -34 -85 -50t-136 -16zM346 1030l227 -14q4 51 6.5 93t2.5 62q0 62 -0.5 91t-2.5 55l-223 6z
M293 -72l-191 105l555 622l560 709q-121 -69 -192.5 -94t-137.5 -25q-23 0 -42 5.5t-38 17.5q8 -26 12 -51.5t4 -49.5q0 -173 -116.5 -294t-276.5 -121q-155 0 -252.5 106.5t-97.5 280.5q0 101 26.5 174t79.5 121q41 36 123.5 66t134.5 30q87 0 172.5 -36.5t124.5 -90.5
q46 -12 88.5 -18.5t79.5 -6.5q97 0 194.5 42t186.5 122l226 -61l-568 -699l-139 -170z" />
    <glyph glyph-name="ampersand.001" horiz-adv-x="1403" 
d="M565 997l45 -4l193 15l6 254l-236 6l-12 -142zM491 277l347 12l-250 332l-99 -31v-12q-4 -99 -4 -146q0 -28 1.5 -66.5t4.5 -88.5zM963 -23l-64 89q-70 -58 -142 -83.5t-167 -25.5q-235 0 -373.5 126.5t-138.5 340.5q0 157 82.5 259.5t232.5 131.5q-96 65 -140 141
t-44 177q0 191 116.5 284.5t354.5 93.5q185 0 298.5 -100t113.5 -262q0 -139 -76.5 -235t-229.5 -148q40 -32 92.5 -90.5t106.5 -130.5l21 217l282 -10v-27q0 -140 -27 -224t-90 -161l213 -299z" />
    <glyph glyph-name="quotesingle.001" horiz-adv-x="371" 
d="M76 1438h219v-561h-219v561z" />
    <glyph glyph-name="parenleft.001" horiz-adv-x="627" 
d="M436 -408q-134 240 -207 498t-73 485q0 203 76 463t210 502l95 -43q-86 -360 -129 -579.5t-43 -296.5q0 -56 48 -338.5t124 -659.5z" />
    <glyph glyph-name="parenright.001" horiz-adv-x="627" 
d="M90 -362q74 305 119 571.5t45 351.5q0 80 -45 346t-119 598l121 35q114 -206 179 -443t65 -435q0 -447 -236 -1069v-1z" />
    <glyph glyph-name="asterisk" unicode="*" horiz-adv-x="1024" 
d="M479 1540l226 -74l-97 -206l240 61v-250l-238 55l140 -206l-226 -82l-51 237l-164 -188l-141 186l233 103l-233 81l106 201l199 -160z" />
    <glyph glyph-name="plus.001" horiz-adv-x="1706" 
d="M735 1221h238v-494h479v-231h-479v-496h-238v496h-481v231h481v494z" />
    <glyph glyph-name="comma.001" horiz-adv-x="696" 
d="M162 -305l-10 182l221 14l-2 127h-6q-131 0 -205 56.5t-74 154.5q0 95 68.5 169.5t148.5 74.5q74 0 148 -34.5t110 -86.5q23 -33 36 -99.5t13 -152.5q0 -210 -89.5 -308.5t-280.5 -98.5q-21 0 -39.5 0.5t-38.5 1.5z" />
    <glyph glyph-name="hyphen.001" horiz-adv-x="664" 
d="M584 373q-20 0 -46.5 1t-33.5 1t-121 -5t-223 -5h-82l-6 286q57 6 122 8t154 3q80 0 138 -2.5t106 -8.5z" />
    <glyph glyph-name="period.001" horiz-adv-x="696" 
d="M616 254q0 -114 -67.5 -184t-179.5 -70q-123 0 -194 66t-71 182q0 92 81 163.5t186 71.5q88 0 166.5 -80t78.5 -149z" />
    <glyph glyph-name="slash.001" horiz-adv-x="569" 
d="M348 1174l86 366l184 -37l-331 -1075q-26 -83 -64.5 -249.5t-77.5 -368.5l-194 67z" />
    <glyph glyph-name="zero.001" horiz-adv-x="1395" 
d="M537 330l309 -6l46 866q-21 1 -66 4q-109 6 -160 6h-18q-62 -2 -118 -2q-4 -74 -6 -163t-2 -204q0 -139 3.5 -263.5t11.5 -237.5zM137 1184q79 193 218 287t347 94q322 0 466.5 -186t144.5 -601q0 -412 -154 -631t-444 -219q-315 0 -475 195t-160 577q0 133 14 253
t43 231z" />
    <glyph glyph-name="one.001" horiz-adv-x="1395" 
d="M477 0l60 715l16 483l-221 14l26 240q213 14 364 31.5t247 38.5q-25 -164 -38 -370t-13 -439v-88l6 -650z" />
    <glyph glyph-name="two.001" horiz-adv-x="1395" 
d="M147 10q2 292 21.5 421t64.5 202q50 79 168.5 138.5t440.5 148.5v370h-283l-6 -317l-389 6q-3 47 -4.5 82.5t-1.5 58.5q0 104 21 153.5t77 110.5q88 94 199.5 137.5t267.5 43.5q250 0 387 -131.5t137 -372.5q0 -176 -85.5 -282.5t-297.5 -186.5q-102 -39 -209 -70.5
t-113 -34.5q-8 -4 -12 -15.5t-4 -49.5v-14q0 -20 -0.5 -32t-0.5 -22q32 -1 73 -1.5t129 -0.5q163 0 286.5 6.5t213.5 20.5q-8 -68 -12.5 -135.5t-4.5 -132.5q0 -21 1 -45.5t3 -65.5q-242 13 -375.5 18t-236.5 5q-99 0 -212 -3.5t-243 -9.5z" />
    <glyph glyph-name="three.001" horiz-adv-x="1395" 
d="M113 450l444 -10l-16 -241h305l-19 366l-323 29l20 283h248l33 335l-291 27l-12 -266l-387 33q3 270 150 414.5t419 144.5q255 0 396 -125.5t141 -354.5q0 -123 -60.5 -195t-212.5 -128q167 -38 250.5 -131.5t83.5 -241.5q0 -209 -163.5 -335t-438.5 -126
q-297 0 -434 107t-137 338q0 13 0.5 28.5t3.5 48.5z" />
    <glyph glyph-name="four.001" horiz-adv-x="1395" 
d="M778 682l8 573q-95 -131 -183 -272t-175 -301h350zM645 -72l6 400h-593l3.5 119.5t1.5 78.5q0 25 -0.5 51.5t-2.5 66.5q142 235 303 471t342 472q100 -16 203 -26.5t216 -16.5l4 -905h232l-14 -307l-228 2l4 -406h-477z" />
    <glyph glyph-name="five.001" horiz-adv-x="1395" 
d="M133 410l436 22l-2 -235q17 -1 37 -1.5t58 -0.5q63 0 107.5 3.5t84.5 12.5l6 428l-366 14l-31 -92l-307 19l8 201q3 94 10 191q2 21 2 25l37 529l483 -29l469 29q-16 -109 -24.5 -194t-10.5 -152q-60 -5 -91.5 -7t-59.5 -2q-75 0 -244 8.5t-262 10.5l-12 -311
q74 54 151.5 78t178.5 24q236 0 379 -138.5t143 -363.5q0 -230 -167 -390.5t-419 -160.5q-275 0 -434.5 130t-159.5 352z" />
    <glyph glyph-name="six.001" horiz-adv-x="1395" 
d="M475 629l6 -369l363 -22l18 387zM559 848q68 54 141.5 80t159.5 26q195 0 320 -121t125 -317q0 -277 -155 -432.5t-431 -155.5q-178 0 -317.5 72.5t-215.5 202.5q-38 66 -60 196t-22 297q0 436 159 652.5t478 216.5q244 0 382.5 -134.5t138.5 -371.5l-334 -12l-6 174
l-363 18v-391z" />
    <glyph glyph-name="seven.001" horiz-adv-x="1395" 
d="M266 -57q91 204 213 514t170 401l172 322h-182q-130 0 -234.5 -6.5t-195.5 -20.5l31 379l538 -29l455 4q-3 -64 -4.5 -146t-1.5 -179q-145 -288 -219 -452t-115 -286l-127 -495z" />
    <glyph glyph-name="eight.001" horiz-adv-x="1395" 
d="M496 635l4 -377l362 4v375zM580 922l274 -2l6 335h-293zM389 788q-128 38 -198 129.5t-70 221.5q0 200 155 313t433 113q265 0 420 -116t155 -308q0 -135 -79 -236t-222 -149q171 -25 256.5 -118t85.5 -255q0 -85 -21.5 -154t-62.5 -112q-78 -84 -215 -136.5t-285 -52.5
q-331 0 -502 115.5t-171 339.5q0 143 81.5 246t239.5 159z" />
    <glyph glyph-name="nine.001" horiz-adv-x="1395" 
d="M528 831l373 -22l-6 432l-348 2zM96 475l393 -37l-2 -182h318l2 319q-40 -26 -91.5 -38.5t-127.5 -12.5q-244 0 -373 120t-129 347q0 264 159 419t433 155q174 0 303 -56t225 -172q57 -67 81 -180.5t24 -327.5q0 -482 -155 -691.5t-509 -209.5q-276 0 -415.5 119
t-139.5 352q0 23 4 71v5z" />
    <glyph glyph-name="colon.001" horiz-adv-x="696" 
d="M369 0q-124 0 -201.5 65.5t-77.5 167.5q0 124 64 182t200 58q110 0 181 -73.5t71 -188.5q0 -76 -72 -143.5t-165 -67.5zM367 606q-124 0 -196.5 63t-72.5 169q0 116 59.5 170.5t186.5 54.5q119 0 190.5 -66t71.5 -163q0 -46 -20 -98t-51 -87q-17 -19 -62 -31t-106 -12z
" />
    <glyph glyph-name="semicolon.001" horiz-adv-x="696" 
d="M592 809q0 -83 -74 -152t-174 -69q-107 0 -178.5 68t-71.5 171q0 100 64.5 168t158.5 68q124 0 199.5 -71.5t75.5 -182.5zM162 -305l-10 182l221 14l-2 127h-6q-131 0 -205 56.5t-74 154.5q0 95 68.5 169.5t148.5 74.5q74 0 148 -34.5t110 -86.5q23 -33 36 -99.5
t13 -152.5q0 -210 -89.5 -308.5t-280.5 -98.5q-21 0 -39.5 0.5t-38.5 1.5z" />
    <glyph glyph-name="less" unicode="&#x3c;" horiz-adv-x="1706" 
d="M1442 1214l-33 -341l-821 -263l883 -174l-29 -428l-1317 416l12 449z" />
    <glyph glyph-name="equal.001" horiz-adv-x="1706" 
d="M254 502h1198v-230h-1198v230zM254 950h1198v-231h-1198v231z" />
    <glyph glyph-name="greater" unicode="&#x3e;" horiz-adv-x="1706" 
d="M264 1214l1244 -429l13 -336l-1257 -441l-15 453l869 149l-881 213z" />
    <glyph glyph-name="question.001" horiz-adv-x="1337" 
d="M389 453v411l424 4l-6 359h-328l2 -217l-401 2v37q0 237 145.5 364t419.5 127q255 0 424.5 -116t169.5 -279q0 -276 -108.5 -404.5t-342.5 -128.5h-22v-159h-377zM606 -72q-135 0 -212 65t-77 177q0 71 69.5 134t158.5 63q114 0 202.5 -60t88.5 -129q0 -117 -61 -183.5
t-169 -66.5z" />
    <glyph glyph-name="at.001" 
d="M1161 262q-56 -82 -126.5 -120t-168.5 -38q-163 0 -247 87.5t-84 257.5q0 241 141.5 404t349.5 163q77 0 134 -30.5t95 -92.5l52 92h206l-153 -610q0 -2 -1 -6q-3 -18 -3 -27q0 -30 16 -44.5t47 -14.5q137 0 240.5 143.5t103.5 335.5q0 239 -179.5 390t-467.5 151
q-148 0 -274 -36.5t-230 -109.5q-155 -110 -239 -274.5t-84 -356.5q0 -302 203 -481.5t544 -179.5q164 0 316 47.5t280 138.5l97 -135q-156 -117 -329 -175t-364 -58q-192 0 -354.5 49t-288.5 145q-157 122 -234 281.5t-77 361.5q0 169 53 320.5t156 277.5
q148 183 359.5 278t467.5 95q170 0 320 -46t260 -132q136 -107 203 -243t67 -306q0 -167 -65.5 -307t-190.5 -240q-69 -56 -154 -85.5t-176 -29.5q-106 0 -161 40t-60 120zM1198 696q-9 76 -50 116t-110 40q-103 0 -181.5 -121.5t-78.5 -286.5q0 -83 35 -128.5t98 -45.5
q84 0 148 59t88 158z" />
    <glyph glyph-name="bracketleft" unicode="[" horiz-adv-x="627" 
d="M64 -532l122 788l1 6q8 342 8 506q0 225 -9 404.5t-151 417.5l569 -50l49 -248l-291 42l23 -613l-66 -1006l334 79l-59 -206z" />
    <glyph glyph-name="backslash" unicode="\" horiz-adv-x="569" 
d="M412 -234l-262 1090l-320 606l339 139l288 -1243l196 -479z" />
    <glyph glyph-name="bracketright" unicode="]" horiz-adv-x="627" 
d="M561 1597l-125 -1007l118 -1037l-476 -21l-71 191l282 23l-41 662l29 1018l-277 -14l71 192z" />
    <glyph glyph-name="asciicircum" unicode="^" 
d="M816 1504l412 -49l404 -556l-383 -90l-225 432l-243 -475l-367 133z" />
    <glyph glyph-name="underscore" unicode="_" horiz-adv-x="1024" 
d="M0 -244h1024v-239h-1024v239z" />
    <glyph glyph-name="grave" unicode="`" horiz-adv-x="1024" 
d="M207 1542l291 -6l188 -362h-166l-92 122z" />
    <glyph glyph-name="braceleft" unicode="{" horiz-adv-x="1024" 
d="M893 1477v-242q-7 0 -21 1t-20 1q-98 0 -132 -35.5t-34 -146.5v-240q0 -140 -46 -200t-165 -85q120 -24 165.5 -82.5t45.5 -199.5v-242q0 -110 33.5 -145t130.5 -35q7 0 21.5 1t21.5 1v-242q-15 0 -42 -1t-40 -1q-108 0 -179.5 12t-119.5 37q-59 32 -82.5 88.5
t-23.5 192.5v256q0 133 -49.5 187.5t-168.5 54.5q-4 0 -17 -1t-19 -1v241q6 0 18 -1t18 -1q118 0 168 55.5t50 188.5v254q0 136 24 193.5t82 89.5q48 25 120.5 37t180.5 12q12 0 38.5 -1t41.5 -1z" />
    <glyph glyph-name="bar" unicode="|" horiz-adv-x="1024" 
d="M393 1565h240v-2048h-240v2048z" />
    <glyph glyph-name="braceright" unicode="}" horiz-adv-x="1024" 
d="M133 1477q15 0 41.5 1t38.5 1q108 0 180 -12t121 -37q58 -32 82.5 -89.5t24.5 -193.5v-254q0 -134 49 -189t168 -55q6 0 18 1t18 1v-241q-6 0 -18 1t-18 1q-119 0 -168 -55t-49 -187v-256q0 -137 -24.5 -194.5t-82.5 -88.5q-45 -24 -113.5 -35.5t-177.5 -11.5
q-14 0 -44 1t-46 1v242q9 0 23 -1t20 -1q97 0 130.5 34.5t33.5 145.5v242q0 140 46 199t165 83q-120 25 -165.5 84t-45.5 201v240q0 111 -33.5 146.5t-126.5 35.5q-7 0 -22.5 -1t-24.5 -1v242z" />
    <glyph glyph-name="asciitilde" unicode="~" horiz-adv-x="1706" 
d="M1530 819v-254q-101 -69 -194 -103t-183 -34q-45 0 -89 7.5t-83 21.5q-13 4 -38 13q-255 89 -382 89q-84 0 -175.5 -37.5t-207.5 -120.5v254q112 73 207.5 108.5t179.5 35.5q63 0 126.5 -12t169.5 -46q16 -5 51 -17q159 -56 247 -56q84 0 173.5 36t197.5 115z" />
    <glyph glyph-name="Adieresis" unicode="&#xc4;" horiz-adv-x="1403" 
d="M516 616h297l-90 308l-55 274zM-18 -33l229 701l260 829l500 -14l438 -1516h-514l-92 328l-344 8l-84 -336h-393zM879 1689q-70 0 -103.5 36t-33.5 112q0 63 41.5 105t109.5 42q72 0 107 -34.5t35 -104.5q0 -73 -41.5 -114.5t-114.5 -41.5zM377 1833q0 63 42.5 107
t103.5 44q76 0 112.5 -36.5t36.5 -112.5q0 -62 -45.5 -104t-114.5 -42q-50 0 -92.5 42.5t-42.5 101.5z" />
    <glyph glyph-name="Aring" unicode="&#xc5;" horiz-adv-x="1403" 
d="M827 1815l-190 -9l-6 -184l192 8zM463 1710q0 114 78.5 188t199.5 74q103 0 178.5 -74t75.5 -178t-80.5 -178t-195.5 -74q-113 0 -184.5 68.5t-71.5 173.5zM-18 -33l229 701l235 762l545 -17l418 -1446h-514l-92 328l-344 8l-84 -336h-393zM516 616h297l-90 308l-55 274z
" />
    <glyph glyph-name="Ccedilla.001" horiz-adv-x="1602" 
d="M1518 565v-26q0 -271 -184.5 -441t-483.5 -170q-354 0 -562 215t-208 580q0 370 209 593.5t555 223.5q307 0 493.5 -157.5t186.5 -415.5q0 -10 -1 -23t-4 -41q-41 -2 -90.5 -3t-103.5 -1q-63 0 -131.5 2.5t-146.5 7.5l-19 305h-410l-18 -557l12 -335h484l24 268z
M854 -143h19q111 0 170 -50t59 -143q0 -108 -69.5 -163.5t-206.5 -55.5q-143 0 -206 45t-75 152l156 -4l8 -37l194 -2v122l-163 7v290h114v-161z" />
    <glyph glyph-name="Eacute.001" horiz-adv-x="1460" 
d="M115 -57l32 858l-36 635l860 43l411 -4l-2 -273l-372 -4l-373 -18l14 -283q14 0 34 -1t28 -1h27q121 -2 241 -2q116 0 166 1.5t87 4.5l-3 -321l-436 18l-316 -31v-229h47q369 0 589 3t294 9q0 -109 4.5 -208.5t13.5 -190.5q-8 -6 -14.5 -8t-17.5 -2q-6 0 -42 1
q-166 9 -333 13l-457 12zM743 2011l168 2l125 8l-305 -368h-174z" />
    <glyph glyph-name="Ntilde" unicode="&#xd1;" horiz-adv-x="1669" 
d="M119 -18q16 385 24.5 761.5t10.5 745.5h483l463 -739q21 -35 52 -107t60 -158q0 49 1 118.5t1 88.5q0 122 -4.5 296t-15.5 460l336 -4l-8 -858l-6 -604q-82 4 -148.5 6t-105.5 2q-22 0 -101 -2q-59 -2 -93 -2q-10 13 -28 41q-470 700 -567 995l-18 -1040h-336zM1047 1968
l115 -33q-33 -138 -71.5 -191t-100.5 -53q-37 0 -143.5 42t-172.5 63l-31 -88l-133 -4q5 122 56 200t123 78q33 0 97.5 -22.5t221.5 -91.5z" />
    <glyph glyph-name="Odieresis" unicode="&#xd6;" horiz-adv-x="1651" 
d="M582 315q123 -13 245.5 -19.5t245.5 -6.5l31 844l-549 22v-459zM877 -72q-375 0 -586 223t-211 619q0 174 28 298t85 196q109 139 269 207.5t378 68.5q347 0 538 -197.5t191 -558.5q0 -201 -58 -362.5t-176 -288.5q-103 -110 -208.5 -157.5t-249.5 -47.5zM997 1689
q-70 0 -103.5 36t-33.5 112q0 63 41.5 105t109.5 42q72 0 107 -34.5t35 -104.5q0 -73 -41.5 -114.5t-114.5 -41.5zM495 1833q0 63 42.5 107t103.5 44q76 0 112.5 -36.5t36.5 -112.5q0 -62 -45.5 -104t-114.5 -42q-50 0 -92.5 42.5t-42.5 101.5z" />
    <glyph glyph-name="Udieresis.001" horiz-adv-x="1583" 
d="M139 1507l465 -28l2 -449l37 -711l408 -6l20 684l-35 473l389 15l9 -412q3 -151 4.5 -255.5t1.5 -162.5q0 -229 -30 -344.5t-101 -191.5q-87 -95 -212 -143t-284 -48q-222 0 -372 75t-220 220q-38 80 -58 252t-22 437zM965 1689q-70 0 -103.5 36t-33.5 112q0 63 41.5 105
t109.5 42q72 0 107 -34.5t35 -104.5q0 -73 -41.5 -114.5t-114.5 -41.5zM463 1833q0 63 42.5 107t103.5 44q76 0 112.5 -36.5t36.5 -112.5q0 -62 -45.5 -104t-114.5 -42q-50 0 -92.5 42.5t-42.5 101.5z" />
    <glyph glyph-name="aacute" unicode="&#xe1;" horiz-adv-x="1298" 
d="M449 180l286 21q8 56 11.5 99t3.5 87l-1 33q-76 -5 -151.5 -18.5t-151.5 -36.5zM799 61q-88 -61 -196.5 -94t-223.5 -33q-160 0 -251 72t-91 199q0 100 44.5 193t106.5 124q61 30 238 59t412 46v35q0 31 -2 59.5t-7 52.5q-76 25 -155 39t-139 14q-13 0 -24.5 -0.5
t-23.5 -1.5l-4 -139q-64 7 -117.5 10.5t-101.5 3.5q-39 0 -82 -1.5t-88 -3.5v22q0 150 160.5 248t404.5 98q260 0 393.5 -101.5t133.5 -299.5q0 -71 -5 -171t-5 -129q0 -71 10 -154.5t40 -236.5q-28 2 -73 5.5t-55 3.5q-33 0 -90 -8t-156 -25zM676 1532l168 2l125 8
l-305 -368h-174z" />
    <glyph glyph-name="agrave" unicode="&#xe0;" horiz-adv-x="1298" 
d="M449 180l286 21q8 56 11.5 99t3.5 87l-1 33q-76 -5 -151.5 -18.5t-151.5 -36.5zM799 61q-88 -61 -196.5 -94t-223.5 -33q-160 0 -251 72t-91 199q0 100 44.5 193t106.5 124q61 30 238 59t412 46v35q0 31 -2 59.5t-7 52.5q-76 25 -155 39t-139 14q-13 0 -24.5 -0.5
t-23.5 -1.5l-4 -139q-64 7 -117.5 10.5t-101.5 3.5q-39 0 -82 -1.5t-88 -3.5v22q0 150 160.5 248t404.5 98q260 0 393.5 -101.5t133.5 -299.5q0 -71 -5 -171t-5 -129q0 -71 10 -154.5t40 -236.5q-28 2 -73 5.5t-55 3.5q-33 0 -90 -8t-156 -25zM359 1542l291 -6l188 -362
h-166l-92 122z" />
    <glyph glyph-name="acircumflex.001" horiz-adv-x="1298" 
d="M449 180l286 21q8 56 11.5 99t3.5 87l-1 33q-76 -5 -151.5 -18.5t-151.5 -36.5zM799 61q-88 -61 -196.5 -94t-223.5 -33q-160 0 -251 72t-91 199q0 100 44.5 193t106.5 124q61 30 238 59t412 46v35q0 31 -2 59.5t-7 52.5q-76 25 -155 39t-139 14q-13 0 -24.5 -0.5
t-23.5 -1.5l-4 -139q-64 7 -117.5 10.5t-101.5 3.5q-39 0 -82 -1.5t-88 -3.5v22q0 150 160.5 248t404.5 98q260 0 393.5 -101.5t133.5 -299.5q0 -71 -5 -171t-5 -129q0 -71 10 -154.5t40 -236.5q-28 2 -73 5.5t-55 3.5q-33 0 -90 -8t-156 -25zM537 1532l260 10
q26 -76 70.5 -164t115.5 -204h-153l-166 176l-158 -168l-164 -8q64 105 113 195.5t82 162.5z" />
    <glyph glyph-name="adieresis.001" horiz-adv-x="1298" 
d="M449 180l286 21q8 56 11.5 99t3.5 87l-1 33q-76 -5 -151.5 -18.5t-151.5 -36.5zM799 61q-88 -61 -196.5 -94t-223.5 -33q-160 0 -251 72t-91 199q0 100 44.5 193t106.5 124q61 30 238 59t412 46v35q0 31 -2 59.5t-7 52.5q-76 25 -155 39t-139 14q-13 0 -24.5 -0.5
t-23.5 -1.5l-4 -139q-64 7 -117.5 10.5t-101.5 3.5q-39 0 -82 -1.5t-88 -3.5v22q0 150 160.5 248t404.5 98q260 0 393.5 -101.5t133.5 -299.5q0 -71 -5 -171t-5 -129q0 -71 10 -154.5t40 -236.5q-28 2 -73 5.5t-55 3.5q-33 0 -90 -8t-156 -25zM836 1210q-70 0 -103.5 36
t-33.5 112q0 63 41.5 105t109.5 42q72 0 107 -34.5t35 -104.5q0 -73 -41.5 -114.5t-114.5 -41.5zM334 1354q0 63 42.5 107t103.5 44q76 0 112.5 -36.5t36.5 -112.5q0 -62 -45.5 -104t-114.5 -42q-50 0 -92.5 42.5t-42.5 101.5z" />
    <glyph glyph-name="atilde" unicode="&#xe3;" horiz-adv-x="1298" 
d="M449 180l286 21q8 56 11.5 99t3.5 87l-1 33q-76 -5 -151.5 -18.5t-151.5 -36.5zM799 61q-88 -61 -196.5 -94t-223.5 -33q-160 0 -251 72t-91 199q0 100 44.5 193t106.5 124q61 30 238 59t412 46v35q0 31 -2 59.5t-7 52.5q-76 25 -155 39t-139 14q-13 0 -24.5 -0.5
t-23.5 -1.5l-4 -139q-64 7 -117.5 10.5t-101.5 3.5q-39 0 -82 -1.5t-88 -3.5v22q0 150 160.5 248t404.5 98q260 0 393.5 -101.5t133.5 -299.5q0 -71 -5 -171t-5 -129q0 -71 10 -154.5t40 -236.5q-28 2 -73 5.5t-55 3.5q-33 0 -90 -8t-156 -25zM875 1489l115 -33
q-33 -138 -71.5 -191t-100.5 -53q-37 0 -143.5 42t-172.5 63l-31 -88l-133 -4q5 122 56 200t123 78q33 0 97.5 -22.5t221.5 -91.5z" />
    <glyph glyph-name="aring" unicode="&#xe5;" horiz-adv-x="1298" 
d="M778 1501l-192 -6l-8 -201l196 9zM408 1389q0 125 78.5 203.5t203.5 78.5q107 0 183.5 -78.5t76.5 -191.5q0 -114 -82 -193.5t-200 -79.5q-115 0 -187.5 73t-72.5 188zM799 61q-88 -61 -196.5 -94t-223.5 -33q-160 0 -251 72t-91 199q0 100 44.5 193t106.5 124
q61 30 238 59t412 46v35q0 31 -2 59.5t-7 52.5q-76 25 -155 39t-139 14q-13 0 -24.5 -0.5t-23.5 -1.5l-4 -139q-64 7 -117.5 10.5t-101.5 3.5q-39 0 -82 -1.5t-88 -3.5v22q0 150 160.5 248t404.5 98q260 0 393.5 -101.5t133.5 -299.5q0 -71 -5 -171t-5 -129q0 -71 10 -154.5
t40 -236.5q-28 2 -73 5.5t-55 3.5q-33 0 -90 -8t-156 -25zM449 180l286 21q8 56 11.5 99t3.5 87l-1 33q-76 -5 -151.5 -18.5t-151.5 -36.5z" />
    <glyph glyph-name="ccedilla.001" horiz-adv-x="1298" 
d="M1227 369q-19 -206 -159 -320.5t-374 -114.5q-273 0 -447.5 159t-174.5 407q0 257 158 410t427 153q267 0 419 -126t157 -349l-369 8l-22 205l-311 -19q-6 -57 -8.5 -123t-2.5 -153q0 -64 3.5 -130t11.5 -134q55 -6 88.5 -8.5t58.5 -2.5q31 0 108 7q15 1 23 2l12 129h402
zM692 -143h19q111 0 170 -50t59 -143q0 -108 -69.5 -163.5t-206.5 -55.5q-143 0 -206 45t-75 152l156 -4l8 -37l194 -2v122l-163 7v290h114v-161z" />
    <glyph glyph-name="eacute.001" horiz-adv-x="1294" 
d="M514 606h322l-19 209l-303 -6v-203zM803 301l399 12q-28 -179 -167 -280t-359 -101q-279 0 -441.5 148.5t-162.5 400.5q0 264 157 423t418 159q265 0 420.5 -163.5t155.5 -444.5v-37h-408q-62 0 -148.5 -5t-220.5 -16q0 -52 5 -102.5t14 -99.5l326 -5zM659 1532l168 2
l125 8l-305 -368h-174z" />
    <glyph glyph-name="egrave.001" horiz-adv-x="1294" 
d="M514 606h322l-19 209l-303 -6v-203zM803 301l399 12q-28 -179 -167 -280t-359 -101q-279 0 -441.5 148.5t-162.5 400.5q0 264 157 423t418 159q265 0 420.5 -163.5t155.5 -444.5v-37h-408q-62 0 -148.5 -5t-220.5 -16q0 -52 5 -102.5t14 -99.5l326 -5zM342 1542l291 -6
l188 -362h-166l-92 122z" />
    <glyph glyph-name="ecircumflex.001" horiz-adv-x="1294" 
d="M514 606h322l-19 209l-303 -6v-203zM803 301l399 12q-28 -179 -167 -280t-359 -101q-279 0 -441.5 148.5t-162.5 400.5q0 264 157 423t418 159q265 0 420.5 -163.5t155.5 -444.5v-37h-408q-62 0 -148.5 -5t-220.5 -16q0 -52 5 -102.5t14 -99.5l326 -5zM520 1532l260 10
q26 -76 70.5 -164t115.5 -204h-153l-166 176l-158 -168l-164 -8q64 105 113 195.5t82 162.5z" />
    <glyph glyph-name="edieresis.001" horiz-adv-x="1294" 
d="M514 606h322l-19 209l-303 -6v-203zM803 301l399 12q-28 -179 -167 -280t-359 -101q-279 0 -441.5 148.5t-162.5 400.5q0 264 157 423t418 159q265 0 420.5 -163.5t155.5 -444.5v-37h-408q-62 0 -148.5 -5t-220.5 -16q0 -52 5 -102.5t14 -99.5l326 -5zM819 1210
q-70 0 -103.5 36t-33.5 112q0 63 41.5 105t109.5 42q72 0 107 -34.5t35 -104.5q0 -73 -41.5 -114.5t-114.5 -41.5zM317 1354q0 63 42.5 107t103.5 44q76 0 112.5 -36.5t36.5 -112.5q0 -62 -45.5 -104t-114.5 -42q-50 0 -92.5 42.5t-42.5 101.5z" />
    <glyph glyph-name="iacute" unicode="&#xed;" horiz-adv-x="621" 
d="M90 -10l31 395v6q8 96 8 146q0 21 -0.5 51.5t-1.5 66.5l-8 303l381 27l-6 -461l8 -559zM331 1532l168 2l125 8l-305 -368h-174z" />
    <glyph glyph-name="igrave" unicode="&#xec;" horiz-adv-x="621" 
d="M90 -10l31 395v6q8 96 8 146q0 21 -0.5 51.5t-1.5 66.5l-8 303l381 27l-6 -461l8 -559zM14 1542l291 -6l188 -362h-166l-92 122z" />
    <glyph glyph-name="icircumflex.001" horiz-adv-x="621" 
d="M90 -10l31 395v6q8 96 8 146q0 21 -0.5 51.5t-1.5 66.5l-8 303l381 27l-6 -461l8 -559zM192 1532l260 10q26 -76 70.5 -164t115.5 -204h-153l-166 176l-158 -168l-164 -8q64 105 113 195.5t82 162.5z" />
    <glyph glyph-name="idieresis.001" horiz-adv-x="621" 
d="M90 -10l31 395v6q8 96 8 146q0 21 -0.5 51.5t-1.5 66.5l-8 303l381 27l-6 -461l8 -559zM491 1210q-70 0 -103.5 36t-33.5 112q0 63 41.5 105t109.5 42q72 0 107 -34.5t35 -104.5q0 -73 -41.5 -114.5t-114.5 -41.5zM-11 1354q0 63 42.5 107t103.5 44q76 0 112.5 -36.5
t36.5 -112.5q0 -62 -45.5 -104t-114.5 -42q-50 0 -92.5 42.5t-42.5 101.5z" />
    <glyph glyph-name="ntilde" unicode="&#xf1;" horiz-adv-x="1298" 
d="M496 393q-4 -65 -7.5 -152.5t-7.5 -228.5l-372 -12q9 179 13.5 338t4.5 274v74q0 87 -3 158t-9 139l297 -18l22 -109q114 91 229 137.5t226 46.5q154 0 227.5 -81.5t73.5 -253.5q0 -22 -0.5 -33t-1.5 -22l-12 -214q-3 -72 -4 -141.5t-1 -161.5q0 -39 2 -84l4 -94
q-114 7 -209.5 10.5t-183.5 3.5l17 406l-31 336l-283 -17zM860 1489l115 -33q-33 -138 -71.5 -191t-100.5 -53q-37 0 -143.5 42t-172.5 63l-31 -88l-133 -4q5 122 56 200t123 78q33 0 97.5 -22.5t221.5 -91.5z" />
    <glyph glyph-name="oacute" unicode="&#xf3;" horiz-adv-x="1294" 
d="M766 788l-274 -26l-56 -471q74 -25 158.5 -37t185.5 -12h27zM631 1063q255 0 423.5 -175t168.5 -448q0 -216 -165.5 -361t-408.5 -145q-257 0 -417 163t-160 427q0 247 151.5 393t407.5 146zM659 1532l168 2l125 8l-305 -368h-174z" />
    <glyph glyph-name="ograve" unicode="&#xf2;" horiz-adv-x="1294" 
d="M766 788l-274 -26l-56 -471q74 -25 158.5 -37t185.5 -12h27zM631 1063q255 0 423.5 -175t168.5 -448q0 -216 -165.5 -361t-408.5 -145q-257 0 -417 163t-160 427q0 247 151.5 393t407.5 146zM342 1542l291 -6l188 -362h-166l-92 122z" />
    <glyph glyph-name="ocircumflex.001" horiz-adv-x="1294" 
d="M766 788l-274 -26l-56 -471q74 -25 158.5 -37t185.5 -12h27zM631 1063q255 0 423.5 -175t168.5 -448q0 -216 -165.5 -361t-408.5 -145q-257 0 -417 163t-160 427q0 247 151.5 393t407.5 146zM520 1532l260 10q26 -76 70.5 -164t115.5 -204h-153l-166 176l-158 -168
l-164 -8q64 105 113 195.5t82 162.5z" />
    <glyph glyph-name="odieresis" unicode="&#xf6;" horiz-adv-x="1294" 
d="M766 788l-274 -26l-56 -471q74 -25 158.5 -37t185.5 -12h27zM631 1063q255 0 423.5 -175t168.5 -448q0 -216 -165.5 -361t-408.5 -145q-257 0 -417 163t-160 427q0 247 151.5 393t407.5 146zM819 1210q-70 0 -103.5 36t-33.5 112q0 63 41.5 105t109.5 42q72 0 107 -34.5
t35 -104.5q0 -73 -41.5 -114.5t-114.5 -41.5zM317 1354q0 63 42.5 107t103.5 44q76 0 112.5 -36.5t36.5 -112.5q0 -62 -45.5 -104t-114.5 -42q-50 0 -92.5 42.5t-42.5 101.5z" />
    <glyph glyph-name="otilde" unicode="&#xf5;" horiz-adv-x="1294" 
d="M766 788l-274 -26l-56 -471q74 -25 158.5 -37t185.5 -12h27zM631 1063q255 0 423.5 -175t168.5 -448q0 -216 -165.5 -361t-408.5 -145q-257 0 -417 163t-160 427q0 247 151.5 393t407.5 146zM858 1489l115 -33q-33 -138 -71.5 -191t-100.5 -53q-37 0 -143.5 42t-172.5 63
l-31 -88l-133 -4q5 122 56 200t123 78q33 0 97.5 -22.5t221.5 -91.5z" />
    <glyph glyph-name="uacute" unicode="&#xfa;" horiz-adv-x="1337" 
d="M102 1006l213 -11h203l-24 -743h327q5 104 7.5 206t2.5 206q0 43 -3 133.5t-9 226.5l400 -10l-11 -453l11 -536l-312 8l-12 73q-84 -80 -182.5 -121.5t-206.5 -41.5q-191 0 -292 98t-101 285q0 69 5 168t5 129v28zM682 1532l168 2l125 8l-305 -368h-174z" />
    <glyph glyph-name="ugrave.001" horiz-adv-x="1337" 
d="M102 1006l213 -11h203l-24 -743h327q5 104 7.5 206t2.5 206q0 43 -3 133.5t-9 226.5l400 -10l-11 -453l11 -536l-312 8l-12 73q-84 -80 -182.5 -121.5t-206.5 -41.5q-191 0 -292 98t-101 285q0 69 5 168t5 129v28zM365 1542l291 -6l188 -362h-166l-92 122z" />
    <glyph glyph-name="ucircumflex.001" horiz-adv-x="1337" 
d="M102 1006l213 -11h203l-24 -743h327q5 104 7.5 206t2.5 206q0 43 -3 133.5t-9 226.5l400 -10l-11 -453l11 -536l-312 8l-12 73q-84 -80 -182.5 -121.5t-206.5 -41.5q-191 0 -292 98t-101 285q0 69 5 168t5 129v28zM543 1532l260 10q26 -76 70.5 -164t115.5 -204h-153
l-166 176l-158 -168l-164 -8q64 105 113 195.5t82 162.5z" />
    <glyph glyph-name="udieresis" unicode="&#xfc;" horiz-adv-x="1337" 
d="M102 1006l213 -11h203l-24 -743h327q5 104 7.5 206t2.5 206q0 43 -3 133.5t-9 226.5l400 -10l-11 -453l11 -536l-312 8l-12 73q-84 -80 -182.5 -121.5t-206.5 -41.5q-191 0 -292 98t-101 285q0 69 5 168t5 129v28zM842 1210q-70 0 -103.5 36t-33.5 112q0 63 41.5 105
t109.5 42q72 0 107 -34.5t35 -104.5q0 -73 -41.5 -114.5t-114.5 -41.5zM340 1354q0 63 42.5 107t103.5 44q76 0 112.5 -36.5t36.5 -112.5q0 -62 -45.5 -104t-114.5 -42q-50 0 -92.5 42.5t-42.5 101.5z" />
    <glyph glyph-name="dagger" unicode="&#x2020;" horiz-adv-x="1024" 
d="M360 1010v116q0 71 -2 166.5t-7 247.5l294 -22l-10 -476l309 5l-14 -316l-244 19l-4 -566l20 -704l-360 31q4 228 6 405.5t2 237.5v577l-262 -24l-8 303h280z" />
    <glyph glyph-name="degree.001" horiz-adv-x="674" 
d="M338 1321q-69 0 -117.5 -48t-48.5 -116q0 -70 48 -118t118 -48q68 0 116 49t48 117t-48 116t-116 48zM338 1466q129 0 220 -91t91 -220q0 -128 -91.5 -219.5t-221.5 -91.5q-129 0 -219 90.5t-90 220.5q0 131 90.5 221t220.5 90z" />
    <glyph glyph-name="cent" unicode="&#xa2;" horiz-adv-x="1395" 
d="M473 455h137v635h-151zM584 -61l16 200q-267 31 -396.5 183t-129.5 434t138 448t398 197v135h221l-8 -135h8q209 0 331 -118t138 -335l-382 -8l-13 178h-100l8 -663h152l10 153l344 -12q-14 -213 -136.5 -324.5t-361.5 -130.5l8 -180z" />
    <glyph glyph-name="sterling" unicode="&#xa3;" horiz-adv-x="1395" 
d="M238 618l-162 -10l-19 232l156 4q6 272 28.5 377.5t71.5 167.5q69 87 181 131.5t264 44.5q249 0 369 -108.5t120 -332.5q0 -13 -0.5 -27t-1.5 -30l-371 -6l-12 229h-254l-18 -166v-256l317 21l15 -283l-355 -2l-37 -278l467 16q115 4 195 12.5t145 24.5
q-9 -75 -13.5 -140.5t-4.5 -125.5q0 -29 3 -95q1 -12 1 -18l-874 18l-261 -8q16 79 46 246q9 53 14 80z" />
    <glyph glyph-name="section" unicode="&#xa7;" horiz-adv-x="1331" 
d="M1018 205q61 -50 92 -122.5t31 -168.5q0 -203 -133.5 -318.5t-366.5 -115.5q-218 0 -343.5 92t-125.5 252v10l328 -24l20 -76l314 -4v239q-63 11 -178 29q-279 41 -384 92q-106 52 -153 141t-47 238q0 150 58 244.5t169 124.5q-45 41 -69.5 117.5t-24.5 174.5
q0 217 99.5 307.5t342.5 90.5q211 0 321.5 -75t133.5 -234q-120 5 -184.5 6.5t-120.5 1.5l-27 86h-272l-2 -250q479 -31 622.5 -126.5t143.5 -326.5q0 -161 -58.5 -258t-185.5 -147zM414 375l491 -88l15 389l-500 74z" />
    <glyph glyph-name="bullet" unicode="&#x2022;" horiz-adv-x="1208" 
d="M307 762q0 123 87 209t210 86q122 0 208.5 -86.5t86.5 -208.5t-87.5 -209.5t-209.5 -87.5q-123 0 -209 87t-86 210z" />
    <glyph glyph-name="paragraph" unicode="&#xb6;" horiz-adv-x="1024" 
d="M1036 1497l-28 -184l-117 43l103 -1370h-334l50 1220l-135 -49l28 -1157l-326 14l114 770q-164 6 -263 101t-99 245q0 158 106 253.5t283 95.5z" />
    <glyph glyph-name="germandbls" unicode="&#xdf;" horiz-adv-x="1313" 
d="M176 285v458l-135 -4l-27 250l162 -1q-1 11 -1.5 25.5t-0.5 41.5q0 261 130 399.5t374 138.5q179 0 291 -104t112 -270q0 -119 -46 -205.5t-136 -136.5q191 -30 302.5 -168.5t111.5 -348.5q0 -196 -116.5 -311t-313.5 -115q-50 0 -94.5 4.5t-88.5 12.5l21 303l205 -8
l4 432l-260 12l-6 279l122 6l-16 356l-233 2l12 -946q2 -94 7 -200.5t13 -223.5l-428 8q18 99 26.5 177t8.5 137z" />
    <glyph glyph-name="registered" unicode="&#xae;" horiz-adv-x="1706" 
d="M762 1022v-219h80q74 0 110.5 26.5t36.5 79.5q0 59 -38 86t-122 27h-67zM537 1163h329q174 0 264.5 -60t90.5 -177q0 -81 -46 -139t-128 -82l182 -361h-248l-154 326h-65v-326h-225v819zM854 1350q-124 0 -232 -44t-194 -128q-90 -90 -137 -203t-47 -238q0 -121 44 -229
t130 -195q87 -90 199 -138t235 -48q121 0 232.5 45.5t199.5 130.5t134 196.5t46 237.5q0 124 -44 233.5t-128 194.5q-89 91 -200.5 138t-237.5 47zM852 1485q156 0 294 -57.5t245 -167.5q101 -104 154.5 -238t53.5 -285q0 -155 -56.5 -291t-164.5 -239q-109 -105 -245 -161
t-281 -56q-151 0 -287 58t-243 169q-105 108 -160.5 241.5t-55.5 278.5q0 151 59 290t169 247q105 104 237 157.5t281 53.5z" />
    <glyph glyph-name="copyright" unicode="&#xa9;" horiz-adv-x="1706" 
d="M1221 891h-213q-7 67 -47.5 104t-108.5 37q-83 0 -129.5 -77t-46.5 -216q0 -140 47.5 -212t138.5 -72q67 0 106.5 40.5t45.5 114.5h215q-6 -143 -107.5 -230t-263.5 -87q-190 0 -301 117.5t-111 320.5q0 207 111 329t299 122q157 0 257 -80t108 -211zM854 1350
q-126 0 -235 -45.5t-195 -133.5q-88 -89 -135 -201t-47 -233q0 -119 47 -230.5t135 -199.5q87 -87 198 -133.5t232 -46.5t234 47t202 135q86 84 130 193t44 235q0 125 -45 235.5t-131 196.5q-88 89 -198.5 135t-235.5 46zM852 1485q154 0 289.5 -56t242.5 -163
q106 -106 160.5 -240.5t54.5 -288.5q0 -153 -54 -287t-159 -237q-109 -108 -247 -165.5t-287 -57.5q-148 0 -283.5 57t-242.5 164t-163.5 241.5t-56.5 284.5q0 148 57.5 285t164.5 246q105 106 238 161.5t286 55.5z" />
    <glyph glyph-name="trademark" unicode="&#x2122;" horiz-adv-x="1706" 
d="M797 1464h223l113 -303l114 303h221v-551h-155v390l-146 -390h-65l-150 390v-390h-155v551zM188 1464h502v-127h-164v-424h-174v424h-164v127z" />
    <glyph glyph-name="acute" unicode="&#xb4;" horiz-adv-x="1024" 
d="M524 1532l168 2l125 8l-305 -368h-174z" />
    <glyph glyph-name="dieresis" unicode="&#xa8;" horiz-adv-x="1024" 
d="M684 1210q-70 0 -103.5 36t-33.5 112q0 63 41.5 105t109.5 42q72 0 107 -34.5t35 -104.5q0 -73 -41.5 -114.5t-114.5 -41.5zM182 1354q0 63 42.5 107t103.5 44q76 0 112.5 -36.5t36.5 -112.5q0 -62 -45.5 -104t-114.5 -42q-50 0 -92.5 42.5t-42.5 101.5z" />
    <glyph glyph-name="notequal" unicode="&#x2260;" horiz-adv-x="1706" 
d="M1194 1251l168 -137l-135 -168h225v-221h-377l-180 -227h557v-222h-704l-246 -307l-170 137l135 170h-213v222h360l183 227h-543v221h694z" />
    <glyph glyph-name="AE" unicode="&#xc6;" horiz-adv-x="2138" 
d="M829 1186h-10l-241 -611h270v226zM827 -39l11 313h-357l-125 -331l-413 -4l333 708l375 823q34 0 138.5 -3t160.5 -3q353 0 647 4t455 11l8 -312l-868 -2l-2 -259q65 -8 158.5 -11.5t222.5 -3.5q121 0 210 2.5t162 7.5l-8 -315q-24 -5 -51.5 -6.5t-77.5 -1.5h-47
q-29 0 -97 1t-108 1q-101 0 -142 -0.5t-71 -2.5v-280q133 -18 301 -27.5t355 -9.5h106l21 -315l-688 16h-609z" />
    <glyph glyph-name="Oslash" unicode="&#xd8;" horiz-adv-x="1651" 
d="M365 -158l86 191q-184 95 -277.5 281.5t-93.5 455.5q0 174 28.5 298t84.5 196q109 139 269 207.5t378 68.5q66 0 133 -9t133 -28l45 119l172 -57l-63 -131q157 -97 233 -256.5t76 -393.5q0 -201 -58 -362.5t-176 -288.5q-101 -110 -206.5 -157.5t-251.5 -47.5
q-68 0 -130 8t-124 25l-76 -174zM575 299l196.5 431l178.5 407l-395 18v-459zM1073 289l47 848l-360 -838q70 -5 149 -7.5t164 -2.5z" />
    <glyph glyph-name="infinity" unicode="&#x221e;" horiz-adv-x="1706" 
d="M956 561q43 -67 102 -101t132 -34q90 0 146.5 50.5t56.5 129.5q0 77 -51.5 127.5t-127.5 50.5q-72 0 -131.5 -50.5t-126.5 -172.5zM752 657q-43 67 -101 100.5t-133 33.5q-90 0 -146.5 -50t-56.5 -129q0 -77 51 -127.5t128 -50.5q71 0 132 52.5t126 170.5zM856 442
q-68 -130 -147.5 -193t-176.5 -63q-139 0 -238 121.5t-99 300.5q0 188 87.5 305t227.5 117q90 0 166.5 -56.5t175.5 -199.5q71 132 150 195t174 63q140 0 238.5 -121t98.5 -301q0 -189 -87.5 -306.5t-227.5 -117.5q-91 0 -166 55t-176 201z" />
    <glyph glyph-name="plusminus" unicode="&#xb1;" horiz-adv-x="1706" 
d="M254 213h1198v-231h-1198v231zM735 1241h238v-319h479v-232h-479v-319h-238v319h-481v232h481v319z" />
    <glyph glyph-name="lessequal" unicode="&#x2264;" horiz-adv-x="1706" 
d="M256 213h1196v-229h-1196v229zM1450 1257v-239l-776 -240l776 -239v-240l-1194 379v201z" />
    <glyph glyph-name="greaterequal" unicode="&#x2265;" horiz-adv-x="1706" 
d="M256 213h1196v-229h-1196v229zM258 1257l1192 -378v-201l-1192 -379v240l776 239l-776 240v239z" />
    <glyph glyph-name="yen" unicode="&#xa5;" horiz-adv-x="1395" 
d="M1333 1475l-340 -680l238 -2l-2 -224l-344 11l6 -498l12 -153q-98 5 -152.5 7.5t-86.5 2.5q-36 0 -81.5 -2.5t-111.5 -7.5q14 169 21.5 309t7.5 233v88h-322l-31 221l267 -18l-355 721l430 18l242 -645l264 637z" />
    <glyph glyph-name="mu" unicode="&#xb5;" horiz-adv-x="1315" 
d="M193 1090h358l-80 -529q-6 -41 -9 -77.5t-3 -65.5q0 -85 35.5 -127.5t107.5 -42.5q88 0 138.5 68.5t74.5 220.5l88 553h357l-175 -1090h-321l18 125q-40 -75 -89.5 -108t-119.5 -33q-59 0 -106.5 31t-77.5 89l-82 -532h-352z" />
    <glyph glyph-name="partialdiff" unicode="&#x2202;" horiz-adv-x="1114" 
d="M766 684q21 113 32 206t11 150q0 87 -29.5 148t-68.5 61q-35 0 -132 -93t-180 -93q-48 0 -80 33.5t-32 83.5q0 69 93 125.5t220 56.5q210 0 332.5 -161t122.5 -441q0 -344 -162.5 -564.5t-417.5 -220.5q-182 0 -299 116.5t-117 299.5q0 203 119.5 336t298.5 133
q101 0 170.5 -42.5t118.5 -133.5zM698 532q0 114 -36.5 176t-104.5 62q-96 0 -160.5 -136.5t-64.5 -346.5q0 -116 36.5 -176t106.5 -60q97 0 160 135.5t63 345.5z" />
    <glyph glyph-name="summation" unicode="&#x2211;" horiz-adv-x="1520" 
d="M72 1473h1335v-302h-838l596 -608l-587 -651h895v-305h-1424v184l684 756l-661 665v261z" />
    <glyph glyph-name="product" unicode="&#x220f;" horiz-adv-x="1645" 
d="M145 1473h1348v-1866h-399v1532h-549v-1532h-400v1866z" />
    <glyph glyph-name="pi" unicode="&#x3c0;" horiz-adv-x="1288" 
d="M117 358l-15 611l306 4l391 2l379 12l-13 -483l2 -486l-340 -18l17 158l-13 571l-354 -16l-14 -750l-363 14z" />
    <glyph glyph-name="integral" unicode="&#x222b;" horiz-adv-x="1249" 
d="M362 -248q99 0 119 667q3 101 4 154q17 523 130.5 753t349.5 230q105 0 170 -53t65 -137q0 -64 -41 -103.5t-106 -39.5q-64 0 -96.5 38.5t-32.5 112.5q0 38 -7.5 49t-25.5 11q-101 0 -124 -667l-3 -91q-11 -329 -30.5 -472.5t-57.5 -244.5q-62 -166 -159.5 -249
t-229.5 -83q-107 0 -171.5 52t-64.5 139q0 65 42 104t112 39q60 0 92.5 -36t32.5 -103q0 -12 -2 -24v-3q0 -24 8 -33.5t26 -9.5z" />
    <glyph glyph-name="ordfeminine" unicode="&#xaa;" horiz-adv-x="975" 
d="M336 928l215 14q6 28 9 61t3 68v24q-61 -4 -117.5 -14t-109.5 -24v-129zM600 844q-65 -43 -146.5 -65.5t-168.5 -22.5q-121 0 -188.5 49.5t-67.5 138.5q0 70 33 136t79 87q46 20 179.5 40t308.5 32v25q0 19 -1.5 39t-4.5 40q-59 18 -118 27.5t-104 9.5q-9 0 -17.5 -0.5
t-16.5 -1.5l-5 -96q-63 5 -98 6.5t-65 1.5q-50 0 -77 -1t-50 -3v17q0 105 119.5 173t304.5 68q195 0 294 -71t99 -209q0 -49 -3 -119.5t-3 -89.5q0 -87 34 -262q2 -9 2 -13q-35 3 -59.5 4.5t-36.5 1.5q-25 0 -69 -5t-115 -17z" />
    <glyph glyph-name="ordmasculine" unicode="&#xba;" horiz-adv-x="971" 
d="M575 1354l-206 -21l-41 -329q55 -17 119 -25t139 -8h20zM473 1544q192 0 318.5 -122t126.5 -312q0 -152 -124 -253t-307 -101q-194 0 -314 113t-120 298q0 173 114 275t306 102z" />
    <glyph glyph-name="Omega" unicode="&#x2126;" horiz-adv-x="1645" 
d="M1266 307h333v-307h-636v352q92 82 142 196.5t50 246.5q0 182 -90 288.5t-244 106.5q-153 0 -243.5 -107.5t-90.5 -289.5q0 -132 50 -246.5t143 -194.5v-352h-635v307h332q-132 95 -200 229.5t-68 299.5q0 303 195.5 489t516.5 186q323 0 518 -185t195 -490
q0 -165 -68 -299.5t-200 -229.5z" />
    <glyph glyph-name="ae" unicode="&#xe6;" horiz-adv-x="1915" 
d="M770 383l-329 -4q-6 -34 -8.5 -58t-2.5 -40q0 -11 2.5 -29.5l7.5 -54.5h330v186zM1149 608h305l-16 207l-289 -8v-199zM1423 301l400 12q-28 -179 -166.5 -280t-358.5 -101q-124 0 -230 32t-189 95q-113 -65 -222.5 -95t-232.5 -30q-191 0 -288 77t-97 229q0 195 169 288
t527 93h13q0 14 2 43q6 91 7 133l-208 22l-127 -2l-16 -110l-328 -10q5 180 123 258.5t385 78.5q96 0 187.5 -12.5t180.5 -38.5q75 39 155 59.5t159 20.5q265 0 420 -163.5t155 -444.5v-37h-407q-63 0 -149 -5t-220 -16q0 -52 4.5 -102t13.5 -100l326 -5z" />
    <glyph glyph-name="oslash" unicode="&#xf8;" horiz-adv-x="1294" 
d="M424 336l326 467l-277 -12zM813 240l4 415l-309 -428zM283 -152l-146 84l113 150q-86 68 -132 183t-46 259q0 246 152 392.5t407 146.5q65 0 128.5 -14.5t121.5 -42.5l88 122l125 -75l-88 -123q109 -86 163 -208t54 -282q0 -216 -165.5 -361t-408.5 -145q-75 0 -142 15
t-130 45z" />
    <glyph glyph-name="questiondown" unicode="&#xbf;" horiz-adv-x="1337" 
d="M946 1016v-410l-422 -4l4 -360h330l-2 217h399v-45q0 -232 -147 -359t-418 -127q-253 0 -422.5 117.5t-169.5 280.5q0 277 108 404.5t345 127.5h18l2 158h375zM729 1540q134 0 212.5 -65.5t78.5 -176.5q0 -69 -68 -131.5t-149 -62.5q-120 0 -210.5 58t-90.5 122
q0 123 59 189.5t168 66.5z" />
    <glyph glyph-name="exclamdown" unicode="&#xa1;" horiz-adv-x="639" 
d="M483 1056q-9 -114 -13.5 -217.5t-4.5 -201.5q0 -176 8.5 -354.5t26.5 -354.5l-404 37l23 416q32 203 53 357.5t29 252.5zM315 1540q112 0 170 -56.5t58 -164.5q0 -82 -62 -131t-162 -49q-91 0 -144.5 51.5t-53.5 138.5q0 105 49 158t145 53z" />
    <glyph glyph-name="logicalnot" unicode="&#xac;" horiz-adv-x="1706" 
d="M254 866h1198v-501h-229v274h-969v227z" />
    <glyph glyph-name="radical" unicode="&#x221a;" horiz-adv-x="1366" 
d="M1155 1714h215v-149h-96l-590 -1606h-119l-307 846l-145 -55l-37 129l360 127l223 -635z" />
    <glyph glyph-name="florin" unicode="&#x192;" horiz-adv-x="1395" 
d="M422 680l-327 68l50 295l322 -109q4 26 13 77q48 289 98 369q48 79 154.5 132t217.5 53q181 0 275 -82.5t94 -241.5q0 -23 -3 -93q-1 -23 -46 -105l-220 -7l-21 327l-192 -121l-71 -327l455 -7l-29 -411l-397 149l-74 -482q-42 -239 -80.5 -349.5t-95.5 -176.5
q-54 -64 -155 -100t-226 -36q-164 0 -241 82t-77 256l5 266l341 -28l-47 -342l245 264z" />
    <glyph glyph-name="approxequal" unicode="&#x2248;" horiz-adv-x="1706" 
d="M1530 602v-254q-105 -71 -196 -104t-181 -33t-283 65.5t-309 65.5q-82 0 -172.5 -37t-210.5 -121v254q111 74 209 109t195 35q115 0 304.5 -65.5t272.5 -65.5t170 35t201 116zM1530 1036v-254q-107 -70 -197 -102.5t-178 -32.5q-91 0 -284 64.5t-310 64.5q-84 0 -172 -36
t-211 -122v256q112 74 209 108t195 34q115 0 304.5 -65.5t272.5 -65.5t170.5 35.5t200.5 115.5z" />
    <glyph glyph-name="Delta" unicode="&#x2206;" horiz-adv-x="1468" 
d="M733 1059l-262 -774h526zM537 1473h395l541 -1473h-1475z" />
    <glyph glyph-name="guillemotleft" unicode="&#xab;" horiz-adv-x="1024" 
d="M952 94l-235 10q-54 140 -110 251t-105 175q57 89 108.5 187t98.5 203l235 -15l-242 -389zM522 94l-256 10q-24 70 -74.5 173.5t-119.5 224.5q58 106 103.5 209.5t80.5 208.5l256 -19l-242 -385z" />
    <glyph glyph-name="guillemotright" unicode="&#xbb;" horiz-adv-x="1024" 
d="M72 920l235 -11q52 -135 108 -246.5t107 -179.5q-57 -89 -108.5 -186.5t-98.5 -202.5l-235 15l242 389zM502 920l256 -11q21 -64 72 -169.5t122 -227.5q-60 -113 -105 -214.5t-79 -203.5l-256 21l242 383z" />
    <glyph glyph-name="ellipsis" unicode="&#x2026;" 
d="M616 254q0 -114 -67.5 -184t-179.5 -70q-123 0 -194 66t-71 182q0 92 81 163.5t186 71.5q88 0 166.5 -80t78.5 -149zM1292 254q0 -114 -67.5 -184t-179.5 -70q-123 0 -194 66t-71 182q0 92 81 163.5t186 71.5q88 0 166.5 -80t78.5 -149zM1976 254q0 -114 -67.5 -184
t-179.5 -70q-123 0 -194 66t-71 182q0 92 81 163.5t186 71.5q88 0 166.5 -80t78.5 -149z" />
    <glyph glyph-name="nbspace.001" horiz-adv-x="1395" 
 />
    <glyph glyph-name="Agrave.001" horiz-adv-x="1403" 
d="M516 616h297l-90 308l-55 274zM-18 -33l229 701l260 829l500 -14l438 -1516h-514l-92 328l-344 8l-84 -336h-393zM402 2021l291 -6l188 -362h-166l-92 122z" />
    <glyph glyph-name="Atilde" unicode="&#xc3;" horiz-adv-x="1403" 
d="M516 616h297l-90 308l-55 274zM-18 -33l229 701l260 829l500 -14l438 -1516h-514l-92 328l-344 8l-84 -336h-393zM918 1968l115 -33q-33 -138 -71.5 -191t-100.5 -53q-37 0 -143.5 42t-172.5 63l-31 -88l-133 -4q5 122 56 200t123 78q33 0 97.5 -22.5t221.5 -91.5z" />
    <glyph glyph-name="Otilde" unicode="&#xd5;" horiz-adv-x="1651" 
d="M582 315q123 -13 245.5 -19.5t245.5 -6.5l31 844l-549 22v-459zM877 -72q-375 0 -586 223t-211 619q0 174 28 298t85 196q109 139 269 207.5t378 68.5q347 0 538 -197.5t191 -558.5q0 -201 -58 -362.5t-176 -288.5q-103 -110 -208.5 -157.5t-249.5 -47.5zM1036 1968
l115 -33q-33 -138 -71.5 -191t-100.5 -53q-37 0 -143.5 42t-172.5 63l-31 -88l-133 -4q5 122 56 200t123 78q33 0 97.5 -22.5t221.5 -91.5z" />
    <glyph glyph-name="OE.001" horiz-adv-x="2427" 
d="M1102 354l31 387l6 422q-97 12 -216 23t-292 24l-70 -839zM1225 2q-74 -38 -157 -56t-194 -18q-365 0 -579.5 215t-214.5 582q0 382 218 598.5t601 216.5q80 0 160 -15t162 -44l716 37l414 -7l-4 -270l-373 -4l-370 -20l12 -283h61h28q121 -2 241 -2q116 0 167 1.5
t88 4.5l-3 -324l-439 21l-315 -31v-231h47q340 0 571.5 3.5t312.5 10.5q1 -122 5 -219.5t12 -179.5q-8 -6 -14.5 -8t-18.5 -3q-6 0 -41 2q-170 10 -334 13z" />
    <glyph glyph-name="oe.001" horiz-adv-x="2009" 
d="M1130 600l392 10l-19 187l-366 6zM1946 317q-27 -176 -167 -279.5t-356 -103.5q-113 0 -219 26t-190 75q-78 -51 -164 -76t-186 -25q-259 0 -425.5 174.5t-166.5 448.5q0 217 165 361.5t408 144.5q92 0 172.5 -23.5t161.5 -72.5q81 49 169 72.5t193 23.5
q150 0 290.5 -64.5t217.5 -167.5q46 -60 65 -143.5t19 -236.5v-43l-708 10l24 -244l295 14l37 129h365zM840 770l-353 -16l41 -547l275 26z" />
    <glyph glyph-name="endash" unicode="&#x2013;" horiz-adv-x="1024" 
d="M14 412l-14 221h49q12 0 73 -1q322 -7 644 -7q51 0 115.5 1.5t142.5 3.5v-220l-375 -19q-168 7 -383.5 11t-251.5 10z" />
    <glyph glyph-name="emdash.001" 
d="M29 412l-29 221h98q28 0 164 -2q647 -6 1272 -6q101 0 229 1.5t285 4.5l-2 -221l-748 -19q-332 7 -763.5 11t-505.5 10z" />
    <glyph glyph-name="quotedblleft.001" horiz-adv-x="1223" 
d="M1106 979l4 -178h-96q-186 0 -277.5 101.5t-91.5 307.5q0 164 61 242t189 78q101 0 160 -61.5t59 -168.5q0 -96 -47 -145t-139 -49q-9 0 -18 0.5t-19 1.5l18 -131zM514 973l6 -162q-31 -3 -45 -3.5t-26 -0.5q-187 0 -275 105.5t-88 328.5q0 159 57.5 235t178.5 76
q107 0 174 -65t67 -168q0 -92 -59 -150.5t-148 -58.5q-10 0 -33 3q-4 1 -6 1l9 -135q36 -6 58 -8t40 -2q9 0 41 1.5t49 2.5z" />
    <glyph glyph-name="quotedblright.001" horiz-adv-x="1223" 
d="M692 812l8 157h88q20 0 42.5 2t58.5 8l8 135l-26 -3t-15 -1q-88 0 -146.5 58.5t-58.5 150.5q0 103 66.5 168t173.5 65q121 0 179 -76t58 -235q0 -223 -88.5 -328.5t-275.5 -105.5q-12 0 -26.5 0.5t-45.5 4.5zM104 801l5 178l196 -2l19 131q-11 -1 -20.5 -1.5t-18.5 -0.5
q-93 0 -140 49t-47 145q0 106 60 168t161 62q128 0 189 -78t61 -242q0 -207 -94 -310t-285 -103q-33 0 -51 1t-35 3z" />
    <glyph glyph-name="quoteleft" unicode="&#x2018;" horiz-adv-x="696" 
d="M368 1508l155 -423l-77 -29l-220 321z" />
    <glyph glyph-name="quoteright" unicode="&#x2019;" horiz-adv-x="696" 
d="M502 1400l-244 -316l-86 29l172 416z" />
    <glyph glyph-name="divide.001" horiz-adv-x="1706" 
d="M854 371q68 0 116 -48.5t48 -117.5q0 -68 -47.5 -116t-116.5 -48t-117.5 48t-48.5 116t49 117t117 49zM254 727h1198v-231h-1198v231zM854 1182q67 0 115.5 -49t48.5 -117t-48.5 -116t-117.5 -48t-116.5 48t-47.5 116t49 117t117 49z" />
    <glyph glyph-name="lozenge" unicode="&#x25ca;" horiz-adv-x="1012" 
d="M506 1409l-385 -817l385 -825l385 825zM506 1653l500 -1061l-500 -1069l-500 1069z" />
    <glyph glyph-name="ydieresis.001" horiz-adv-x="1110" 
d="M-25 1028l422 10l138 -405q22 -66 39 -140t28 -153l121 459l49 264l309 -35q-94 -278 -355 -1164l-7 -23q-62 -209 -150.5 -280t-255.5 -71q-172 0 -259 77t-87 230q0 23 6 83q2 14 2 20l304 -35l-17 -137l115 -9l43 220l-314 759zM727 1210q-70 0 -103.5 36t-33.5 112
q0 63 41.5 105t109.5 42q72 0 107 -34.5t35 -104.5q0 -73 -41.5 -114.5t-114.5 -41.5zM225 1354q0 63 42.5 107t103.5 44q76 0 112.5 -36.5t36.5 -112.5q0 -62 -45.5 -104t-114.5 -42q-50 0 -92.5 42.5t-42.5 101.5z" />
    <glyph glyph-name="Ydieresis.001" horiz-adv-x="1319" 
d="M414 -66q13 158 19.5 293.5t6.5 225.5q0 25 -3 86q0 14 -1 22l-436 926l477 4l172 -436q6 -16 18.5 -60.5l28.5 -105.5l254 608l369 -31l-451 -936l19 -639q-126 16 -244.5 26.5t-228.5 16.5zM831 1689q-70 0 -103.5 36t-33.5 112q0 63 41.5 105t109.5 42q72 0 107 -34.5
t35 -104.5q0 -73 -41.5 -114.5t-114.5 -41.5zM329 1833q0 63 42.5 107t103.5 44q76 0 112.5 -36.5t36.5 -112.5q0 -62 -45.5 -104t-114.5 -42q-50 0 -92.5 42.5t-42.5 101.5z" />
    <glyph glyph-name="fraction" unicode="&#x2044;" horiz-adv-x="371" 
d="M-342 2l508 852l379 711l166 -56l-471 -811l-70 -118l-338 -652z" />
    <glyph glyph-name="currency" unicode="&#xa4;" horiz-adv-x="1241" 
d="M623 1145q-107 0 -184 -77t-77 -183q0 -108 76 -184t185 -76q107 0 183.5 76t76.5 184q0 106 -76.5 183t-183.5 77zM178 1444l203 -201q54 37 113.5 55.5t126.5 18.5q69 0 130 -18.5t113 -55.5l201 201l119 -117l-201 -205q35 -53 52.5 -112t17.5 -125t-17.5 -125.5
t-52.5 -112.5l201 -203l-119 -118l-201 202q-52 -37 -111.5 -55t-129.5 -18t-128.5 17.5t-113.5 55.5l-203 -202l-117 118l201 203q-36 54 -54 113t-18 125q0 67 18.5 126.5t53.5 110.5l-201 205z" />
    <glyph glyph-name="guilsinglleft" unicode="&#x2039;" horiz-adv-x="592" 
d="M522 94l-256 10q-24 70 -74.5 173.5t-119.5 224.5q58 106 103.5 209.5t80.5 208.5l256 -19l-242 -385z" />
    <glyph glyph-name="guilsinglright" unicode="&#x203a;" horiz-adv-x="592" 
d="M72 920l256 -11q26 -73 76.5 -177.5t117.5 -219.5q-70 -131 -113.5 -228t-72.5 -190l-256 21l242 383z" />
    <glyph glyph-name="fi" unicode="&#xfb01;" horiz-adv-x="1518" 
d="M1243 1094q-105 0 -158 50.5t-53 151.5q0 91 55.5 147t141.5 56q91 0 151 -56t60 -140q0 -86 -57 -147.5t-140 -61.5zM184 -35v744l-166 14l33 276l113 1q-1 13 -1.5 29.5t-0.5 47.5q0 254 103 374t321 120q192 0 283.5 -87.5t91.5 -273.5q0 -8 -1.5 -24.5t-1.5 -26.5
l-282 -26l6 219l-162 8l-8 -410h305q193 0 332.5 8.5t247.5 26.5l-8 -461l10 -559l-410 23l23 702h-437l-12 -213l12 -500z" />
    <glyph glyph-name="fl" unicode="&#xfb02;" horiz-adv-x="1536" 
d="M1049 930v203l-222 -3l-10 213l-272 -10l8 -403h496zM166 -37l16 416l4 332l-161 -4l2 264l159 4q3 193 18.5 269t51.5 130q62 90 192 149.5t273 59.5q110 0 182 -21.5t117 -68.5l414 72l-27 -1080l6 -518l-399 -6q5 203 7.5 382.5t2.5 344.5h-428l-6 -754z" />
    <glyph glyph-name="daggerdbl" unicode="&#x2021;" horiz-adv-x="1024" 
d="M334 -493q5 113 7.5 220.5t2.5 213.5v96l-264 -6l22 264l244 4l4 504l-262 -25l-8 303h280v45q0 89 -2.5 186t-7.5 209l320 19l-19 -426l293 4l-14 -289l-289 -8l-2 -487h322l-19 -268h-262l22 -586q-76 12 -164.5 18.5t-203.5 8.5z" />
    <glyph glyph-name="periodcentered" unicode="&#xb7;" horiz-adv-x="696" 
d="M100 748q0 102 72.5 174.5t175.5 72.5q105 0 177.5 -71.5t72.5 -175.5q0 -103 -74 -176.5t-176 -73.5q-101 0 -174.5 74t-73.5 176z" />
    <glyph glyph-name="quotesinglbase.001" horiz-adv-x="696" 
d="M103 -266l14 180l209 16l24 129q-3 0 -10 -1q-42 -7 -61 -7q-87 0 -140 55t-53 146q0 105 62.5 163t177.5 58q58 0 119.5 -28.5t99.5 -73.5q18 -22 28.5 -70.5t10.5 -112.5q0 -134 -46.5 -248.5t-111.5 -150.5q-47 -26 -118.5 -38.5t-204.5 -16.5z" />
    <glyph glyph-name="quotedblbase" unicode="&#x201e;" horiz-adv-x="1223" 
d="M389 109l-244 -316l-86 29l172 416zM784 82l-244 -316l-86 29l172 416z" />
    <glyph glyph-name="perthousand" unicode="&#x2030;" horiz-adv-x="2484" 
d="M1937 485l-30 -258l223 -41l16 285zM2404 373q0 -194 -93.5 -305t-258.5 -111q-81 0 -170.5 38t-132.5 85q-24 26 -55 118.5t-31 159.5q0 149 118.5 264t270.5 115q134 0 243 -116t109 -248zM1098 217l221 -20l27 249l-244 17zM1225 -43q-192 0 -287.5 89.5t-95.5 270.5
q0 185 109.5 302.5t281.5 117.5q164 0 255 -95t91 -267q0 -93 -36.5 -189.5t-96.5 -162.5q-30 -34 -85 -50t-136 -16zM346 1030l227 -14q4 51 6.5 93t2.5 62q0 62 -0.5 91t-2.5 55l-223 6zM293 -72l-191 105l555 622l560 709q-121 -69 -192.5 -94t-137.5 -25q-23 0 -42 5.5
t-38 17.5q8 -26 12 -51.5t4 -49.5q0 -173 -116.5 -294t-276.5 -121q-155 0 -252.5 106.5t-97.5 280.5q0 101 26.5 174t79.5 121q41 36 123.5 66t134.5 30q87 0 172.5 -36.5t124.5 -90.5q46 -12 88.5 -18.5t79.5 -6.5q97 0 194.5 42t186.5 122l226 -61l-568 -699l-139 -170z
" />
    <glyph glyph-name="Acircumflex.001" horiz-adv-x="1403" 
d="M516 616h297l-90 308l-55 274zM-18 -33l229 701l260 829l500 -14l438 -1516h-514l-92 328l-344 8l-84 -336h-393zM580 2011l260 10q26 -76 70.5 -164t115.5 -204h-153l-166 176l-158 -168l-164 -8q64 105 113 195.5t82 162.5z" />
    <glyph glyph-name="Ecircumflex.001" horiz-adv-x="1460" 
d="M115 -57l32 858l-36 635l860 43l411 -4l-2 -273l-372 -4l-373 -18l14 -283q14 0 34 -1t28 -1h27q121 -2 241 -2q116 0 166 1.5t87 4.5l-3 -321l-436 18l-316 -31v-229h47q369 0 589 3t294 9q0 -109 4.5 -208.5t13.5 -190.5q-8 -6 -14.5 -8t-17.5 -2q-6 0 -42 1
q-166 9 -333 13l-457 12zM604 2011l260 10q26 -76 70.5 -164t115.5 -204h-153l-166 176l-158 -168l-164 -8q64 105 113 195.5t82 162.5z" />
    <glyph glyph-name="Aacute" unicode="&#xc1;" horiz-adv-x="1403" 
d="M516 616h297l-90 308l-55 274zM-18 -33l229 701l260 829l500 -14l438 -1516h-514l-92 328l-344 8l-84 -336h-393zM719 2011l168 2l125 8l-305 -368h-174z" />
    <glyph glyph-name="Edieresis.007" horiz-adv-x="1460" 
d="M115 -57l32 858l-36 635l860 43l411 -4l-2 -273l-372 -4l-373 -18l14 -283q14 0 34 -1t28 -1h27q121 -2 241 -2q116 0 166 1.5t87 4.5l-3 -321l-436 18l-316 -31v-229h47q369 0 589 3t294 9q0 -109 4.5 -208.5t13.5 -190.5q-8 -6 -14.5 -8t-17.5 -2q-6 0 -42 1
q-166 9 -333 13l-457 12zM903 1689q-70 0 -103.5 36t-33.5 112q0 63 41.5 105t109.5 42q72 0 107 -34.5t35 -104.5q0 -73 -41.5 -114.5t-114.5 -41.5zM401 1833q0 63 42.5 107t103.5 44q76 0 112.5 -36.5t36.5 -112.5q0 -62 -45.5 -104t-114.5 -42q-50 0 -92.5 42.5
t-42.5 101.5z" />
    <glyph glyph-name="Egrave.001" horiz-adv-x="1460" 
d="M115 -57l32 858l-36 635l860 43l411 -4l-2 -273l-372 -4l-373 -18l14 -283q14 0 34 -1t28 -1h27q121 -2 241 -2q116 0 166 1.5t87 4.5l-3 -321l-436 18l-316 -31v-229h47q369 0 589 3t294 9q0 -109 4.5 -208.5t13.5 -190.5q-8 -6 -14.5 -8t-17.5 -2q-6 0 -42 1
q-166 9 -333 13l-457 12zM426 2021l291 -6l188 -362h-166l-92 122z" />
    <glyph glyph-name="Iacute" unicode="&#xcd;" horiz-adv-x="725" 
d="M147 723l-14 768l459 -10l-14 -695l14 -798l-459 -8zM376 2011l168 2l125 8l-305 -368h-174z" />
    <glyph glyph-name="Icircumflex.001" horiz-adv-x="725" 
d="M147 723l-14 768l459 -10l-14 -695l14 -798l-459 -8zM237 2011l260 10q26 -76 70.5 -164t115.5 -204h-153l-166 176l-158 -168l-164 -8q64 105 113 195.5t82 162.5z" />
    <glyph glyph-name="Idieresis.001" horiz-adv-x="725" 
d="M147 723l-14 768l459 -10l-14 -695l14 -798l-459 -8zM536 1689q-70 0 -103.5 36t-33.5 112q0 63 41.5 105t109.5 42q72 0 107 -34.5t35 -104.5q0 -73 -41.5 -114.5t-114.5 -41.5zM34 1833q0 63 42.5 107t103.5 44q76 0 112.5 -36.5t36.5 -112.5q0 -62 -45.5 -104
t-114.5 -42q-50 0 -92.5 42.5t-42.5 101.5z" />
    <glyph glyph-name="Igrave" unicode="&#xcc;" horiz-adv-x="725" 
d="M147 723l-14 768l459 -10l-14 -695l14 -798l-459 -8zM59 2021l291 -6l188 -362h-166l-92 122z" />
    <glyph glyph-name="Oacute" unicode="&#xd3;" horiz-adv-x="1651" 
d="M582 315q123 -13 245.5 -19.5t245.5 -6.5l31 844l-549 22v-459zM877 -72q-375 0 -586 223t-211 619q0 174 28 298t85 196q109 139 269 207.5t378 68.5q347 0 538 -197.5t191 -558.5q0 -201 -58 -362.5t-176 -288.5q-103 -110 -208.5 -157.5t-249.5 -47.5zM837 2011l168 2
l125 8l-305 -368h-174z" />
    <glyph glyph-name="Ocircumflex.001" horiz-adv-x="1651" 
d="M582 315q123 -13 245.5 -19.5t245.5 -6.5l31 844l-549 22v-459zM877 -72q-375 0 -586 223t-211 619q0 174 28 298t85 196q109 139 269 207.5t378 68.5q347 0 538 -197.5t191 -558.5q0 -201 -58 -362.5t-176 -288.5q-103 -110 -208.5 -157.5t-249.5 -47.5zM698 2011
l260 10q26 -76 70.5 -164t115.5 -204h-153l-166 176l-158 -168l-164 -8q64 105 113 195.5t82 162.5z" />
    <glyph glyph-name="Ograve" unicode="&#xd2;" horiz-adv-x="1651" 
d="M582 315q123 -13 245.5 -19.5t245.5 -6.5l31 844l-549 22v-459zM877 -72q-375 0 -586 223t-211 619q0 174 28 298t85 196q109 139 269 207.5t378 68.5q347 0 538 -197.5t191 -558.5q0 -201 -58 -362.5t-176 -288.5q-103 -110 -208.5 -157.5t-249.5 -47.5zM520 2021
l291 -6l188 -362h-166l-92 122z" />
    <glyph glyph-name="Uacute" unicode="&#xda;" horiz-adv-x="1583" 
d="M139 1507l465 -28l2 -449l37 -711l408 -6l20 684l-35 473l389 15l9 -412q3 -151 4.5 -255.5t1.5 -162.5q0 -229 -30 -344.5t-101 -191.5q-87 -95 -212 -143t-284 -48q-222 0 -372 75t-220 220q-38 80 -58 252t-22 437zM805 2011l168 2l125 8l-305 -368h-174z" />
    <glyph glyph-name="Ucircumflex.001" horiz-adv-x="1583" 
d="M139 1507l465 -28l2 -449l37 -711l408 -6l20 684l-35 473l389 15l9 -412q3 -151 4.5 -255.5t1.5 -162.5q0 -229 -30 -344.5t-101 -191.5q-87 -95 -212 -143t-284 -48q-222 0 -372 75t-220 220q-38 80 -58 252t-22 437zM666 2011l260 10q26 -76 70.5 -164t115.5 -204h-153
l-166 176l-158 -168l-164 -8q64 105 113 195.5t82 162.5z" />
    <glyph glyph-name="Ugrave.001" horiz-adv-x="1583" 
d="M139 1507l465 -28l2 -449l37 -711l408 -6l20 684l-35 473l389 15l9 -412q3 -151 4.5 -255.5t1.5 -162.5q0 -229 -30 -344.5t-101 -191.5q-87 -95 -212 -143t-284 -48q-222 0 -372 75t-220 220q-38 80 -58 252t-22 437zM488 2021l291 -6l188 -362h-166l-92 122z" />
    <glyph glyph-name="dotlessi" unicode="&#x131;" horiz-adv-x="621" 
d="M90 -10l31 395v6q8 96 8 146q0 21 -0.5 51.5t-1.5 66.5l-8 303l381 27l-6 -461l8 -559z" />
    <glyph glyph-name="circumflex" unicode="&#x2c6;" horiz-adv-x="1024" 
d="M385 1532l260 10q26 -76 70.5 -164t115.5 -204h-153l-166 176l-158 -168l-164 -8q64 105 113 195.5t82 162.5z" />
    <glyph glyph-name="tilde" unicode="&#x2dc;" horiz-adv-x="1024" 
d="M723 1489l115 -33q-33 -138 -71.5 -191t-100.5 -53q-37 0 -143.5 42t-172.5 63l-31 -88l-133 -4q5 122 56 200t123 78q33 0 97.5 -22.5t221.5 -91.5z" />
    <glyph glyph-name="macron" unicode="&#x2c9;" horiz-adv-x="1024" 
d="M819 1268h-5q-93 4 -140 4q-91 0 -262 -4q-77 -2 -113 -2l-94 2v178l102 -2l512 6v-182z" />
    <glyph glyph-name="breve" unicode="&#x2d8;" horiz-adv-x="1024" 
d="M199 1509h141l35 -114h278l23 114l149 -12q-21 -159 -95.5 -227t-225.5 -68q-141 0 -224 69.5t-83 182.5q0 23 0.5 34.5t1.5 20.5z" />
    <glyph glyph-name="dotaccent" unicode="&#x2d9;" horiz-adv-x="1024" 
d="M356 1358q0 68 48 111.5t122 43.5q58 0 101 -45t43 -108q0 -76 -41 -117t-117 -41q-68 0 -112 44t-44 112z" />
    <glyph glyph-name="ring" unicode="&#x2da;" horiz-adv-x="1024" 
d="M612 1528l-192 -8l-8 -201l196 8zM242 1413q0 125 78.5 204t203.5 79q107 0 183.5 -79t76.5 -192t-82 -192.5t-200 -79.5q-115 0 -187.5 73t-72.5 187z" />
    <glyph glyph-name="cedilla" unicode="&#xb8;" horiz-adv-x="1024" 
d="M522 -143h19q111 0 170 -50t59 -143q0 -108 -69.5 -163.5t-206.5 -55.5q-143 0 -206 45t-75 152l156 -4l8 -37l194 -2v122l-163 7v290h114v-161z" />
    <glyph glyph-name="hungarumlaut" unicode="&#x2dd;" horiz-adv-x="1024" 
d="M717 1530l262 12l-86 -121l-205 -247h-127l92 204zM391 1530l258 12l-114 -147l-132 -221h-122z" />
    <glyph glyph-name="ogonek" unicode="&#x2db;" horiz-adv-x="1024" 
d="M524 0h129l-135 -180v-96l76 -9l104 13l-6 -195q-12 -1 -25 -1.5t-38 -0.5q-155 0 -226 48t-71 151q0 50 18 91t53 73z" />
    <glyph glyph-name="caron" unicode="&#x2c7;" horiz-adv-x="1024" 
d="M190 1542l166 -8l156 -170l166 178h153l-133 -244l-59 -124h-256q-39 88 -87 179.5t-106 188.5z" />
    <glyph glyph-name="Lslash" unicode="&#x141;" horiz-adv-x="1223" 
d="M152 551l-152 -98v229l147 100l-6 701l486 16l-9 -452l289 184l15 -262l-334 -217l6 -430l625 6l-17 -371q-132 5 -236.5 7.5t-195.5 2.5h-82l-547 19z" />
    <glyph glyph-name="lslash" unicode="&#x142;" horiz-adv-x="627" 
d="M123 549l-123 -82v207l123 78v770l375 18l-21 -565l150 100v-252l-107 -73v-490l10 -264l-419 -14v12q12 327 12 483v72z" />
    <glyph glyph-name="Scaron" unicode="&#x160;" horiz-adv-x="1612" 
d="M90 460l481 -22q0 -42 2 -81.5t7 -77.5l458 -21q1 9 1 25q3 87 3 120q0 17 -1.5 49.5t-4.5 83.5q-85 10 -241 20q-345 23 -473 89q-118 60 -177 165.5t-59 254.5q0 254 171.5 364.5t573.5 110.5q296 0 456.5 -110.5t160.5 -313.5q0 -13 -1 -28t-3 -35l-467 16l8 155
q-67 10 -139 14.5t-152 4.5q-35 0 -75.5 -1.5t-88.5 -5.5l-2 -247h50q494 0 726 -127.5t232 -398.5q0 -254 -181 -394.5t-511 -140.5q-358 0 -557 130.5t-199 363.5q0 10 0.5 19t1.5 19zM485 2021l166 -8l156 -170l166 178h153l-133 -244l-59 -124h-256q-39 88 -87 179.5
t-106 188.5z" />
    <glyph glyph-name="scaron" unicode="&#x161;" horiz-adv-x="1157" 
d="M90 287l328 -25l18 -74l359 -6v144q-431 23 -574 109t-143 292q0 183 106 263.5t357 80.5q239 0 351.5 -73.5t137.5 -243.5h-6q-199 8 -301 8l-27 86h-319v-146q415 -17 566 -103.5t151 -285.5q0 -178 -133.5 -278.5t-372.5 -100.5q-243 0 -370.5 88t-127.5 257v8z
M258 1542l166 -8l156 -170l166 178h153l-133 -244l-59 -124h-256q-39 88 -87 179.5t-106 188.5z" />
    <glyph glyph-name="Zcaron" unicode="&#x17d;" horiz-adv-x="1489" 
d="M48 0q4 67 6.5 121.5t2.5 99.5q0 1 -1 33t-1 63l487 477.5l419 395.5l-871 -57l16 337h36q291 -8 423 -8q193 0 404 5t436 13l-4 -399l-132 -141q-466 -497 -642 -610h794l13 -330l-748 18zM423 2021l166 -8l156 -170l166 178h153l-133 -244l-59 -124h-256
q-39 88 -87 179.5t-106 188.5z" />
    <glyph glyph-name="zcaron" unicode="&#x17e;" horiz-adv-x="1200" 
d="M47 0l4 195l620 589q-142 -1 -288 -7t-291 -17l23 278q58 -3 126 -4.5t208 -1.5q203 0 366 1.5t287 4.5l-4 -297l-477 -469l526 9q-7 -37 -9.5 -75.5t-2.5 -103.5q0 -39 0.5 -64.5t0.5 -47.5q-143 7 -295.5 10.5t-320.5 3.5q-165 0 -269.5 -1t-203.5 -3zM278 1542l166 -8
l156 -170l166 178h153l-133 -244l-59 -124h-256q-39 88 -87 179.5t-106 188.5z" />
    <glyph glyph-name="brokenbar" unicode="&#xa6;" horiz-adv-x="1024" 
d="M393 408h240v-758h-240v758zM393 1432h240v-758h-240v758z" />
    <glyph glyph-name="Eth" unicode="&#xd0;" horiz-adv-x="1597" 
d="M584 344h417l21 770l-463 14l-4 -303h236l-5 -198l-202 8v-291zM145 627l-145 -2v215h147l1 633q153 11 287.5 16.5t244.5 5.5q259 0 414.5 -58t271.5 -192q81 -94 116.5 -189t35.5 -218q0 -461 -212.5 -663t-705.5 -202q-89 0 -202 6.5t-267 20.5z" />
    <glyph glyph-name="eth" unicode="&#xf0;" horiz-adv-x="1255" 
d="M453 231l204 7l144 16l-3 477q-34 1 -72.5 1.5t-104.5 0.5q-19 0 -75.5 -1t-94.5 -1l-5 -307zM748 932q-42 87 -80.5 156.5t-77.5 125.5l-197 -106l-123 115l230 106l-170 172l245 90l148 -129l209 119l92 -139l-184 -103q178 -202 262 -402t84 -423
q0 -281 -138.5 -430.5t-398.5 -149.5q-265 0 -421 141.5t-156 383.5q0 231 135 372.5t356 141.5q57 0 102 -10t83 -31z" />
    <glyph glyph-name="Yacute" unicode="&#xdd;" horiz-adv-x="1319" 
d="M414 -66q13 158 19.5 293.5t6.5 225.5q0 25 -3 86q0 14 -1 22l-436 926l477 4l172 -436q6 -16 18.5 -60.5l28.5 -105.5l254 608l369 -31l-451 -936l19 -639q-126 16 -244.5 26.5t-228.5 16.5zM671 2011l168 2l125 8l-305 -368h-174z" />
    <glyph glyph-name="yacute" unicode="&#xfd;" horiz-adv-x="1110" 
d="M-25 1028l422 10l138 -405q22 -66 39 -140t28 -153l121 459l49 264l309 -35q-94 -278 -355 -1164l-7 -23q-62 -209 -150.5 -280t-255.5 -71q-172 0 -259 77t-87 230q0 23 6 83q2 14 2 20l304 -35l-17 -137l115 -9l43 220l-314 759zM567 1532l168 2l125 8l-305 -368h-174z
" />
    <glyph glyph-name="Thorn" unicode="&#xde;" horiz-adv-x="1432" 
d="M494 631q13 -1 37 -1q106 -3 145 -3q28 0 80 1.5t128 4.5q5 61 7 108.5t2 71.5q0 59 -0.5 89.5t-1.5 57.5q-86 5 -149.5 7t-123.5 2q-20 0 -51 -1.5t-73 -4.5v-332zM147 698l-10 799l250 4l182 17l-6 -271q10 0 31 1q172 3 248 3q273 0 396.5 -100.5t123.5 -323.5
q0 -134 -52.5 -237t-150.5 -162q-56 -33 -175 -49.5t-363 -22.5v-366l-488 10z" />
    <glyph glyph-name="thorn" unicode="&#xfe;" horiz-adv-x="1384" 
d="M500 727l-11 -252l11 -205l385 13l10 448zM565 -541l-444 43q0 10 1 31q11 242 11 348q0 620 -8.5 1052.5t-22.5 569.5l41 -3q127 -9 181 -9q35 0 85.5 1.5t118.5 4.5l-16 -154l-6 -417q75 69 162 103t186 34q210 0 334.5 -155t124.5 -419q0 -243 -138 -394.5
t-360 -151.5q-74 0 -140.5 19.5t-123.5 57.5q0 -18 -1 -56t-1 -58q0 -102 4 -214t12 -233z" />
    <glyph glyph-name="minus" unicode="&#x2212;" horiz-adv-x="1706" 
d="M254 729h1198v-235h-1198v235z" />
    <glyph glyph-name="multiply" unicode="&#xd7;" horiz-adv-x="1706" 
d="M430 1214l440 -440l441 440l162 -161l-441 -443l441 -440l-162 -162l-441 441l-440 -441l-162 162l441 440l-441 443z" />
    <glyph glyph-name="onesuperior" unicode="&#xb9;" horiz-adv-x="920" 
d="M315 596l39 428l11 291l-146 8l19 143q157 11 250.5 21t150.5 22q-16 -105 -24.5 -228.5t-8.5 -256.5v-53l4 -389z" />
    <glyph glyph-name="twosuperior" unicode="&#xb2;" horiz-adv-x="920" 
d="M98 602q0 174 12.5 252t43.5 121q33 48 113 84t288 88v223h-186l-4 -190l-256 4q-3 19 -4 38t-1 46q0 64 14.5 93.5t51.5 65.5q57 56 130.5 81.5t176.5 25.5q165 0 255.5 -78.5t90.5 -222.5q0 -105 -56 -169t-196 -114q-66 -22 -136.5 -40.5t-75.5 -20.5q-6 -3 -8.5 -10
t-2.5 -29v-10q0 -11 -0.5 -18t-0.5 -13q20 -1 47.5 -1.5t84.5 -0.5q100 0 183.5 4t146.5 12q-5 -38 -7.5 -77.5t-2.5 -83.5q0 -12 1 -34t1 -32q-143 8 -236.5 11t-167.5 3q-77 0 -257 -6q-27 -1 -42 -2z" />
    <glyph glyph-name="threesuperior" unicode="&#xb3;" horiz-adv-x="920" 
d="M74 866l295 -6l-13 -145h203l-12 221l-215 16l14 170h164l20 201l-190 16l-8 -159l-256 20q2 162 99 248t276 86q169 0 261.5 -75t92.5 -212q0 -74 -39.5 -117t-138.5 -77q110 -23 164.5 -78.5t54.5 -145.5q0 -125 -108 -200.5t-289 -75.5q-196 0 -286.5 64t-90.5 202
q0 7 1 23t1 24z" />
    <glyph glyph-name="onequarter" unicode="&#xbc;" horiz-adv-x="2128" 
d="M1739 381l6 321q-63 -77 -119.5 -157.5t-105.5 -163.5h219zM1655 -41l4 225h-373q1 17 2 44q2 51 2 67q0 13 -0.5 26.5t-3.5 38.5q89 132 191 264t217 265q57 -9 119.5 -15t144.5 -10l2 -506h145l-8 -172h-143l2 -227h-301zM537 2l507 852l379 711l166 -56l-471 -811
l-69 -118l-338 -652zM301 657l37 400l10 272l-139 8l16 133q136 8 230.5 18t154.5 21q-16 -89 -24 -203t-8 -249v-49l4 -365z" />
    <glyph glyph-name="onehalf" unicode="&#xbd;" horiz-adv-x="2128" 
d="M1342 6q1 166 13.5 237.5t41.5 110.5q32 46 110 79.5t273 80.5v209h-178l-5 -178l-245 4q-1 17 -1.5 35t-0.5 43q0 59 13 87t48 62q55 52 125.5 76.5t167.5 24.5q158 0 245 -74t87 -209q0 -98 -54.5 -158t-187.5 -104q-64 -23 -131.5 -40.5t-71.5 -19.5q-5 -2 -7.5 -8.5
t-2.5 -27.5v-9q0 -10 -0.5 -16.5t-1.5 -11.5q20 -1 46.5 -1.5t82.5 -0.5q95 0 174 4t139 12q-5 -50 -7.5 -86.5t-2.5 -65.5q0 -10 1 -23l3 -38q-15 1 -43 2q-241 10 -344 10q-63 0 -134 -1.5t-152 -4.5zM537 2l507 852l379 711l166 -56l-471 -811l-69 -118l-338 -652z
M301 657l37 400l10 272l-139 8l16 133q136 8 230.5 18t154.5 21q-16 -89 -24 -203t-8 -249v-49l4 -365z" />
    <glyph glyph-name="threequarters" unicode="&#xbe;" horiz-adv-x="2128" 
d="M1739 381l6 321q-63 -77 -119.5 -157.5t-105.5 -163.5h219zM1655 -41l4 225h-373q1 17 2 44q2 51 2 67q0 13 -0.5 26.5t-3.5 38.5q89 132 191 264t217 265q57 -9 119.5 -15t144.5 -10l2 -506h145l-8 -172h-143l2 -227h-301zM537 2l507 852l379 711l166 -56l-471 -811
l-69 -118l-338 -652zM72 909l278 -6l-10 -135h192l-10 207l-205 14l13 160h157l21 188l-184 15l-9 -150l-243 19q3 151 95.5 232t262.5 81q161 0 249.5 -70.5t88.5 -197.5q0 -70 -38 -111t-132 -72q104 -21 156.5 -73.5t52.5 -135.5q0 -116 -103.5 -187t-275.5 -71
q-187 0 -273.5 60.5t-86.5 189.5q0 8 0.5 16.5t3.5 26.5z" />
    <glyph glyph-name="franc" unicode="&#x20a3;" horiz-adv-x="2445" 
d="M147 588l3 882q313 17 494.5 23t318.5 6q82 0 171 -2.5t191 -8.5l-10 -312q-141 6 -262 9t-222 3q-85 0 -164 -2t-153 -6l4 -356l279 3.5t192 1.5q55 0 116 -1.5t128 -4.5v-319l-598 -4q-1 -13 -1 -37q-7 -202 -7 -289q0 -49 1.5 -104t6.5 -156q-188 16 -306 23.5
t-202 9.5zM1483 29l18 661l-8 305h289l18 -155q31 106 116.5 164.5t209.5 58.5q141 0 214.5 -86.5t73.5 -253.5q0 -45 -4 -94.5t-12 -106.5h-338l6 226h-192l37 -773q-162 45 -397 53q-20 0 -31 1z" />
    <glyph glyph-name="Gbreve" unicode="&#x11e;" horiz-adv-x="1688" 
d="M1243 2l-49 117q-60 -99 -157.5 -145t-248.5 -46q-337 0 -522.5 211.5t-185.5 595.5q0 407 197 613t585 206q329 0 503.5 -149.5t174.5 -429.5v-3q2 -13 2 -26h-498l3 234l-459 16v-598l14 -295h503q8 44 11.5 81t3.5 71q0 6 -1 19.5t-1 21.5l-276 10v264l739 -16
l-33 -734zM531 1988h141l35 -114h278l23 114l149 -12q-21 -159 -95.5 -227t-225.5 -68q-141 0 -224 69.5t-83 182.5q0 23 0.5 34.5t1.5 20.5z" />
    <glyph glyph-name="gbreve" unicode="&#x11f;" horiz-adv-x="1346" 
d="M893 743l-379 15v-410l389 8zM776 84q-55 -28 -111.5 -40.5t-123.5 -12.5q-222 0 -345.5 134t-123.5 376q0 249 127 385.5t358 136.5q115 0 203.5 -33.5t148.5 -99.5l52 100l258 -6v-897q0 -190 -12 -273t-40 -133q-64 -111 -203 -172t-333 -61q-289 0 -426 102.5
t-137 319.5q0 23 0.5 35t1.5 22l385 -24l-4 -176l323 -3zM361 1509h141l35 -114h278l23 114l149 -12q-21 -159 -95.5 -227t-225.5 -68q-141 0 -224 69.5t-83 182.5q0 23 0.5 34.5t1.5 20.5z" />
    <glyph glyph-name="Idotaccent" unicode="&#x130;" horiz-adv-x="725" 
d="M147 723l-14 768l459 -10l-14 -695l14 -798l-459 -8zM208 1837q0 68 48 111.5t122 43.5q58 0 101 -45t43 -108q0 -76 -41 -117t-117 -41q-68 0 -112 44t-44 112z" />
    <glyph glyph-name="Scedilla" unicode="&#x15e;" horiz-adv-x="1612" 
d="M90 460l481 -22q0 -42 2 -81.5t7 -77.5l458 -21q1 9 1 25q3 87 3 120q0 17 -1.5 49.5t-4.5 83.5q-85 10 -241 20q-345 23 -473 89q-118 60 -177 165.5t-59 254.5q0 254 171.5 364.5t573.5 110.5q296 0 456.5 -110.5t160.5 -313.5q0 -13 -1 -28t-3 -35l-467 16l8 155
q-67 10 -139 14.5t-152 4.5q-35 0 -75.5 -1.5t-88.5 -5.5l-2 -247h50q494 0 726 -127.5t232 -398.5q0 -254 -181 -394.5t-511 -140.5q-358 0 -557 130.5t-199 363.5q0 10 0.5 19t1.5 19zM817 -143h19q111 0 170 -50t59 -143q0 -108 -69.5 -163.5t-206.5 -55.5
q-143 0 -206 45t-75 152l156 -4l8 -37l194 -2v122l-163 7v290h114v-161z" />
    <glyph glyph-name="scedilla" unicode="&#x15f;" horiz-adv-x="1157" 
d="M90 287l328 -25l18 -74l359 -6v144q-431 23 -574 109t-143 292q0 183 106 263.5t357 80.5q239 0 351.5 -73.5t137.5 -243.5h-6q-199 8 -301 8l-27 86h-319v-146q415 -17 566 -103.5t151 -285.5q0 -178 -133.5 -278.5t-372.5 -100.5q-243 0 -370.5 88t-127.5 257v8z
M590 -143h19q111 0 170 -50t59 -143q0 -108 -69.5 -163.5t-206.5 -55.5q-143 0 -206 45t-75 152l156 -4l8 -37l194 -2v122l-163 7v290h114v-161z" />
    <glyph glyph-name="Cacute" unicode="&#x106;" horiz-adv-x="1602" 
d="M1518 565v-26q0 -271 -184.5 -441t-483.5 -170q-354 0 -562 215t-208 580q0 370 209 593.5t555 223.5q307 0 493.5 -157.5t186.5 -415.5q0 -10 -1 -23t-4 -41q-41 -2 -90.5 -3t-103.5 -1q-63 0 -131.5 2.5t-146.5 7.5l-19 305h-410l-18 -557l12 -335h484l24 268z
M848 2011l168 2l125 8l-305 -368h-174z" />
    <glyph glyph-name="cacute" unicode="&#x107;" horiz-adv-x="1298" 
d="M1227 369q-19 -206 -159 -320.5t-374 -114.5q-273 0 -447.5 159t-174.5 407q0 257 158 410t427 153q267 0 419 -126t157 -349l-369 8l-22 205l-311 -19q-6 -57 -8.5 -123t-2.5 -153q0 -64 3.5 -130t11.5 -134q55 -6 88.5 -8.5t58.5 -2.5q31 0 108 7q15 1 23 2l12 129h402
zM684 1532l168 2l125 8l-305 -368h-174z" />
    <glyph glyph-name="Ccaron" unicode="&#x10c;" horiz-adv-x="1602" 
d="M1518 565v-26q0 -271 -184.5 -441t-483.5 -170q-354 0 -562 215t-208 580q0 370 209 593.5t555 223.5q307 0 493.5 -157.5t186.5 -415.5q0 -10 -1 -23t-4 -41q-41 -2 -90.5 -3t-103.5 -1q-63 0 -131.5 2.5t-146.5 7.5l-19 305h-410l-18 -557l12 -335h484l24 268z
M514 2021l166 -8l156 -170l166 178h153l-133 -244l-59 -124h-256q-39 88 -87 179.5t-106 188.5z" />
    <glyph glyph-name="ccaron" unicode="&#x10d;" horiz-adv-x="1298" 
d="M1227 369q-19 -206 -159 -320.5t-374 -114.5q-273 0 -447.5 159t-174.5 407q0 257 158 410t427 153q267 0 419 -126t157 -349l-369 8l-22 205l-311 -19q-6 -57 -8.5 -123t-2.5 -153q0 -64 3.5 -130t11.5 -134q55 -6 88.5 -8.5t58.5 -2.5q31 0 108 7q15 1 23 2l12 129h402
zM350 1542l166 -8l156 -170l166 178h153l-133 -244l-59 -124h-256q-39 88 -87 179.5t-106 188.5z" />
    <glyph glyph-name="dcroat" unicode="&#x111;" horiz-adv-x="1356" 
d="M795 715l-359 -10l-4 -422h377zM911 0l-30 80q-52 -52 -141 -82.5t-189 -30.5q-242 0 -360.5 137t-118.5 416q0 253 136 398t372 145q97 0 176.5 -31.5t140.5 -93.5v252l-367 -4l2 178l207 6h127l-2 152l367 10v-139l125 -4v-205l-125 2l-2 -461v-94q0 -175 4.5 -335
t13.5 -296q-30 1 -82 2q-88 2 -112 2q-33 0 -68 -1t-74 -3z" />
    <glyph glyph-name="periodcenter" unicode="&#x2219;" horiz-adv-x="696" 
d="M100 748q0 102 72.5 174.5t175.5 72.5q105 0 177.5 -71.5t72.5 -175.5q0 -103 -74 -176.5t-176 -73.5q-101 0 -174.5 74t-73.5 176z" />
    <glyph glyph-name="overscore.001" unicode="&#xaf;" horiz-adv-x="1024" 
d="M0 1565h1024v-240h-1024v240z" />
    <glyph glyph-name="Abreve" unicode="&#x102;" horiz-adv-x="1403" 
d="M516 616h297l-90 308l-55 274zM-18 -33l229 701l260 829l500 -14l438 -1516h-514l-92 328l-344 8l-84 -336h-393zM394 1988h141l35 -114h278l23 114l149 -12q-21 -159 -95.5 -227t-225.5 -68q-141 0 -224 69.5t-83 182.5q0 23 0.5 34.5t1.5 20.5z" />
    <glyph glyph-name="abreve" unicode="&#x103;" horiz-adv-x="1298" 
d="M449 180l286 21q8 56 11.5 99t3.5 87l-1 33q-76 -5 -151.5 -18.5t-151.5 -36.5zM799 61q-88 -61 -196.5 -94t-223.5 -33q-160 0 -251 72t-91 199q0 100 44.5 193t106.5 124q61 30 238 59t412 46v35q0 31 -2 59.5t-7 52.5q-76 25 -155 39t-139 14q-13 0 -24.5 -0.5
t-23.5 -1.5l-4 -139q-64 7 -117.5 10.5t-101.5 3.5q-39 0 -82 -1.5t-88 -3.5v22q0 150 160.5 248t404.5 98q260 0 393.5 -101.5t133.5 -299.5q0 -71 -5 -171t-5 -129q0 -71 10 -154.5t40 -236.5q-28 2 -73 5.5t-55 3.5q-33 0 -90 -8t-156 -25zM351 1509h141l35 -114h278
l23 114l149 -12q-21 -159 -95.5 -227t-225.5 -68q-141 0 -224 69.5t-83 182.5q0 23 0.5 34.5t1.5 20.5z" />
    <glyph glyph-name="Aogonek" unicode="&#x104;" horiz-adv-x="1403" 
d="M516 616h297l-90 308l-55 274zM-18 -33l229 701l260 829l500 -14l438 -1516h-35l-112 -147v-96l75 -9l105 13l-7 -195q-11 -1 -24.5 -1.5t-38.5 -0.5q-154 0 -225.5 48t-71.5 151q0 50 18 90t54 74l82 73h-334l-92 328l-344 8l-84 -336h-393z" />
    <glyph glyph-name="aogonek" unicode="&#x105;" horiz-adv-x="1298" 
d="M449 180l286 21q8 56 11.5 99t3.5 87l-1 33q-76 -5 -151.5 -18.5t-151.5 -36.5zM799 61q-88 -61 -196.5 -94t-223.5 -33q-160 0 -251 72t-91 199q0 100 44.5 193t106.5 124q61 30 238 59t412 46v35q0 31 -2 59.5t-7 52.5q-76 25 -155 39t-139 14q-13 0 -24.5 -0.5
t-23.5 -1.5l-4 -139q-64 7 -117.5 10.5t-101.5 3.5q-39 0 -82 -1.5t-88 -3.5v22q0 150 160.5 248t404.5 98q260 0 393.5 -101.5t133.5 -299.5q0 -71 -5 -171t-5 -129q0 -71 10 -154.5t41 -236.5l-17 2l-114 -153v-96l73 -9l105 13l-5 -195q-11 -1 -24 -1.5t-39 -0.5
q-155 0 -227 48t-72 151q0 48 18.5 88.5t55.5 75.5l96 88l-225 -35z" />
    <glyph glyph-name="Dcaron" unicode="&#x10e;" horiz-adv-x="1597" 
d="M571 344h430l21 770l-449 14l2 -249zM147 635l-16 835q160 13 296.5 19t250.5 6q262 0 417.5 -58t270.5 -192q81 -94 116.5 -189t35.5 -218q0 -461 -212.5 -663t-705.5 -202q-89 0 -202 6.5t-267 20.5zM477 2021l166 -8l156 -170l166 178h153l-133 -244l-59 -124h-256
q-39 88 -87 179.5t-106 188.5z" />
    <glyph glyph-name="dcaron" unicode="&#x10f;" horiz-adv-x="1815" 
d="M795 715l-359 -10l-4 -422h377zM911 0l-30 80q-52 -52 -141 -82.5t-189 -30.5q-242 0 -360.5 137t-118.5 416q0 253 136 398t372 145q97 0 176.5 -31.5t140.5 -93.5q0 155 -9 301.5t-28 282.5q11 -1 31 -2q144 -7 203 -7q33 0 120 4q18 0 29 1q-6 -64 -9 -132.5
t-3 -156.5v-76l-2 -428v-92q0 -175 4.5 -335t13.5 -298q-30 1 -82 2q-88 2 -112 2q-33 0 -68 -1t-74 -3zM1379 831l6 173l192 14l22 125q-29 -5 -43.5 -6.5t-25.5 -1.5q-78 0 -126 53t-48 139q0 101 58 157t163 56q115 0 176.5 -70t61.5 -202q0 -128 -44 -239.5t-104 -145.5
q-41 -24 -103.5 -36t-184.5 -16z" />
    <glyph glyph-name="Dslash" unicode="&#x110;" horiz-adv-x="1597" 
d="M584 344h417l21 770l-463 14l-4 -303h236l-5 -198l-202 8v-291zM145 627l-145 -2v215h147l1 633q153 11 287.5 16.5t244.5 5.5q259 0 414.5 -58t271.5 -192q81 -94 116.5 -189t35.5 -218q0 -461 -212.5 -663t-705.5 -202q-89 0 -202 6.5t-267 20.5z" />
    <glyph glyph-name="Eogonek" unicode="&#x118;" horiz-adv-x="1460" 
d="M115 -57l32 858l-36 635l860 43l411 -4l-2 -273l-372 -4l-373 -18l14 -283q14 0 34 -1t28 -1h27q121 -2 241 -2q116 0 166 1.5t87 4.5l-3 -321l-436 18l-316 -31v-229h47q369 0 589 3t294 9q0 -109 4.5 -208.5t13.5 -190.5q-8 -6 -14.5 -8t-19.5 -2h-11q-4 2 -8 2
l-92 -121v-96l76 -9l104 13l-4 -195q-12 -1 -25 -1.5t-38 -0.5q-156 0 -227.5 48t-71.5 151q0 49 18.5 90t54.5 74l62 53q-11 0 -80.5 2.5t-131.5 3.5l-456 12z" />
    <glyph glyph-name="eogonek" unicode="&#x119;" horiz-adv-x="1294" 
d="M514 606h322l-19 209l-303 -6v-203zM803 301l399 12q-11 -94 -66 -174t-151 -139l-135 -180v-96l76 -9l104 13l-6 -194q-12 -2 -25 -2.5t-38 -0.5q-155 0 -226 48t-71 151q0 50 17.5 90t53.5 74l55 48q-33 -5 -61.5 -7.5t-54.5 -2.5q-277 0 -439.5 149t-162.5 400
q0 264 157 423t418 159q265 0 420.5 -163.5t155.5 -444.5v-37h-408q-62 0 -148.5 -5t-220.5 -16q0 -52 5 -102.5t14 -99.5l326 -5z" />
    <glyph glyph-name="Ecaron" unicode="&#x11a;" horiz-adv-x="1460" 
d="M115 -57l32 858l-36 635l860 43l411 -4l-2 -273l-372 -4l-373 -18l14 -283q14 0 34 -1t28 -1h27q121 -2 241 -2q116 0 166 1.5t87 4.5l-3 -321l-436 18l-316 -31v-229h47q369 0 589 3t294 9q0 -109 4.5 -208.5t13.5 -190.5q-8 -6 -14.5 -8t-17.5 -2q-6 0 -42 1
q-166 9 -333 13l-457 12zM409 2021l166 -8l156 -170l166 178h153l-133 -244l-59 -124h-256q-39 88 -87 179.5t-106 188.5z" />
    <glyph glyph-name="ecaron" unicode="&#x11b;" horiz-adv-x="1294" 
d="M514 606h322l-19 209l-303 -6v-203zM803 301l399 12q-28 -179 -167 -280t-359 -101q-279 0 -441.5 148.5t-162.5 400.5q0 264 157 423t418 159q265 0 420.5 -163.5t155.5 -444.5v-37h-408q-62 0 -148.5 -5t-220.5 -16q0 -52 5 -102.5t14 -99.5l326 -5zM325 1542l166 -8
l156 -170l166 178h153l-133 -244l-59 -124h-256q-39 88 -87 179.5t-106 188.5z" />
    <glyph glyph-name="Lacute" unicode="&#x139;" horiz-adv-x="1223" 
d="M147 764l-6 719l471 16l-6 -1177l613 6l-17 -371q-132 5 -236.5 7.5t-195.5 2.5h-82l-565 19zM395 2011l168 2l125 8l-305 -368h-174z" />
    <glyph glyph-name="lacute" unicode="&#x13a;" horiz-adv-x="639" 
d="M119 4q4 177 6 368.5t2 407.5q0 258 -1 418t-3 313l416 -16l-27 -989l14 -524zM346 1964l168 2l125 8l-305 -368h-174z" />
    <glyph glyph-name="Lcaron" unicode="&#x13d;" horiz-adv-x="1223" 
d="M778 831l6 173l191 14l22 125q-2 -1 -5 -1q-43 -7 -62 -7q-78 0 -127 53t-49 139q0 101 58 157t163 56q115 0 176 -70t61 -202q0 -128 -43.5 -239.5t-103.5 -145.5q-42 -24 -103.5 -36t-183.5 -16zM147 764l-6 719l471 16l-6 -1177l613 6l-17 -371q-132 5 -236.5 7.5
t-195.5 2.5h-82l-565 19z" />
    <glyph glyph-name="lcaron" unicode="&#x13e;" horiz-adv-x="1098" 
d="M119 4q4 177 6 368.5t2 407.5q0 258 -1 418t-3 313l416 -16l-27 -989l14 -524zM662 831l6 173l192 14l22 125q-29 -5 -43.5 -6.5t-25.5 -1.5q-78 0 -126 53t-48 139q0 101 58 157t163 56q115 0 176.5 -70t61.5 -202q0 -128 -44 -239.5t-104 -145.5q-41 -24 -103.5 -36
t-184.5 -16z" />
    <glyph glyph-name="Ldot" unicode="&#x13f;" horiz-adv-x="1919" 
d="M147 764l-6 719l471 16l-6 -1177l613 6l-17 -371q-132 5 -236.5 7.5t-195.5 2.5h-82l-565 19zM1323 748q0 102 72.5 174.5t175.5 72.5q105 0 177.5 -71.5t72.5 -175.5q0 -103 -74 -176.5t-176 -73.5q-101 0 -174.5 74t-73.5 176z" />
    <glyph glyph-name="ldot" unicode="&#x140;" horiz-adv-x="1335" 
d="M119 4q4 177 6 368.5t2 407.5q0 258 -1 418t-3 313l416 -16l-27 -989l14 -524zM739 748q0 102 72.5 174.5t175.5 72.5q105 0 177.5 -71.5t72.5 -175.5q0 -103 -74 -176.5t-176 -73.5q-101 0 -174.5 74t-73.5 176z" />
    <glyph glyph-name="Nacute" unicode="&#x143;" horiz-adv-x="1669" 
d="M119 -18q16 385 24.5 761.5t10.5 745.5h483l463 -739q21 -35 52 -107t60 -158q0 49 1 118.5t1 88.5q0 122 -4.5 296t-15.5 460l336 -4l-8 -858l-6 -604q-82 4 -148.5 6t-105.5 2q-22 0 -101 -2q-59 -2 -93 -2q-10 13 -28 41q-470 700 -567 995l-18 -1040h-336zM848 2011
l168 2l125 8l-305 -368h-174z" />
    <glyph glyph-name="nacute" unicode="&#x144;" horiz-adv-x="1298" 
d="M496 393q-4 -65 -7.5 -152.5t-7.5 -228.5l-372 -12q9 179 13.5 338t4.5 274v74q0 87 -3 158t-9 139l297 -18l22 -109q114 91 229 137.5t226 46.5q154 0 227.5 -81.5t73.5 -253.5q0 -22 -0.5 -33t-1.5 -22l-12 -214q-3 -72 -4 -141.5t-1 -161.5q0 -39 2 -84l4 -94
q-114 7 -209.5 10.5t-183.5 3.5l17 406l-31 336l-283 -17zM661 1532l168 2l125 8l-305 -368h-174z" />
    <glyph glyph-name="Ncaron" unicode="&#x147;" horiz-adv-x="1669" 
d="M119 -18q16 385 24.5 761.5t10.5 745.5h483l463 -739q21 -35 52 -107t60 -158q0 49 1 118.5t1 88.5q0 122 -4.5 296t-15.5 460l336 -4l-8 -858l-6 -604q-82 4 -148.5 6t-105.5 2q-22 0 -101 -2q-59 -2 -93 -2q-10 13 -28 41q-470 700 -567 995l-18 -1040h-336zM514 2021
l166 -8l156 -170l166 178h153l-133 -244l-59 -124h-256q-39 88 -87 179.5t-106 188.5z" />
    <glyph glyph-name="ncaron" unicode="&#x148;" horiz-adv-x="1298" 
d="M496 393q-4 -65 -7.5 -152.5t-7.5 -228.5l-372 -12q9 179 13.5 338t4.5 274v74q0 87 -3 158t-9 139l297 -18l22 -109q114 91 229 137.5t226 46.5q154 0 227.5 -81.5t73.5 -253.5q0 -22 -0.5 -33t-1.5 -22l-12 -214q-3 -72 -4 -141.5t-1 -161.5q0 -39 2 -84l4 -94
q-114 7 -209.5 10.5t-183.5 3.5l17 406l-31 336l-283 -17zM327 1542l166 -8l156 -170l166 178h153l-133 -244l-59 -124h-256q-39 88 -87 179.5t-106 188.5z" />
    <glyph glyph-name="Odblacute" unicode="&#x150;" horiz-adv-x="1651" 
d="M582 315q123 -13 245.5 -19.5t245.5 -6.5l31 844l-549 22v-459zM877 -72q-375 0 -586 223t-211 619q0 174 28 298t85 196q109 139 269 207.5t378 68.5q347 0 538 -197.5t191 -558.5q0 -201 -58 -362.5t-176 -288.5q-103 -110 -208.5 -157.5t-249.5 -47.5zM1030 2009
l262 12l-86 -121l-205 -247h-127l92 204zM704 2009l258 12l-114 -147l-132 -221h-122z" />
    <glyph glyph-name="odblacute" unicode="&#x151;" horiz-adv-x="1294" 
d="M766 788l-274 -26l-56 -471q74 -25 158.5 -37t185.5 -12h27zM631 1063q255 0 423.5 -175t168.5 -448q0 -216 -165.5 -361t-408.5 -145q-257 0 -417 163t-160 427q0 247 151.5 393t407.5 146zM852 1530l262 12l-86 -121l-205 -247h-127l92 204zM526 1530l258 12l-114 -147
l-132 -221h-122z" />
    <glyph glyph-name="Racute" unicode="&#x154;" horiz-adv-x="1554" 
d="M627 838l395 4l10 343q-67 6 -129.5 8.5t-122.5 2.5q-1 0 -52 -1t-101 -1v-356zM115 -29q15 156 22.5 322.5t9.5 382.5l7 788q166 15 327 22t318 7q356 0 518 -97.5t162 -312.5q0 -153 -91.5 -252.5t-259.5 -128.5q162 -23 242 -122t80 -277v-131q0 -89 9 -143.5
t30 -100.5l-500 31q-20 116 -30.5 229t-10.5 226q0 15 1 47t1 47l-434 10l10 -547h-411zM790 2011l168 2l125 8l-305 -368h-174z" />
    <glyph glyph-name="racute" unicode="&#x155;" horiz-adv-x="1071" 
d="M109 29l18 661l-8 305h289l18 -155q31 106 116.5 164.5t209.5 58.5q141 0 214.5 -86.5t73.5 -253.5q0 -45 -4 -94.5t-12 -106.5h-338l6 226h-192l37 -773q-162 45 -397 53q-20 0 -31 1zM549 1532l168 2l125 8l-305 -368h-174z" />
    <glyph glyph-name="Rcaron" unicode="&#x158;" horiz-adv-x="1554" 
d="M627 838l395 4l10 343q-67 6 -129.5 8.5t-122.5 2.5q-1 0 -52 -1t-101 -1v-356zM115 -29q15 156 22.5 322.5t9.5 382.5l7 788q166 15 327 22t318 7q356 0 518 -97.5t162 -312.5q0 -153 -91.5 -252.5t-259.5 -128.5q162 -23 242 -122t80 -277v-131q0 -89 9 -143.5
t30 -100.5l-500 31q-20 116 -30.5 229t-10.5 226q0 15 1 47t1 47l-434 10l10 -547h-411zM456 2021l166 -8l156 -170l166 178h153l-133 -244l-59 -124h-256q-39 88 -87 179.5t-106 188.5z" />
    <glyph glyph-name="rcaron" unicode="&#x159;" horiz-adv-x="1071" 
d="M109 29l18 661l-8 305h289l18 -155q31 106 116.5 164.5t209.5 58.5q141 0 214.5 -86.5t73.5 -253.5q0 -45 -4 -94.5t-12 -106.5h-338l6 226h-192l37 -773q-162 45 -397 53q-20 0 -31 1zM215 1542l166 -8l156 -170l166 178h153l-133 -244l-59 -124h-256q-39 88 -87 179.5
t-106 188.5z" />
    <glyph glyph-name="Sacute" unicode="&#x15a;" horiz-adv-x="1612" 
d="M90 460l481 -22q0 -42 2 -81.5t7 -77.5l458 -21q1 9 1 25q3 87 3 120q0 17 -1.5 49.5t-4.5 83.5q-85 10 -241 20q-345 23 -473 89q-118 60 -177 165.5t-59 254.5q0 254 171.5 364.5t573.5 110.5q296 0 456.5 -110.5t160.5 -313.5q0 -13 -1 -28t-3 -35l-467 16l8 155
q-67 10 -139 14.5t-152 4.5q-35 0 -75.5 -1.5t-88.5 -5.5l-2 -247h50q494 0 726 -127.5t232 -398.5q0 -254 -181 -394.5t-511 -140.5q-358 0 -557 130.5t-199 363.5q0 10 0.5 19t1.5 19zM819 2011l168 2l125 8l-305 -368h-174z" />
    <glyph glyph-name="sacute" unicode="&#x15b;" horiz-adv-x="1157" 
d="M90 287l328 -25l18 -74l359 -6v144q-431 23 -574 109t-143 292q0 183 106 263.5t357 80.5q239 0 351.5 -73.5t137.5 -243.5h-6q-199 8 -301 8l-27 86h-319v-146q415 -17 566 -103.5t151 -285.5q0 -178 -133.5 -278.5t-372.5 -100.5q-243 0 -370.5 88t-127.5 257v8z
M592 1532l168 2l125 8l-305 -368h-174z" />
    <glyph glyph-name="Tcedilla" unicode="&#x162;" horiz-adv-x="1327" 
d="M428 -18q14 271 21.5 543t7.5 548q-15 1 -42 2q-139 6 -196 6q-23 0 -103 -2q-51 -1 -83 -2l18 430l608 -28l635 10q-11 -70 -16.5 -157t-5.5 -187l-367 22l-12 -850v-188q0 -49 1.5 -95t4.5 -91q-145 18 -259.5 27.5t-211.5 11.5zM521 -662l4 127l141 13l14 94
q-13 -3 -26 -4.5t-25 -1.5q-56 0 -91.5 37.5t-35.5 99.5q0 72 40.5 114t111.5 42q77 0 118.5 -52t41.5 -149q0 -165 -63.5 -243.5t-197.5 -78.5q-5 0 -16 1t-16 1z" />
    <glyph glyph-name="tcedilla" unicode="&#x163;" horiz-adv-x="934" 
d="M25 760l12 219l174 -4l145 334l197 10l-12 -299l311 -12l-18 -275l-310 -4l-16 -528l190 -2l-8 139h205q4 -26 6 -55.5t2 -63.5q0 -138 -94.5 -211.5t-273.5 -73.5q-115 0 -199 30.5t-143 92.5q-28 29 -40 62t-12 96v43q0 105 10 216.5t35 268.5zM369 -662l4 127l141 13
l14 94q-13 -3 -26 -4.5t-25 -1.5q-56 0 -91.5 37.5t-35.5 99.5q0 72 40.5 114t111.5 42q77 0 118.5 -52t41.5 -149q0 -165 -63.5 -243.5t-197.5 -78.5q-5 0 -16 1t-16 1z" />
    <glyph glyph-name="Tcaron" unicode="&#x164;" horiz-adv-x="1327" 
d="M428 -18q14 271 21.5 543t7.5 548q-15 1 -42 2q-139 6 -196 6q-23 0 -103 -2q-51 -1 -83 -2l18 430l608 -28l635 10q-11 -70 -16.5 -157t-5.5 -187l-367 22l-12 -850v-188q0 -49 1.5 -95t4.5 -91q-145 18 -259.5 27.5t-211.5 11.5zM342 2021l166 -8l156 -170l166 178h153
l-133 -244l-59 -124h-256q-39 88 -87 179.5t-106 188.5z" />
    <glyph glyph-name="tcaron" unicode="&#x165;" horiz-adv-x="1393" 
d="M25 760l12 219l174 -4l145 334l197 10l-12 -299l311 -12l-18 -275l-310 -4l-16 -528l190 -2l-8 139h205q4 -26 6 -55.5t2 -63.5q0 -138 -94.5 -211.5t-273.5 -73.5q-115 0 -199 30.5t-143 92.5q-28 29 -40 62t-12 96v43q0 105 10 216.5t35 268.5zM957 831l6 173l192 14
l22 125q-29 -5 -43.5 -6.5t-25.5 -1.5q-78 0 -126 53t-48 139q0 101 58 157t163 56q115 0 176.5 -70t61.5 -202q0 -128 -44 -239.5t-104 -145.5q-41 -24 -103.5 -36t-184.5 -16z" />
    <glyph glyph-name="Uring" unicode="&#x16e;" horiz-adv-x="1583" 
d="M139 1507l465 -28l2 -449l37 -711l408 -6l20 684l-35 473l389 15l9 -412q3 -151 4.5 -255.5t1.5 -162.5q0 -229 -30 -344.5t-101 -191.5q-87 -95 -212 -143t-284 -48q-222 0 -372 75t-220 220q-38 80 -58 252t-22 437zM893 2007l-192 -8l-8 -201l196 8zM523 1892
q0 125 78.5 204t203.5 79q107 0 183.5 -79t76.5 -192t-82 -192.5t-200 -79.5q-115 0 -187.5 73t-72.5 187z" />
    <glyph glyph-name="uring" unicode="&#x16f;" horiz-adv-x="1337" 
d="M102 1006l213 -11h203l-24 -743h327q5 104 7.5 206t2.5 206q0 43 -3 133.5t-9 226.5l400 -10l-11 -453l11 -536l-312 8l-12 73q-84 -80 -182.5 -121.5t-206.5 -41.5q-191 0 -292 98t-101 285q0 69 5 168t5 129v28zM770 1528l-192 -8l-8 -201l196 8zM400 1413
q0 125 78.5 204t203.5 79q107 0 183.5 -79t76.5 -192t-82 -192.5t-200 -79.5q-115 0 -187.5 73t-72.5 187z" />
    <glyph glyph-name="Udblacute" unicode="&#x170;" horiz-adv-x="1583" 
d="M139 1507l465 -28l2 -449l37 -711l408 -6l20 684l-35 473l389 15l9 -412q3 -151 4.5 -255.5t1.5 -162.5q0 -229 -30 -344.5t-101 -191.5q-87 -95 -212 -143t-284 -48q-222 0 -372 75t-220 220q-38 80 -58 252t-22 437zM998 2009l262 12l-86 -121l-205 -247h-127l92 204z
M672 2009l258 12l-114 -147l-132 -221h-122z" />
    <glyph glyph-name="udblacute" unicode="&#x171;" horiz-adv-x="1337" 
d="M102 1006l213 -11h203l-24 -743h327q5 104 7.5 206t2.5 206q0 43 -3 133.5t-9 226.5l400 -10l-11 -453l11 -536l-312 8l-12 73q-84 -80 -182.5 -121.5t-206.5 -41.5q-191 0 -292 98t-101 285q0 69 5 168t5 129v28zM875 1530l262 12l-86 -121l-205 -247h-127l92 204z
M549 1530l258 12l-114 -147l-132 -221h-122z" />
    <glyph glyph-name="Zacute" unicode="&#x179;" horiz-adv-x="1489" 
d="M48 0q4 67 6.5 121.5t2.5 99.5q0 1 -1 33t-1 63l487 477.5l419 395.5l-871 -57l16 337h36q291 -8 423 -8q193 0 404 5t436 13l-4 -399l-132 -141q-466 -497 -642 -610h794l13 -330l-748 18zM757 2011l168 2l125 8l-305 -368h-174z" />
    <glyph glyph-name="zacute" unicode="&#x17a;" horiz-adv-x="1200" 
d="M47 0l4 195l620 589q-142 -1 -288 -7t-291 -17l23 278q58 -3 126 -4.5t208 -1.5q203 0 366 1.5t287 4.5l-4 -297l-477 -469l526 9q-7 -37 -9.5 -75.5t-2.5 -103.5q0 -39 0.5 -64.5t0.5 -47.5q-143 7 -295.5 10.5t-320.5 3.5q-165 0 -269.5 -1t-203.5 -3zM612 1532l168 2
l125 8l-305 -368h-174z" />
    <glyph glyph-name="Zdot" unicode="&#x17b;" horiz-adv-x="1489" 
d="M48 0q4 67 6.5 121.5t2.5 99.5q0 1 -1 33t-1 63l487 477.5l419 395.5l-871 -57l16 337h36q291 -8 423 -8q193 0 404 5t436 13l-4 -399l-132 -141q-466 -497 -642 -610h794l13 -330l-748 18zM589 1837q0 68 48 111.5t122 43.5q58 0 101 -45t43 -108q0 -76 -41 -117
t-117 -41q-68 0 -112 44t-44 112z" />
    <glyph glyph-name="zdot" unicode="&#x17c;" horiz-adv-x="1200" 
d="M47 0l4 195l620 589q-142 -1 -288 -7t-291 -17l23 278q58 -3 126 -4.5t208 -1.5q203 0 366 1.5t287 4.5l-4 -297l-477 -469l526 9q-7 -37 -9.5 -75.5t-2.5 -103.5q0 -39 0.5 -64.5t0.5 -47.5q-143 7 -295.5 10.5t-320.5 3.5q-165 0 -269.5 -1t-203.5 -3zM444 1358
q0 68 48 111.5t122 43.5q58 0 101 -45t43 -108q0 -76 -41 -117t-117 -41q-68 0 -112 44t-44 112z" />
    <glyph glyph-name="Gamma" unicode="&#x393;" horiz-adv-x="1272" 
d="M115 -57l32 858l-36 635l733 43l413 -4l-4 -291l-372 -4l-287 -27l-12 -1188z" />
    <glyph glyph-name="Theta" unicode="&#x398;" horiz-adv-x="1651" 
d="M1013 633q-17 1 -37 1.5t-58 0.5t-83 -1.5t-95 -4.5l-95 4v207l103 -4l266 6zM582 315q115 -13 237.5 -19.5t253.5 -6.5l31 844l-549 22v-459zM877 -72q-372 0 -584.5 221t-212.5 607q0 185 27.5 310.5t85.5 197.5q109 139 269 207.5t378 68.5q347 0 538 -197.5
t191 -558.5q0 -200 -58.5 -362t-175.5 -289q-103 -110 -210 -157.5t-248 -47.5z" />
    <glyph glyph-name="Phi" unicode="&#x3a6;" horiz-adv-x="1651" 
d="M625 1290l-11 285l416 -12l-8 -271q274 -43 410.5 -172t136.5 -346q0 -227 -144 -385.5t-393 -202.5l4 -297l-413 -10l4 318q-272 50 -409.5 195.5t-137.5 381.5q0 227 130.5 351t414.5 165zM1004 510l137 -37l28 504l-161 57zM477 444l158 -18v610l-180 -2v-321z" />
    <glyph glyph-name="alpha" unicode="&#x3b1;" horiz-adv-x="1274" 
d="M805 915l-2 84l342 -32l-8 -464q7 -162 25 -297.5t46 -244.5l-389 -4l-16 82q-69 -48 -136.5 -72t-136.5 -24q-195 0 -328.5 160.5t-133.5 400.5q0 98 23 179t71 148q70 98 172 153.5t209 55.5q80 0 145 -31t117 -94zM762 770l-275 -27l-55 -471q74 -24 160.5 -36.5
t185.5 -12.5h25z" />
    <glyph glyph-name="delta" unicode="&#x3b4;" horiz-adv-x="1294" 
d="M776 664l-309 30l-4 -452l366 -4zM612 975l-161 233l-21 287l344 -2l340 14l-8 -176l4 -96h-332l267 -381q37 -51 43 -60q2 -4 7 -12q111 -183 111 -342q0 -222 -156 -364t-401 -142t-399 142t-154 370q0 247 136.5 386.5t379.5 142.5z" />
    <glyph glyph-name="epsilon" unicode="&#x3b5;" horiz-adv-x="1196" 
d="M1055 289q0 -7 1 -17.5t1 -15.5q0 -155 -113 -230t-346 -75q-235 0 -366.5 85.5t-131.5 237.5q0 112 69.5 182.5t199.5 88.5q-115 33 -167 85t-52 132q0 142 114.5 225.5t313.5 83.5q205 0 329.5 -83t139.5 -228l-306 -19l-24 93l-197 -19l41 -176h141l9 -225l-205 -15
l-14 -206l241 -3l15 105z" />
    <glyph glyph-name="sigma" unicode="&#x3c3;" horiz-adv-x="1397" 
d="M766 788l-289 9l-84 -496l414 -59zM891 1014l416 4l-2 -299l-150 2q35 -63 52.5 -126.5t17.5 -131.5q0 -232 -162 -380.5t-414 -148.5q-258 0 -417.5 163t-159.5 427q0 248 151 393.5t408 145.5q72 0 136.5 -12.5t123.5 -36.5z" />
    <glyph glyph-name="tau" unicode="&#x3c4;" horiz-adv-x="1305" 
d="M420 -10l33 396q3 41 4.5 84t1.5 87q0 53 -0.5 80t-2.5 51l-329 -6l-8 276l528 11l527 14l-7 -270l-344 -15l8 -733z" />
    <glyph glyph-name="phi" unicode="&#x3c6;" horiz-adv-x="1401" 
d="M444 850q-78 -69 -115.5 -150t-37.5 -180q0 -61 15 -120t46 -117l140 -13v277q0 144 33 234t104 141q61 45 134.5 68.5t151.5 23.5q189 0 312 -145t123 -373q0 -281 -131 -434.5t-369 -153.5q-7 0 -22.5 1t-22.5 1l8 -387l-344 12q8 112 12.5 222.5t5.5 217.5
q-220 22 -344.5 166.5t-124.5 378.5q0 146 59 268t183 232zM1020 780l-244 -12l23 -563l202 -31z" />
    <glyph glyph-name="underscoredbl" unicode="&#x2017;" horiz-adv-x="1024" 
d="M0 -311h1024v-172h-1024v172zM0 -35h1024v-174h-1024v174z" />
    <glyph glyph-name="exclamdbl" unicode="&#x203c;" horiz-adv-x="1278" 
d="M324 -72q-111 0 -169.5 57.5t-58.5 166.5q0 81 61.5 130.5t155.5 49.5q95 0 150 -52t55 -141q0 -104 -49 -157.5t-145 -53.5zM156 412q9 112 13.5 217t4.5 205q0 170 -8.5 347t-26.5 359l404 -35l-23 -418q-34 -214 -54.5 -369.5t-27.5 -240.5zM963 -72
q-111 0 -169.5 57.5t-58.5 166.5q0 81 61.5 130.5t155.5 49.5q95 0 150 -52t55 -141q0 -104 -49 -157.5t-145 -53.5zM795 412q9 112 13.5 217t4.5 205q0 170 -8.5 347t-26.5 359l404 -35l-23 -418q-34 -214 -54.5 -369.5t-27.5 -240.5z" />
    <glyph glyph-name="nsuperior" unicode="&#x207f;" horiz-adv-x="975" 
d="M373 1075q-5 -56 -10 -194l-3 -72l-278 -8q7 128 10.5 240t3.5 188v53q0 57 -2.5 107.5t-7.5 98.5l223 -11l17 -76q85 64 171.5 96.5t170.5 32.5q114 0 169.5 -57.5t55.5 -178.5q0 -15 -0.5 -23t-1.5 -15l-8 -150q-2 -50 -3 -98.5t-1 -112.5q0 -36 3 -113q1 -8 1 -12
l-64 3q-151 7 -231 7l12 283l-22 235l-211 -12z" />
    <glyph glyph-name="peseta" unicode="&#x20a7;" horiz-adv-x="1569" 
d="M356 1198v-418h60q138 0 192 48.5t54 164.5q0 111 -53 158t-183 47h-70zM1087 1313h277v-271h127v-176h-127v-555q0 -66 24.5 -89t90.5 -23h30v-199q-16 0 -47 -1q-89 -3 -121 -3q-142 0 -198 49.5t-56 222.5v598h-108v176h108v271zM78 1391h414q218 0 317.5 -94
t99.5 -298q0 -203 -111.5 -307t-330.5 -104h-111v-588h-278v1391z" />
    <glyph glyph-name="arrowleft" unicode="&#x2190;" 
d="M813 1098l84 -203l-418 -164h1440v-221h-1442l414 -162l-80 -201l-682 363v221z" />
    <glyph glyph-name="arrowup" unicode="&#x2191;" horiz-adv-x="1024" 
d="M395 1438h221l363 -678l-201 -82l-162 414v-1442h-221v1442l-166 -420l-200 84z" />
    <glyph glyph-name="arrowright" unicode="&#x2192;" 
d="M1237 1098l682 -367v-221l-680 -363l-82 201l416 162h-1444v221h1444l-420 164z" />
    <glyph glyph-name="arrowdown" unicode="&#x2193;" horiz-adv-x="1024" 
d="M395 1434h221v-1442l162 416l201 -82l-363 -680h-221l-366 682l200 84l166 -420v1442z" />
    <glyph glyph-name="arrowboth" unicode="&#x2194;" 
d="M813 1098l84 -203l-418 -164h1094l-420 164l84 203l682 -367v-221l-680 -363l-82 201l416 162h-1096l414 -162l-80 -201l-682 363v221z" />
    <glyph glyph-name="arrowupdn" unicode="&#x2195;" horiz-adv-x="1024" 
d="M389 1483h246l289 -647l-170 -82l-148 385v-1198l148 385l170 -82l-289 -645h-246l-287 645l168 82l148 -385v1198l-148 -385l-168 82z" />
    <glyph glyph-name="arrowupdnbse" unicode="&#x21a8;" horiz-adv-x="1024" 
d="M72 -279h882v-182h-882v182zM389 1542h246l289 -567l-170 -80l-148 340v-1120l148 340l170 -80l-289 -565h-246l-289 565l168 80l150 -340v1120l-148 -340l-170 80z" />
    <glyph glyph-name="orthogonal" unicode="&#x221f;" horiz-adv-x="1706" 
d="M227 1300h228v-1077h1024v-223h-1252v1300z" />
    <glyph glyph-name="intersection" unicode="&#x2229;" horiz-adv-x="1706" 
d="M1489 0h-242v670q0 221 -101.5 338.5t-291.5 117.5t-292.5 -118t-102.5 -338v-670h-242v680q0 141 23.5 242t72.5 176q82 120 224 187t317 67q156 0 286 -53.5t216 -151.5q71 -82 102 -188t31 -279v-680z" />
    <glyph glyph-name="equivalence" unicode="&#x2261;" horiz-adv-x="1706" 
d="M254 328h1198v-215h-1198v215zM254 717h1198v-213h-1198v213zM254 1110h1198v-215h-1198v215z" />
    <glyph glyph-name="house" unicode="&#x2302;" horiz-adv-x="1778" 
d="M160 98h1460v674l-731 625l-729 -625v-674zM59 0v819l830 703l829 -703v-819h-1659z" />
    <glyph glyph-name="revlogicalnot" unicode="&#x2310;" horiz-adv-x="1706" 
d="M254 866h1198v-227h-967v-274h-231v501z" />
    <glyph glyph-name="integraltp" unicode="&#x2320;" horiz-adv-x="1339" 
d="M805 -483h-275v368q0 915 122 1293t405 378q102 0 163.5 -51.5t61.5 -136.5q0 -68 -42.5 -109.5t-113.5 -41.5q-65 0 -98 35.5t-33 105.5v28q0 25 -8.5 38.5t-23.5 13.5q-86 0 -122 -351.5t-36 -1227.5v-342z" />
    <glyph glyph-name="integralbt" unicode="&#x2321;" horiz-adv-x="1339" 
d="M530 1565h275v-369q0 -914 -122.5 -1293.5t-406.5 -379.5q-101 0 -162 52.5t-61 137.5q0 68 43 110t113 42q63 0 97 -36.5t34 -104.5v-31q0 -23 8 -36t21 -13q87 0 124 348.5t37 1230.5v342z" />
    <glyph glyph-name="U2500" unicode="&#x2500;" 
d="M-39 598h2126v-117h-2126v117z" />
    <glyph glyph-name="U2502" unicode="&#x2502;" 
d="M965 1599h118v-2123h-118v2123z" />
    <glyph glyph-name="U250c" unicode="&#x250c;" 
d="M965 598h1122v-117h-1004v-1005h-118v1122z" />
    <glyph glyph-name="U2510" unicode="&#x2510;" 
d="M965 481h-1002v117h1120v-1122h-118v1005z" />
    <glyph glyph-name="U2514" unicode="&#x2514;" 
d="M965 1599h118v-1001h1004v-117h-1122v1118z" />
    <glyph glyph-name="U2518" unicode="&#x2518;" 
d="M-39 598h1004v1001h118v-1118h-1122v117z" />
    <glyph glyph-name="U251c" unicode="&#x251c;" 
d="M965 1599h118v-1001h1004v-117h-1004v-1005h-118v2123z" />
    <glyph glyph-name="U2524" unicode="&#x2524;" 
d="M965 481h-1004v117h1004v1001h118v-2123h-118v1005z" />
    <glyph glyph-name="U252c" unicode="&#x252c;" 
d="M965 481h-1004v117h2126v-117h-1004v-1005h-118v1005z" />
    <glyph glyph-name="U2534" unicode="&#x2534;" 
d="M-39 598h1004v1001h118v-1001h1004v-117h-2126v117z" />
    <glyph glyph-name="U253c" unicode="&#x253c;" 
d="M965 481h-1004v117h1004v1001h118v-1001h1004v-117h-1004v-1005h-118v1005z" />
    <glyph glyph-name="U2550" unicode="&#x2550;" 
d="M-39 422h2126v-117h-2126v117zM-39 774h2126v-115h-2126v115z" />
    <glyph glyph-name="U2551" unicode="&#x2551;" 
d="M1262 1599v-2123h-119v2123h119zM905 1599v-2123h-119v2123h119z" />
    <glyph glyph-name="U2552" unicode="&#x2552;" 
d="M965 774h1122v-115h-1004v-237h1004v-117h-1004v-829h-118v1298z" />
    <glyph glyph-name="U2553" unicode="&#x2553;" 
d="M2087 598v-117h-825v-1005h-119v1005h-238v-1005h-119v1122h1301z" />
    <glyph glyph-name="U2554" unicode="&#x2554;" 
d="M905 659v-1183h-119v1298h1301v-115h-1182zM1143 422h944v-117h-825v-829h-119v946z" />
    <glyph glyph-name="U2555" unicode="&#x2555;" 
d="M965 305h-1004v117h1004v237h-1004v115h1122v-1290h-118v821z" />
    <glyph glyph-name="U2556" unicode="&#x2556;" 
d="M1262 598v-1122h-119v1005h-238v-1005h-119v1005h-825v117h1301z" />
    <glyph glyph-name="U2557" unicode="&#x2557;" 
d="M-39 774h1301v-1298h-119v1183h-1182v115zM786 -524v829h-825v117h944v-946h-119z" />
    <glyph glyph-name="U2558" unicode="&#x2558;" 
d="M965 1599h118v-825h1004v-115h-1004v-237h1004v-117h-1122v1294z" />
    <glyph glyph-name="U2559" unicode="&#x2559;" 
d="M905 1599v-1001h238v1001h119v-1001h825v-117h-1301v1118h119z" />
    <glyph glyph-name="U255a" unicode="&#x255a;" 
d="M1262 1599v-825h825v-115h-944v940h119zM2087 305h-1301v1294h119v-1177h1182v-117z" />
    <glyph glyph-name="U255b" unicode="&#x255b;" 
d="M-39 422h1004v237h-1004v115h1004v825h118v-1294h-1122v117z" />
    <glyph glyph-name="U255c" unicode="&#x255c;" 
d="M786 598v1001h119v-1001h238v1001h119v-1118h-1301v117h825z" />
    <glyph glyph-name="U255d" unicode="&#x255d;" 
d="M1143 422v1177h119v-1294h-1301v117h1182zM905 659h-944v115h825v825h119v-940z" />
    <glyph glyph-name="U255e" unicode="&#x255e;" 
d="M965 1599h118v-825h1004v-115h-1004v-237h1004v-117h-1004v-829h-118v2123z" />
    <glyph glyph-name="U255f" unicode="&#x255f;" 
d="M1262 1599v-1001h825v-117h-825v-1005h-119v2123h119zM786 -524v2123h119v-2123h-119z" />
    <glyph glyph-name="U2560" unicode="&#x2560;" 
d="M1262 1599v-825h825v-115h-944v940h119zM1143 422h944v-117h-825v-829h-119v946zM786 -524v2123h119v-2123h-119z" />
    <glyph glyph-name="U2561" unicode="&#x2561;" 
d="M965 305h-1004v117h1004v237h-1004v115h1004v825h118v-2123h-118v829z" />
    <glyph glyph-name="U2562" unicode="&#x2562;" 
d="M1262 1599v-2123h-119v2123h119zM786 598v1001h119v-2123h-119v1005h-825v117h825z" />
    <glyph glyph-name="U2563" unicode="&#x2563;" 
d="M905 659h-944v115h825v825h119v-940zM786 -524v829h-825v117h944v-946h-119zM1262 1599v-2123h-119v2123h119z" />
    <glyph glyph-name="U2564" unicode="&#x2564;" 
d="M-39 774h2126v-115h-2126v115zM965 305h-1004v117h2126v-117h-1004v-829h-118v829z" />
    <glyph glyph-name="U2565" unicode="&#x2565;" 
d="M2087 598v-117h-825v-1005h-119v1005h-238v-1005h-119v1005h-825v117h2126z" />
    <glyph glyph-name="U2566" unicode="&#x2566;" 
d="M1143 422h944v-117h-825v-829h-119v946zM786 -524v829h-825v117h944v-946h-119zM2087 659h-2126v115h2126v-115z" />
    <glyph glyph-name="U2567" unicode="&#x2567;" 
d="M-39 774h1004v825h118v-825h1004v-115h-2126v115zM2087 305h-2126v117h2126v-117z" />
    <glyph glyph-name="U2568" unicode="&#x2568;" 
d="M786 598v1001h119v-1001h238v1001h119v-1001h825v-117h-2126v117h825z" />
    <glyph glyph-name="U2569" unicode="&#x2569;" 
d="M1262 1599v-825h825v-115h-944v940h119zM905 659h-944v115h825v825h119v-940zM-39 305v117h2126v-117h-2126z" />
    <glyph glyph-name="U256a" unicode="&#x256a;" 
d="M965 305h-1004v117h1004v237h-1004v115h1004v825h118v-825h1004v-115h-1004v-237h1004v-117h-1004v-829h-118v829z" />
    <glyph glyph-name="U256b" unicode="&#x256b;" 
d="M786 598v1004h119v-1004h238v1004h119v-1004h825v-117h-825v-1005h-119v1005h-238v-1005h-119v1005h-825v117h825z" />
    <glyph glyph-name="U256c" unicode="&#x256c;" 
d="M1143 422h944v-117h-825v-829h-119v946zM1262 1599v-825h825v-115h-944v940h119zM905 659h-944v115h825v825h119v-940zM786 -524v829h-825v117h944v-946h-119z" />
    <glyph glyph-name="upblock" unicode="&#x2580;" 
d="M2087 1599v-1058h-2126v1058h2126z" />
    <glyph glyph-name="dnblock" unicode="&#x2584;" 
d="M2087 541v-1065h-2126v1065h2126z" />
    <glyph glyph-name="block" unicode="&#x2588;" 
d="M2087 -524h-2126v2123h2126v-2123z" />
    <glyph glyph-name="lfblock" unicode="&#x258c;" 
d="M1024 1599v-2123h-1063v2123h1063z" />
    <glyph glyph-name="rtblock" unicode="&#x2590;" 
d="M2087 1599v-2123h-1063v2123h1063z" />
    <glyph glyph-name="ltshade" unicode="&#x2591;" 
d="M0 -143v342h340v-342h-340zM682 -143v342h342v-342h-342zM1366 -143v342h340v-342h-340zM1366 541v340h340v-340h-340zM1366 1223v342h340v-342h-340zM682 541v340h342v-340h-342zM0 541v340h340v-340h-340zM682 1223v342h342v-342h-342zM0 1223v342h340v-342h-340z" />
    <glyph glyph-name="shade" unicode="&#x2592;" 
d="M342 -483v340h340v-340h-340zM1024 -483v340h340v-340h-340zM1706 -483v340h342v-340h-342zM1706 199v342h342v-342h-342zM1706 881v342h342v-342h-342zM1366 -143v342h340v-342h-340zM682 -143v342h342v-342h-342zM0 -143v342h340v-342h-340zM1366 541v340h340v-340
h-340zM682 541v340h342v-340h-342zM0 541v340h340v-340h-340zM1366 1223v342h340v-342h-340zM682 1223v342h342v-342h-342zM0 1223v342h340v-342h-340zM1024 199v342h340v-342h-340zM342 199v342h340v-342h-340zM1024 881v342h340v-342h-340zM342 881v342h340v-342h-340z
" />
    <glyph glyph-name="dkshade" unicode="&#x2593;" 
d="M1024 541v-342h342v342h-342zM1024 1223v-342h342v342h-342zM342 1223v-342h340v342h-340zM342 541v-342h340v342h-340zM1366 -143h-342v-381h-342v381h-340v-381h-342v2089h2087v-342h-381v-342h381v-340h-381v-342h381v-342h-381v-381h-340v381z" />
    <glyph glyph-name="filledbox" unicode="&#x25a0;" horiz-adv-x="1536" 
d="M51 1321h1434v-1432h-1434v1432z" />
    <glyph glyph-name="filledrect" unicode="&#x25ac;" horiz-adv-x="1939" 
d="M358 815h1223v-407h-1223v407z" />
    <glyph glyph-name="triagup" unicode="&#x25b2;" horiz-adv-x="1233" 
d="M168 279l448 854l449 -854h-897z" />
    <glyph glyph-name="triagrt" unicode="&#x25ba;" horiz-adv-x="1233" 
d="M190 1133l852 -449l-852 -448v897z" />
    <glyph glyph-name="triagdn" unicode="&#x25bc;" horiz-adv-x="1233" 
d="M168 1087h897l-449 -851z" />
    <glyph glyph-name="triaglf" unicode="&#x25c4;" horiz-adv-x="1233" 
d="M1042 1133v-897l-852 448z" />
    <glyph glyph-name="circle" unicode="&#x25cb;" horiz-adv-x="1606" 
d="M805 1245q-128 0 -247 -50t-212 -142q-90 -90 -139 -209t-49 -246q0 -268 188 -456.5t457 -188.5q267 0 456 189.5t189 455.5q0 268 -188.5 457.5t-454.5 189.5zM72 602q0 145 55 277t158 235q104 105 239 161t281 56q122 0 242.5 -43t218.5 -123q125 -102 196.5 -253
t71.5 -314q0 -145 -56 -280t-159 -238t-236 -158t-280 -55q-165 0 -312 69t-253 197q-82 98 -124 217.5t-42 251.5z" />
    <glyph glyph-name="invbullet" unicode="&#x25d8;" 
d="M0 -483v2048h2048v-2048h-2048zM1026 1051q-212 0 -362 -151t-150 -361q0 -212 148.5 -360t361.5 -148q211 0 360.5 149t149.5 359q0 211 -149.5 361.5t-358.5 150.5z" />
    <glyph glyph-name="invcircle" unicode="&#x25d9;" 
d="M434 541q0 245 173.5 418.5t418.5 173.5q244 0 417 -174t173 -418q0 -243 -173 -417.5t-419 -174.5t-418 172.5t-172 419.5zM1026 1272q-147 0 -282 -56t-238 -159t-158 -236t-55 -278q0 -132 42 -251.5t124 -217.5q106 -128 253 -197.5t312 -69.5q147 0 280 55t236 158
t159 238.5t56 280.5t-57 282.5t-158 237.5t-236.5 156.5t-277.5 56.5zM0 -483v2048h2048v-2048h-2048z" />
    <glyph glyph-name="invsmileface" unicode="&#x263a;" horiz-adv-x="1796" 
d="M897 322q-114 0 -203 52t-157 158q-35 57 -59 121t-29 64q-12 0 -32 -31t-36 -31q-11 0 -17 7t-6 20q0 34 63 111t95 77q12 0 17.5 -3.5t5.5 -10.5q0 -9 -6.5 -35t-6.5 -43q0 -42 20.5 -97.5t55.5 -107.5q58 -84 129.5 -123.5t165.5 -39.5q89 0 156 33t123 104
q42 54 68 119.5t26 111.5q0 17 -7.5 43t-7.5 35q1 7 7 10.5t18 3.5q33 0 95.5 -77.5t62.5 -108.5q0 -15 -5.5 -22t-17.5 -7q-16 0 -36 31t-31 31q-6 0 -30 -64t-61 -121q-68 -106 -157 -158t-203 -52zM981 1022q0 35 12 51.5t37 16.5t36 -16t11 -52q0 -37 -11 -52.5
t-36 -15.5t-37 16.5t-12 51.5zM717 1022q0 35 12 51.5t37 16.5t37 -16.5t12 -51.5q0 -36 -11.5 -52t-37.5 -16q-25 0 -37 16.5t-12 51.5zM899 1343q-130 0 -251 -50.5t-216 -145.5q-93 -93 -142.5 -213.5t-49.5 -251.5q0 -274 191 -465.5t466 -191.5q274 0 466.5 192.5
t192.5 464.5q0 274 -192.5 467.5t-464.5 193.5zM166 686q0 144 56 277.5t159 236.5q104 104 238.5 159.5t281.5 55.5q124 0 244 -42.5t217 -121.5q125 -102 196.5 -253.5t71.5 -315.5q0 -144 -56.5 -279t-160.5 -239t-236 -158.5t-278 -54.5q-165 0 -312 69t-253 197
q-83 100 -125.5 219.5t-42.5 249.5z" />
    <glyph glyph-name="smileface" unicode="&#x263b;" horiz-adv-x="1796" 
d="M436 688q8 0 27 -52.5t43 -94.5q69 -124 166 -185t225 -61q118 0 211 52.5t162 158.5q36 55 59.5 118.5t30.5 63.5q11 0 31.5 -30.5t38.5 -30.5q12 0 22 9.5t10 20.5q0 36 -73 124.5t-111 88.5q-13 0 -17.5 -5t-5.5 -19q0 -12 7.5 -36t7.5 -36q0 -32 -21.5 -85.5
t-58.5 -108.5q-56 -82 -127 -121t-166 -39t-166 39t-127 121q-36 52 -57 106t-21 88q0 12 6.5 36t6.5 36q0 14 -4.5 19t-16.5 5q-38 0 -111 -88.5t-73 -124.5q0 -11 10 -20.5t23 -9.5q17 0 37.5 30.5t31.5 30.5zM1044 1110q-33 0 -48 -20.5t-15 -67.5q0 -46 15.5 -67
t47.5 -21q33 0 48.5 21t15.5 67q0 47 -15 67.5t-49 20.5zM752 1110q-35 0 -49.5 -20t-14.5 -68q0 -46 15.5 -67t48.5 -21q32 0 47.5 21.5t15.5 66.5q0 46 -15 67t-48 21zM166 686q0 144 56 277.5t159 236.5q104 104 238.5 159.5t281.5 55.5q124 0 244 -42.5t217 -121.5
q126 -101 195 -249t69 -316q0 -170 -67.5 -316t-196.5 -253q-98 -82 -216 -124t-247 -42q-306 0 -519.5 214t-213.5 521z" />
    <glyph glyph-name="sun" unicode="&#x263c;" horiz-adv-x="1796" 
d="M934 1421v-239q80 -8 149.5 -38t137.5 -87l170 170l51 -51l-170 -170q55 -73 83 -143.5t30 -139.5h239v-74h-239q-2 -69 -30.5 -141t-82.5 -143l170 -170l-51 -52l-170 170q-65 -56 -133.5 -85.5t-153.5 -37.5v-241h-74v241q-84 8 -151.5 37.5t-133.5 85.5l-169 -170
l-52 52l170 170q-53 68 -82 140t-33 144h-239v74h239q4 70 32.5 140.5t82.5 142.5l-170 170l52 51l169 -170q67 57 135.5 87t149.5 38v239h74zM901 1114q-177 0 -301.5 -123.5t-124.5 -300.5t124.5 -301.5t301.5 -124.5q176 0 299 125t123 301q0 175 -123.5 299.5
t-298.5 124.5z" />
    <glyph glyph-name="female" unicode="&#x2640;" horiz-adv-x="1683" 
d="M780 -90v256h-297v129h297v295q-178 23 -291.5 152.5t-113.5 308.5q0 194 137.5 331.5t331.5 137.5q191 0 328 -137.5t137 -331.5q0 -173 -117 -309t-283 -152v-295h297v-129h-297v-256h-129zM844 1399q-143 0 -245.5 -102t-102.5 -246q0 -145 100.5 -245.5t245.5 -100.5
q144 0 245 102t101 244q0 143 -101 245.5t-243 102.5z" />
    <glyph glyph-name="male" unicode="&#x2642;" horiz-adv-x="1683" 
d="M850 819l186 469q-69 -23 -154.5 -38t-179.5 -19l-18 78q109 19 228.5 67t246.5 123l47 -14q22 -115 77 -234.5t142 -240.5l-65 -43q-79 74 -133 144.5t-76 125.5l-182 -465q113 -64 175 -169t62 -234q0 -194 -133 -329.5t-332 -135.5q-197 0 -333 134.5t-136 330.5
q0 193 136 330t327 137q27 0 55 -4t60 -13zM739 715q-143 0 -244.5 -101t-101.5 -245q0 -145 101 -247t245 -102q145 0 245.5 103t100.5 246q0 142 -101.5 244t-244.5 102z" />
    <glyph glyph-name="spade" unicode="&#x2660;" horiz-adv-x="2019" 
d="M864 -96q54 59 79.5 143.5t25.5 202.5q0 70 -12.5 99.5t-41.5 29.5q-42 0 -71 -85q-15 -46 -27 -71q-36 -78 -100.5 -121t-145.5 -43q-115 0 -195.5 85.5t-80.5 211.5q0 96 46 196.5t171 260.5l102 126q260 319 396 538q137 -220 389 -529q76 -93 108 -135
q125 -160 171 -260.5t46 -196.5q0 -126 -80 -211.5t-196 -85.5q-79 0 -144 43.5t-102 120.5q-12 25 -27 71q-28 85 -71 85q-29 0 -41 -29.5t-12 -99.5q0 -116 26 -201t80 -145h-293z" />
    <glyph glyph-name="club" unicode="&#x2663;" horiz-adv-x="2019" 
d="M840 -66q55 65 80.5 145t25.5 191q0 65 -15 103.5t-40 38.5q-29 0 -80 -68l-35 -45q-71 -85 -135.5 -120.5t-144.5 -35.5q-133 0 -215 100.5t-82 262.5q0 151 85.5 248.5t213.5 97.5q95 0 203 -67.5t128 -67.5q19 0 31 10t12 27q0 28 -93 108l-34 29q-48 42 -75 103
t-27 128q0 144 98 227t269 83q172 0 269 -85t97 -235q0 -60 -27.5 -120t-74.5 -101q-12 -10 -33 -29q-94 -80 -94 -108q0 -17 12 -27t31 -10q20 0 128 67.5t204 67.5q129 0 214 -99t85 -255q0 -157 -82.5 -256t-214.5 -99q-80 0 -145 35.5t-136 120.5q-15 18 -39 50
q-48 63 -76 63q-23 0 -39 -36.5t-16 -92.5q0 -125 24.5 -204t82.5 -145h-340z" />
    <glyph glyph-name="heart" unicode="&#x2665;" horiz-adv-x="2019" 
d="M1010 -78q-164 258 -407 548l-50 60q-150 186 -204 304t-54 237q0 165 94 269t238 104q103 0 182.5 -58.5t124.5 -168.5q6 -15 16 -43q26 -76 60 -76q35 0 60 76q9 27 15 43q46 109 125.5 168t182.5 59q144 0 237.5 -104t93.5 -269q0 -119 -54 -237t-204 -304l-48 -58
q-235 -281 -408 -550z" />
    <glyph glyph-name="diamond" unicode="&#x2666;" horiz-adv-x="2019" 
d="M1001 -92l-614 782l614 783l631 -783z" />
    <glyph glyph-name="musicalnote" unicode="&#x266a;" horiz-adv-x="1090" 
d="M553 1032v-686q0 -108 -13.5 -162.5t-43.5 -95.5q-46 -58 -124 -95.5t-155 -37.5q-81 0 -130.5 44t-49.5 116q0 103 111 195.5t229 92.5q36 0 58 -5t42 -17v1083h76v-123q0 -113 132 -258q7 -7 11 -12q138 -152 187 -260t49 -238q0 -49 -9.5 -114t-31.5 -170l-72 18
q17 72 25 131.5t8 112.5q0 163 -60 264.5t-239 216.5z" />
    <glyph glyph-name="musicalnotedbl" unicode="&#x266b;" horiz-adv-x="1470" 
d="M975 754q0 86 -67 168t-236 200v-112q0 -92 121.5 -196t181.5 -179v119zM672 1464v-69q0 -132 179 -307q33 -32 50 -50q101 -100 125.5 -157t24.5 -146v-774q0 -147 -14.5 -207.5t-49.5 -101.5q-45 -54 -122 -89.5t-150 -35.5q-81 0 -130.5 44.5t-49.5 117.5
q0 106 111.5 196t248.5 90q23 0 42 -5.5t38 -18.5v495q0 80 -66 157t-237 194v-435q0 -123 -13 -177.5t-45 -96.5q-43 -58 -122 -95.5t-156 -37.5q-81 0 -129.5 43.5t-48.5 116.5q0 104 111 196t237 92q27 0 47.5 -5.5t42.5 -18.5v1085h76z" />
    <glyph glyph-name="IJ" unicode="&#x132;" horiz-adv-x="1872" 
d="M1284 1520l461 2l-19 -813q0 -11 -1 -24l-1 -13q0 -1 1 -10t1 -19q0 -4 1 -22q2 -89 2 -175q0 -257 -142 -391.5t-411 -134.5q-239 0 -354 119.5t-115 368.5q0 31 0.5 47.5t1.5 29.5l393 11v-256h188l8 612zM147 907l-14 615l459 -4l-14 -1086l14 -467l-459 10z" />
    <glyph glyph-name="ij" unicode="&#x133;" horiz-adv-x="1266" 
d="M100 -10l27 508l-8 497l381 -10l-6 -461l8 -540zM528 1331q0 -103 -55 -165t-145 -62q-93 0 -159.5 61.5t-66.5 145.5q0 86 69 151.5t161 65.5q74 0 135 -60t61 -137zM971 1092q-95 0 -159 59.5t-64 148.5q0 93 62.5 152t150.5 59q98 0 160.5 -60.5t62.5 -158.5
q0 -83 -62 -141.5t-151 -58.5zM604 -195h162v648l-12 532h88q97 0 171 2.5t138 7.5q-4 -42 -6 -89t-2 -99l-4 -496v-57q0 -55 2 -187t2 -208q0 -180 -98.5 -268.5t-299.5 -88.5q-31 0 -67 5t-74 14v284z" />
    <glyph glyph-name="quoten" unicode="&#x149;" horiz-adv-x="1757" 
d="M955 393q-4 -65 -7.5 -152.5t-7.5 -228.5l-372 -12q9 179 13.5 338t4.5 274v74q0 87 -3 158t-9 139l297 -18l22 -109q114 91 229 137.5t226 46.5q154 0 227.5 -81.5t73.5 -253.5q0 -22 -0.5 -33t-1.5 -22l-12 -214q-3 -72 -4 -141.5t-1 -161.5q0 -39 2 -84l4 -94
q-114 7 -209.5 10.5t-183.5 3.5l17 406l-31 336l-283 -17zM23 831l6 173l192 14l22 125q-29 -5 -43.5 -6.5t-25.5 -1.5q-78 0 -126 53t-48 139q0 101 58 157t163 56q115 0 176.5 -70t61.5 -202q0 -128 -44 -239.5t-104 -145.5q-41 -24 -103.5 -36t-184.5 -16z" />
    <glyph glyph-name="minute" unicode="&#x2032;" horiz-adv-x="674" 
d="M272 1434h242l-213 -553h-129z" />
    <glyph glyph-name="second" unicode="&#x2033;" horiz-adv-x="926" 
d="M600 1434h242l-215 -553h-127zM238 1434h241l-213 -553h-129z" />
    <glyph glyph-name="cslasho" unicode="&#x2105;" horiz-adv-x="2005" 
d="M1671 442l-174 -16l-35 -262q47 -15 100 -22t117 -7h17zM1585 596q161 0 267 -98.5t106 -251.5q0 -121 -104 -202t-257 -81q-162 0 -263 91t-101 239q0 139 95 221t257 82zM475 2l508 852l379 711l166 -56l-471 -811l-70 -118l-338 -652zM772 864q-11 -115 -98.5 -179
t-235.5 -64q-173 0 -283 88.5t-110 228.5q0 144 100 229.5t269 85.5q167 0 263 -71t99 -195l-231 4l-15 115l-196 -11q-3 -36 -4.5 -74.5t-1.5 -80.5q0 -39 2 -75.5t6 -71.5q31 -4 53.5 -5.5t40.5 -1.5q16 0 37 2t45 5l8 71h252z" />
    <glyph glyph-name="litre" unicode="&#x2113;" horiz-adv-x="1186" 
d="M611 343q4 -46 22.5 -70.5t48.5 -24.5q37 0 76.5 37t85.5 116l205 -145q-83 -150 -187 -220.5t-241 -70.5q-91 0 -157.5 41.5t-107.5 124.5q-53 -47 -119.5 -99t-152.5 -112l-133 221q109 78 186.5 144t130.5 127q-13 52 -19.5 120.5t-6.5 149.5q0 389 130 606t359 217
q129 0 206 -86t77 -229q0 -193 -103.5 -410t-299.5 -437zM522 639q97 149 154 303t57 252q0 30 -11 48t-28 18q-57 0 -114.5 -181t-57.5 -420v-20z" />
    <glyph glyph-name="U25a1" unicode="&#x25a1;" horiz-adv-x="1933" 
d="M51 -393v1831h1831v-1831h-1831zM162 -291h1610v1626h-1610v-1626z" />
    <glyph glyph-name="U25aa" unicode="&#x25aa;" horiz-adv-x="1380" 
d="M170 164v1038h1040v-1038h-1040z" />
    <glyph glyph-name="U25ab" unicode="&#x25ab;" horiz-adv-x="1380" 
d="M262 252h856v864h-856v-864zM170 164v1040h1040v-1040h-1040z" />
    <glyph glyph-name="U25cf" unicode="&#x25cf;" horiz-adv-x="1606" 
d="M72 602q0 145 55 277t158 235q104 105 239 161t281 56q122 0 242.5 -43t218.5 -123q125 -102 196.5 -253t71.5 -314q0 -145 -56 -280t-159 -238t-236 -158t-280 -55q-165 0 -312 69t-253 197q-82 98 -124 217.5t-42 251.5z" />
    <glyph glyph-name="U25e6" unicode="&#x25e6;" horiz-adv-x="1706" 
d="M1053 610q0 82 -59 140.5t-140 58.5q-82 0 -140.5 -58t-58.5 -141t58 -140.5t141 -57.5t141 58.5t58 139.5zM854 897q119 0 203 -83.5t84 -203.5q0 -118 -84.5 -203t-204.5 -85t-203.5 84t-83.5 204t84.5 203.5t204.5 83.5z" />
    <glyph glyph-name="Amacron" unicode="&#x100;" horiz-adv-x="1403" 
d="M516 616h297l-90 308l-55 274zM-18 -33l229 701l260 829l500 -14l438 -1516h-514l-92 328l-344 8l-84 -336h-393zM1014 1747h-5q-93 4 -140 4q-91 0 -262 -4q-77 -2 -113 -2l-94 2v178l102 -2l512 6v-182z" />
    <glyph glyph-name="amacron" unicode="&#x101;" horiz-adv-x="1298" 
d="M449 180l286 21q8 56 11.5 99t3.5 87l-1 33q-76 -5 -151.5 -18.5t-151.5 -36.5zM799 61q-88 -61 -196.5 -94t-223.5 -33q-160 0 -251 72t-91 199q0 100 44.5 193t106.5 124q61 30 238 59t412 46v35q0 31 -2 59.5t-7 52.5q-76 25 -155 39t-139 14q-13 0 -24.5 -0.5
t-23.5 -1.5l-4 -139q-64 7 -117.5 10.5t-101.5 3.5q-39 0 -82 -1.5t-88 -3.5v22q0 150 160.5 248t404.5 98q260 0 393.5 -101.5t133.5 -299.5q0 -71 -5 -171t-5 -129q0 -71 10 -154.5t40 -236.5q-28 2 -73 5.5t-55 3.5q-33 0 -90 -8t-156 -25zM971 1268h-5q-93 4 -140 4
q-91 0 -262 -4q-77 -2 -113 -2l-94 2v178l102 -2l512 6v-182z" />
    <glyph glyph-name="Ccircumflex" unicode="&#x108;" horiz-adv-x="1602" 
d="M1518 565v-26q0 -271 -184.5 -441t-483.5 -170q-354 0 -562 215t-208 580q0 370 209 593.5t555 223.5q307 0 493.5 -157.5t186.5 -415.5q0 -10 -1 -23t-4 -41q-41 -2 -90.5 -3t-103.5 -1q-63 0 -131.5 2.5t-146.5 7.5l-19 305h-410l-18 -557l12 -335h484l24 268z
M709 2011l260 10q26 -76 70.5 -164t115.5 -204h-153l-166 176l-158 -168l-164 -8q64 105 113 195.5t82 162.5z" />
    <glyph glyph-name="ccircumflex" unicode="&#x109;" horiz-adv-x="1298" 
d="M1227 369q-19 -206 -159 -320.5t-374 -114.5q-273 0 -447.5 159t-174.5 407q0 257 158 410t427 153q267 0 419 -126t157 -349l-369 8l-22 205l-311 -19q-6 -57 -8.5 -123t-2.5 -153q0 -64 3.5 -130t11.5 -134q55 -6 88.5 -8.5t58.5 -2.5q31 0 108 7q15 1 23 2l12 129h402
zM545 1532l260 10q26 -76 70.5 -164t115.5 -204h-153l-166 176l-158 -168l-164 -8q64 105 113 195.5t82 162.5z" />
    <glyph glyph-name="Cdot" unicode="&#x10a;" horiz-adv-x="1602" 
d="M1518 565v-26q0 -271 -184.5 -441t-483.5 -170q-354 0 -562 215t-208 580q0 370 209 593.5t555 223.5q307 0 493.5 -157.5t186.5 -415.5q0 -10 -1 -23t-4 -41q-41 -2 -90.5 -3t-103.5 -1q-63 0 -131.5 2.5t-146.5 7.5l-19 305h-410l-18 -557l12 -335h484l24 268z
M680 1837q0 68 48 111.5t122 43.5q58 0 101 -45t43 -108q0 -76 -41 -117t-117 -41q-68 0 -112 44t-44 112z" />
    <glyph glyph-name="cdot" unicode="&#x10b;" horiz-adv-x="1298" 
d="M1227 369q-19 -206 -159 -320.5t-374 -114.5q-273 0 -447.5 159t-174.5 407q0 257 158 410t427 153q267 0 419 -126t157 -349l-369 8l-22 205l-311 -19q-6 -57 -8.5 -123t-2.5 -153q0 -64 3.5 -130t11.5 -134q55 -6 88.5 -8.5t58.5 -2.5q31 0 108 7q15 1 23 2l12 129h402
zM516 1358q0 68 48 111.5t122 43.5q58 0 101 -45t43 -108q0 -76 -41 -117t-117 -41q-68 0 -112 44t-44 112z" />
    <glyph glyph-name="Emacron.005" horiz-adv-x="1460" 
d="M115 -57l32 858l-36 635l860 43l411 -4l-2 -273l-372 -4l-373 -18l14 -283q14 0 34 -1t28 -1h27q121 -2 241 -2q116 0 166 1.5t87 4.5l-3 -321l-436 18l-316 -31v-229h47q369 0 589 3t294 9q0 -109 4.5 -208.5t13.5 -190.5q-8 -6 -14.5 -8t-17.5 -2q-6 0 -42 1
q-166 9 -333 13l-457 12zM1038 1747h-5q-93 4 -140 4q-91 0 -262 -4q-77 -2 -113 -2l-94 2v178l102 -2l512 6v-182z" />
    <glyph glyph-name="emacron" unicode="&#x113;" horiz-adv-x="1294" 
d="M514 606h322l-19 209l-303 -6v-203zM803 301l399 12q-28 -179 -167 -280t-359 -101q-279 0 -441.5 148.5t-162.5 400.5q0 264 157 423t418 159q265 0 420.5 -163.5t155.5 -444.5v-37h-408q-62 0 -148.5 -5t-220.5 -16q0 -52 5 -102.5t14 -99.5l326 -5zM954 1268h-5
q-93 4 -140 4q-91 0 -262 -4q-77 -2 -113 -2l-94 2v178l102 -2l512 6v-182z" />
    <glyph glyph-name="Ebreve" unicode="&#x114;" horiz-adv-x="1460" 
d="M115 -57l32 858l-36 635l860 43l411 -4l-2 -273l-372 -4l-373 -18l14 -283q14 0 34 -1t28 -1h27q121 -2 241 -2q116 0 166 1.5t87 4.5l-3 -321l-436 18l-316 -31v-229h47q369 0 589 3t294 9q0 -109 4.5 -208.5t13.5 -190.5q-8 -6 -14.5 -8t-17.5 -2q-6 0 -42 1
q-166 9 -333 13l-457 12zM418 1988h141l35 -114h278l23 114l149 -12q-21 -159 -95.5 -227t-225.5 -68q-141 0 -224 69.5t-83 182.5q0 23 0.5 34.5t1.5 20.5z" />
    <glyph glyph-name="ebreve" unicode="&#x115;" horiz-adv-x="1294" 
d="M514 606h322l-19 209l-303 -6v-203zM803 301l399 12q-28 -179 -167 -280t-359 -101q-279 0 -441.5 148.5t-162.5 400.5q0 264 157 423t418 159q265 0 420.5 -163.5t155.5 -444.5v-37h-408q-62 0 -148.5 -5t-220.5 -16q0 -52 5 -102.5t14 -99.5l326 -5zM334 1509h141
l35 -114h278l23 114l149 -12q-21 -159 -95.5 -227t-225.5 -68q-141 0 -224 69.5t-83 182.5q0 23 0.5 34.5t1.5 20.5z" />
    <glyph glyph-name="Edot" unicode="&#x116;" horiz-adv-x="1460" 
d="M115 -57l32 858l-36 635l860 43l411 -4l-2 -273l-372 -4l-373 -18l14 -283q14 0 34 -1t28 -1h27q121 -2 241 -2q116 0 166 1.5t87 4.5l-3 -321l-436 18l-316 -31v-229h47q369 0 589 3t294 9q0 -109 4.5 -208.5t13.5 -190.5q-8 -6 -14.5 -8t-17.5 -2q-6 0 -42 1
q-166 9 -333 13l-457 12zM575 1837q0 68 48 111.5t122 43.5q58 0 101 -45t43 -108q0 -76 -41 -117t-117 -41q-68 0 -112 44t-44 112z" />
    <glyph glyph-name="edot" unicode="&#x117;" horiz-adv-x="1294" 
d="M514 606h322l-19 209l-303 -6v-203zM803 301l399 12q-28 -179 -167 -280t-359 -101q-279 0 -441.5 148.5t-162.5 400.5q0 264 157 423t418 159q265 0 420.5 -163.5t155.5 -444.5v-37h-408q-62 0 -148.5 -5t-220.5 -16q0 -52 5 -102.5t14 -99.5l326 -5zM491 1358
q0 68 48 111.5t122 43.5q58 0 101 -45t43 -108q0 -76 -41 -117t-117 -41q-68 0 -112 44t-44 112z" />
    <glyph glyph-name="Gcircumflex" unicode="&#x11c;" horiz-adv-x="1688" 
d="M1243 2l-49 117q-60 -99 -157.5 -145t-248.5 -46q-337 0 -522.5 211.5t-185.5 595.5q0 407 197 613t585 206q329 0 503.5 -149.5t174.5 -429.5v-3q2 -13 2 -26h-498l3 234l-459 16v-598l14 -295h503q8 44 11.5 81t3.5 71q0 6 -1 19.5t-1 21.5l-276 10v264l739 -16
l-33 -734zM717 2011l260 10q26 -76 70.5 -164t115.5 -204h-153l-166 176l-158 -168l-164 -8q64 105 113 195.5t82 162.5z" />
    <glyph glyph-name="gcircumflex" unicode="&#x11d;" horiz-adv-x="1346" 
d="M893 743l-379 15v-410l389 8zM776 84q-55 -28 -111.5 -40.5t-123.5 -12.5q-222 0 -345.5 134t-123.5 376q0 249 127 385.5t358 136.5q115 0 203.5 -33.5t148.5 -99.5l52 100l258 -6v-897q0 -190 -12 -273t-40 -133q-64 -111 -203 -172t-333 -61q-289 0 -426 102.5
t-137 319.5q0 23 0.5 35t1.5 22l385 -24l-4 -176l323 -3zM547 1532l260 10q26 -76 70.5 -164t115.5 -204h-153l-166 176l-158 -168l-164 -8q64 105 113 195.5t82 162.5z" />
    <glyph glyph-name="Gdot" unicode="&#x120;" horiz-adv-x="1688" 
d="M1243 2l-49 117q-60 -99 -157.5 -145t-248.5 -46q-337 0 -522.5 211.5t-185.5 595.5q0 407 197 613t585 206q329 0 503.5 -149.5t174.5 -429.5v-3q2 -13 2 -26h-498l3 234l-459 16v-598l14 -295h503q8 44 11.5 81t3.5 71q0 6 -1 19.5t-1 21.5l-276 10v264l739 -16
l-33 -734zM688 1837q0 68 48 111.5t122 43.5q58 0 101 -45t43 -108q0 -76 -41 -117t-117 -41q-68 0 -112 44t-44 112z" />
    <glyph glyph-name="gdot" unicode="&#x121;" horiz-adv-x="1346" 
d="M893 743l-379 15v-410l389 8zM776 84q-55 -28 -111.5 -40.5t-123.5 -12.5q-222 0 -345.5 134t-123.5 376q0 249 127 385.5t358 136.5q115 0 203.5 -33.5t148.5 -99.5l52 100l258 -6v-897q0 -190 -12 -273t-40 -133q-64 -111 -203 -172t-333 -61q-289 0 -426 102.5
t-137 319.5q0 23 0.5 35t1.5 22l385 -24l-4 -176l323 -3zM518 1358q0 68 48 111.5t122 43.5q58 0 101 -45t43 -108q0 -76 -41 -117t-117 -41q-68 0 -112 44t-44 112z" />
    <glyph glyph-name="Gcedilla" unicode="&#x122;" horiz-adv-x="1688" 
d="M1243 2l-49 117q-60 -99 -157.5 -145t-248.5 -46q-337 0 -522.5 211.5t-185.5 595.5q0 407 197 613t585 206q329 0 503.5 -149.5t174.5 -429.5v-3q2 -13 2 -26h-498l3 234l-459 16v-598l14 -295h503q8 44 11.5 81t3.5 71q0 6 -1 19.5t-1 21.5l-276 10v264l739 -16
l-33 -734zM854 -143h19q111 0 170 -50t59 -143q0 -108 -69.5 -163.5t-206.5 -55.5q-143 0 -206 45t-75 152l156 -4l8 -37l194 -2v122l-163 7v290h114v-161z" />
    <glyph glyph-name="gcedilla" unicode="&#x123;" horiz-adv-x="1346" 
d="M893 743l-379 15v-410l389 8zM776 84q-55 -28 -111.5 -40.5t-123.5 -12.5q-222 0 -345.5 134t-123.5 376q0 249 127 385.5t358 136.5q115 0 203.5 -33.5t148.5 -99.5l52 100l258 -6v-897q0 -190 -12 -273t-40 -133q-64 -111 -203 -172t-333 -61q-289 0 -426 102.5
t-137 319.5q0 23 0.5 35t1.5 22l385 -24l-4 -176l323 -3zM686 1532l168 2l125 8l-305 -368h-174z" />
    <glyph glyph-name="Hcircumflex" unicode="&#x124;" horiz-adv-x="1602" 
d="M147 541l-18 938l395 18l-14 -604h496l-9 559l473 18l-14 -712l4 -729l-426 -29l23 238l-19 331h-411l-49 -624l-453 20zM674 2011l260 10q26 -76 70.5 -164t115.5 -204h-153l-166 176l-158 -168l-164 -8q64 105 113 195.5t82 162.5z" />
    <glyph glyph-name="hcircumflex" unicode="&#x125;" horiz-adv-x="1229" 
d="M121 29l6 784l-22 680q89 -9 193.5 -13.5t238.5 -4.5q-9 -116 -13 -253t-4 -292q82 70 155 101.5t152 31.5q139 0 208 -83.5t69 -250.5v-762l-375 -6l16 340l-36 436l-275 -8l12 -729zM192 1964l260 10q26 -76 70.5 -164t115.5 -204h-153l-166 176l-158 -168l-164 -8
q64 105 113 195.5t82 162.5z" />
    <glyph glyph-name="Hbar" unicode="&#x126;" horiz-adv-x="1602" 
d="M1001 1120l-485 2l-6 -229h496zM147 541l-8 579l-139 2l14 185l121 -2l-6 174l395 18l-4 -190l479 -9l-2 154l473 18l-2 -157l109 2l-18 -191h-95l-8 -366l4 -729l-426 -29l23 238l-19 331h-411l-49 -624l-453 20z" />
    <glyph glyph-name="hbar" unicode="&#x127;" horiz-adv-x="1229" 
d="M121 33l6 780l-8 344l-135 -4l2 164l131 -2l-2 178q86 -9 185.5 -13.5t227.5 -4.5l-8 -158l303 2v-168l-303 2v-276q78 68 152.5 100.5t154.5 32.5q139 0 208 -82.5t69 -249.5v-711l-375 -6l8 340l-28 385l-275 -8l12 -674z" />
    <glyph glyph-name="Itilde" unicode="&#x128;" horiz-adv-x="725" 
d="M147 723l-14 768l459 -10l-14 -695l14 -798l-459 -8zM575 1968l115 -33q-33 -138 -71.5 -191t-100.5 -53q-37 0 -143.5 42t-172.5 63l-31 -88l-133 -4q5 122 56 200t123 78q33 0 97.5 -22.5t221.5 -91.5z" />
    <glyph glyph-name="itilde" unicode="&#x129;" horiz-adv-x="621" 
d="M90 -10l31 395v6q8 96 8 146q0 21 -0.5 51.5t-1.5 66.5l-8 303l381 27l-6 -461l8 -559zM530 1489l115 -33q-33 -138 -71.5 -191t-100.5 -53q-37 0 -143.5 42t-172.5 63l-31 -88l-133 -4q5 122 56 200t123 78q33 0 97.5 -22.5t221.5 -91.5z" />
    <glyph glyph-name="Imacron" unicode="&#x12a;" horiz-adv-x="725" 
d="M147 723l-14 768l459 -10l-14 -695l14 -798l-459 -8zM671 1747h-5q-93 4 -140 4q-91 0 -262 -4q-77 -2 -113 -2l-94 2v178l102 -2l512 6v-182z" />
    <glyph glyph-name="imacron" unicode="&#x12b;" horiz-adv-x="621" 
d="M90 -10l31 395v6q8 96 8 146q0 21 -0.5 51.5t-1.5 66.5l-8 303l381 27l-6 -461l8 -559zM626 1268h-5q-93 4 -140 4q-91 0 -262 -4q-77 -2 -113 -2l-94 2v178l102 -2l512 6v-182z" />
    <glyph glyph-name="Ibreve" unicode="&#x12c;" horiz-adv-x="725" 
d="M147 723l-14 768l459 -10l-14 -695l14 -798l-459 -8zM51 1988h141l35 -114h278l23 114l149 -12q-21 -159 -95.5 -227t-225.5 -68q-141 0 -224 69.5t-83 182.5q0 23 0.5 34.5t1.5 20.5z" />
    <glyph glyph-name="ibreve" unicode="&#x12d;" horiz-adv-x="621" 
d="M90 -10l31 395v6q8 96 8 146q0 21 -0.5 51.5t-1.5 66.5l-8 303l381 27l-6 -461l8 -559zM6 1509h141l35 -114h278l23 114l149 -12q-21 -159 -95.5 -227t-225.5 -68q-141 0 -224 69.5t-83 182.5q0 23 0.5 34.5t1.5 20.5z" />
    <glyph glyph-name="Iogonek" unicode="&#x12e;" horiz-adv-x="725" 
d="M147 723l-14 768l459 -10l-14 -695l14 -798l-459 -8zM376 0h129l-135 -180v-96l76 -9l104 13l-6 -195q-12 -1 -25 -1.5t-38 -0.5q-155 0 -226 48t-71 151q0 50 18 91t53 73z" />
    <glyph glyph-name="iogonek" unicode="&#x12f;" horiz-adv-x="621" 
d="M352 1090q-91 0 -160 61t-69 145q0 83 67.5 151.5t135.5 68.5q78 0 148.5 -62t70.5 -135q0 -89 -55 -159t-138 -70zM90 -10l31 395v6q8 96 8 146q0 21 -0.5 51.5t-1.5 66.5l-8 303l381 27l-6 -461l8 -559zM325 0h129l-135 -180v-96l76 -9l104 13l-6 -195q-12 -1 -25 -1.5
t-38 -0.5q-155 0 -226 48t-71 151q0 50 18 91t53 73z" />
    <glyph glyph-name="Jcircumflex" unicode="&#x134;" horiz-adv-x="1219" 
d="M449 592v-352h182l8 252l-12 1048l463 -18l-19 -813v-37v-29v-21q2 -89 2 -176q0 -256 -141 -391t-410 -135q-246 0 -356.5 121.5t-110.5 394.5v68q0 2 1 12q1 39 1 76h392zM731 2011l260 10q26 -76 70.5 -164t115.5 -204h-153l-166 176l-158 -168l-164 -8
q64 105 113 195.5t82 162.5z" />
    <glyph glyph-name="jcircumflex" unicode="&#x135;" horiz-adv-x="649" 
d="M-12 -195h162l-13 1190l398 4l-13 -688q0 -97 2 -248t2 -204q0 -180 -98 -268.5t-299 -88.5q-32 0 -67.5 5t-73.5 14v284zM207 1532l260 10q26 -76 70.5 -164t115.5 -204h-153l-166 176l-158 -168l-164 -8q64 105 113 195.5t82 162.5z" />
    <glyph glyph-name="Kcedilla" unicode="&#x136;" horiz-adv-x="1612" 
d="M147 545l-16 897l457 12l14 -602l539 608l475 -14l-486 -580l502 -921h-6q-239 12 -358 12q-56 0 -182 -4h-17q-74 198 -151.5 360t-153.5 275l-246 -256l4 -350q-37 1 -77 1.5t-117 0.5t-119.5 -0.5t-81.5 -1.5zM664 -662l4 127l141 13l14 94q-13 -3 -26 -4.5t-25 -1.5
q-56 0 -91.5 37.5t-35.5 99.5q0 72 40.5 114t111.5 42q77 0 118.5 -52t41.5 -149q0 -165 -63.5 -243.5t-197.5 -78.5q-5 0 -16 1t-16 1z" />
    <glyph glyph-name="kcedilla" unicode="&#x137;" horiz-adv-x="1337" 
d="M127 803l-23 700l404 23l16 -867l379 373l367 -12l-328 -320l381 -671q-89 -3 -198 -17.5t-240 -40.5l-234 506l-182 -184l2 -303l-344 -4v817zM527 -662l4 127l141 13l14 94q-13 -3 -26 -4.5t-25 -1.5q-56 0 -91.5 37.5t-35.5 99.5q0 72 40.5 114t111.5 42
q77 0 118.5 -52t41.5 -149q0 -165 -63.5 -243.5t-197.5 -78.5q-5 0 -16 1t-16 1z" />
    <glyph glyph-name="kra" unicode="&#x138;" horiz-adv-x="1337" 
d="M127 502l-23 506l404 24l10 -407l385 407l400 -12l-336 -377l356 -614q-87 -3 -196 -17.5t-242 -40.5l-234 461l-159 -174l2 -268l-367 -4v516z" />
    <glyph glyph-name="Lcedilla" unicode="&#x13b;" horiz-adv-x="1223" 
d="M147 764l-6 719l471 16l-6 -1177l613 6l-17 -371q-132 5 -236.5 7.5t-195.5 2.5h-82l-565 19zM469 -662l4 127l141 13l14 94q-13 -3 -26 -4.5t-25 -1.5q-56 0 -91.5 37.5t-35.5 99.5q0 72 40.5 114t111.5 42q77 0 118.5 -52t41.5 -149q0 -165 -63.5 -243.5t-197.5 -78.5
q-5 0 -16 1t-16 1z" />
    <glyph glyph-name="lcedilla" unicode="&#x13c;" horiz-adv-x="639" 
d="M119 4q4 177 6 368.5t2 407.5q0 258 -1 418t-3 313l416 -16l-27 -989l14 -524zM178 -662l4 127l141 13l14 94q-13 -3 -26 -4.5t-25 -1.5q-56 0 -91.5 37.5t-35.5 99.5q0 72 40.5 114t111.5 42q77 0 118.5 -52t41.5 -149q0 -165 -63.5 -243.5t-197.5 -78.5q-5 0 -16 1
t-16 1z" />
    <glyph glyph-name="Ncedilla" unicode="&#x145;" horiz-adv-x="1669" 
d="M119 -18q16 385 24.5 761.5t10.5 745.5h483l463 -739q21 -35 52 -107t60 -158q0 49 1 118.5t1 88.5q0 122 -4.5 296t-15.5 460l336 -4l-8 -858l-6 -604q-82 4 -148.5 6t-105.5 2q-22 0 -101 -2q-59 -2 -93 -2q-10 13 -28 41q-470 700 -567 995l-18 -1040h-336zM693 -662
l4 127l141 13l14 94q-13 -3 -26 -4.5t-25 -1.5q-56 0 -91.5 37.5t-35.5 99.5q0 72 40.5 114t111.5 42q77 0 118.5 -52t41.5 -149q0 -165 -63.5 -243.5t-197.5 -78.5q-5 0 -16 1t-16 1z" />
    <glyph glyph-name="ncedilla" unicode="&#x146;" horiz-adv-x="1298" 
d="M496 393q-4 -65 -7.5 -152.5t-7.5 -228.5l-372 -12q9 179 13.5 338t4.5 274v74q0 87 -3 158t-9 139l297 -18l22 -109q114 91 229 137.5t226 46.5q154 0 227.5 -81.5t73.5 -253.5q0 -22 -0.5 -33t-1.5 -22l-12 -214q-3 -72 -4 -141.5t-1 -161.5q0 -39 2 -84l4 -94
q-114 7 -209.5 10.5t-183.5 3.5l17 406l-31 336l-283 -17zM506 -662l4 127l141 13l14 94q-13 -3 -26 -4.5t-25 -1.5q-56 0 -91.5 37.5t-35.5 99.5q0 72 40.5 114t111.5 42q77 0 118.5 -52t41.5 -149q0 -165 -63.5 -243.5t-197.5 -78.5q-5 0 -16 1t-16 1z" />
    <glyph glyph-name="Eng" unicode="&#x14a;" horiz-adv-x="1665" 
d="M119 -18q16 394 24.5 769.5t10.5 737.5h442l475 -674l61 -84q61 -84 70 -104q0 15 1 52.5t1 59.5q0 124 -4.5 301.5t-13.5 407.5l344 -4l-8 -858l-9 -609v-10q0 -244 -85.5 -350t-280.5 -106q-40 0 -94.5 5t-128.5 17l24 311l219 -8v182l-565 740q-21 27 -62.5 101
t-70.5 114l-14 -991h-336z" />
    <glyph glyph-name="eng" unicode="&#x14b;" horiz-adv-x="1288" 
d="M496 393q-8 -144 -11 -227t-4 -156l-372 -12q10 196 15 362.5t5 298.5q0 94 -3.5 174t-10.5 150l297 -18l22 -109q114 91 229 137.5t226 46.5q157 0 229 -81.5t72 -260.5q0 -8 -1 -24.5t-1 -24.5l-10 -213q-1 -49 -1 -139q0 -382 -44 -471t-129 -132.5t-216 -43.5
q-41 0 -81 4.5t-78 13.5v285h168l8 117l-4 305l-17 336l-297 -17z" />
    <glyph glyph-name="Omacron" unicode="&#x14c;" horiz-adv-x="1651" 
d="M582 315q123 -13 245.5 -19.5t245.5 -6.5l31 844l-549 22v-459zM877 -72q-375 0 -586 223t-211 619q0 174 28 298t85 196q109 139 269 207.5t378 68.5q347 0 538 -197.5t191 -558.5q0 -201 -58 -362.5t-176 -288.5q-103 -110 -208.5 -157.5t-249.5 -47.5zM1132 1747h-5
q-93 4 -140 4q-91 0 -262 -4q-77 -2 -113 -2l-94 2v178l102 -2l512 6v-182z" />
    <glyph glyph-name="omacron" unicode="&#x14d;" horiz-adv-x="1294" 
d="M766 788l-274 -26l-56 -471q74 -25 158.5 -37t185.5 -12h27zM631 1063q255 0 423.5 -175t168.5 -448q0 -216 -165.5 -361t-408.5 -145q-257 0 -417 163t-160 427q0 247 151.5 393t407.5 146zM954 1268h-5q-93 4 -140 4q-91 0 -262 -4q-77 -2 -113 -2l-94 2v178l102 -2
l512 6v-182z" />
    <glyph glyph-name="Obreve" unicode="&#x14e;" horiz-adv-x="1651" 
d="M582 315q123 -13 245.5 -19.5t245.5 -6.5l31 844l-549 22v-459zM877 -72q-375 0 -586 223t-211 619q0 174 28 298t85 196q109 139 269 207.5t378 68.5q347 0 538 -197.5t191 -558.5q0 -201 -58 -362.5t-176 -288.5q-103 -110 -208.5 -157.5t-249.5 -47.5zM512 1988h141
l35 -114h278l23 114l149 -12q-21 -159 -95.5 -227t-225.5 -68q-141 0 -224 69.5t-83 182.5q0 23 0.5 34.5t1.5 20.5z" />
    <glyph glyph-name="obreve" unicode="&#x14f;" horiz-adv-x="1294" 
d="M766 788l-274 -26l-56 -471q74 -25 158.5 -37t185.5 -12h27zM631 1063q255 0 423.5 -175t168.5 -448q0 -216 -165.5 -361t-408.5 -145q-257 0 -417 163t-160 427q0 247 151.5 393t407.5 146zM334 1509h141l35 -114h278l23 114l149 -12q-21 -159 -95.5 -227t-225.5 -68
q-141 0 -224 69.5t-83 182.5q0 23 0.5 34.5t1.5 20.5z" />
    <glyph glyph-name="Rcedilla" unicode="&#x156;" horiz-adv-x="1554" 
d="M627 838l395 4l10 343q-67 6 -129.5 8.5t-122.5 2.5q-1 0 -52 -1t-101 -1v-356zM115 -29q15 156 22.5 322.5t9.5 382.5l7 788q166 15 327 22t318 7q356 0 518 -97.5t162 -312.5q0 -153 -91.5 -252.5t-259.5 -128.5q162 -23 242 -122t80 -277v-131q0 -89 9 -143.5
t30 -100.5l-500 31q-20 116 -30.5 229t-10.5 226q0 15 1 47t1 47l-434 10l10 -547h-411zM635 -662l4 127l141 13l14 94q-13 -3 -26 -4.5t-25 -1.5q-56 0 -91.5 37.5t-35.5 99.5q0 72 40.5 114t111.5 42q77 0 118.5 -52t41.5 -149q0 -165 -63.5 -243.5t-197.5 -78.5
q-5 0 -16 1t-16 1z" />
    <glyph glyph-name="rcedilla" unicode="&#x157;" horiz-adv-x="1071" 
d="M109 29l18 661l-8 305h289l18 -155q31 106 116.5 164.5t209.5 58.5q141 0 214.5 -86.5t73.5 -253.5q0 -45 -4 -94.5t-12 -106.5h-338l6 226h-192l37 -773q-162 45 -397 53q-20 0 -31 1zM172 -662l4 127l141 13l14 94q-13 -3 -26 -4.5t-25 -1.5q-56 0 -91.5 37.5
t-35.5 99.5q0 72 40.5 114t111.5 42q77 0 118.5 -52t41.5 -149q0 -165 -63.5 -243.5t-197.5 -78.5q-5 0 -16 1t-16 1z" />
    <glyph glyph-name="Scircumflex" unicode="&#x15c;" horiz-adv-x="1612" 
d="M90 460l481 -22q0 -42 2 -81.5t7 -77.5l458 -21q1 9 1 25q3 87 3 120q0 17 -1.5 49.5t-4.5 83.5q-85 10 -241 20q-345 23 -473 89q-118 60 -177 165.5t-59 254.5q0 254 171.5 364.5t573.5 110.5q296 0 456.5 -110.5t160.5 -313.5q0 -13 -1 -28t-3 -35l-467 16l8 155
q-67 10 -139 14.5t-152 4.5q-35 0 -75.5 -1.5t-88.5 -5.5l-2 -247h50q494 0 726 -127.5t232 -398.5q0 -254 -181 -394.5t-511 -140.5q-358 0 -557 130.5t-199 363.5q0 10 0.5 19t1.5 19zM680 2011l260 10q26 -76 70.5 -164t115.5 -204h-153l-166 176l-158 -168l-164 -8
q64 105 113 195.5t82 162.5z" />
    <glyph glyph-name="scircumflex" unicode="&#x15d;" horiz-adv-x="1157" 
d="M90 287l328 -25l18 -74l359 -6v144q-431 23 -574 109t-143 292q0 183 106 263.5t357 80.5q239 0 351.5 -73.5t137.5 -243.5h-6q-199 8 -301 8l-27 86h-319v-146q415 -17 566 -103.5t151 -285.5q0 -178 -133.5 -278.5t-372.5 -100.5q-243 0 -370.5 88t-127.5 257v8z
M453 1532l260 10q26 -76 70.5 -164t115.5 -204h-153l-166 176l-158 -168l-164 -8q64 105 113 195.5t82 162.5z" />
    <glyph glyph-name="Tbar" unicode="&#x166;" horiz-adv-x="1327" 
d="M428 -18q5 108 12.5 325t11.5 324h-280l25 186l256 -6v35q4 159 3 227q-94 5 -147.5 6.5t-101.5 1.5q-56 0 -168 -4h-6l18 430l608 -28l635 10q-11 -77 -16.5 -152t-5.5 -153v-39l-367 22l-2 -346l271 2l-17 -190l-262 8l-2 -324v-188q0 -50 1.5 -96.5t4.5 -89.5
q-143 18 -258 27.5t-213 11.5z" />
    <glyph glyph-name="tbar" unicode="&#x167;" horiz-adv-x="934" 
d="M33 760l14 219l174 -4l146 334l196 10l-12 -299l309 -12l-16 -275l-309 -4l-5 -123h222l-9 -160l-223 11l-2 -256l191 -2l-9 96h203q5 -33 6.5 -49.5t1.5 -32.5q0 -134 -94.5 -206.5t-271.5 -72.5q-207 0 -304.5 84t-97.5 263q0 38 5 82.5t14 90.5l-148 1l19 159l153 -4
l9 133z" />
    <glyph glyph-name="Utilde" unicode="&#x168;" horiz-adv-x="1583" 
d="M139 1507l465 -28l2 -449l37 -711l408 -6l20 684l-35 473l389 15l9 -412q3 -151 4.5 -255.5t1.5 -162.5q0 -229 -30 -344.5t-101 -191.5q-87 -95 -212 -143t-284 -48q-222 0 -372 75t-220 220q-38 80 -58 252t-22 437zM1004 1968l115 -33q-33 -138 -71.5 -191t-100.5 -53
q-37 0 -143.5 42t-172.5 63l-31 -88l-133 -4q5 122 56 200t123 78q33 0 97.5 -22.5t221.5 -91.5z" />
    <glyph glyph-name="utilde" unicode="&#x169;" horiz-adv-x="1337" 
d="M102 1006l213 -11h203l-24 -743h327q5 104 7.5 206t2.5 206q0 43 -3 133.5t-9 226.5l400 -10l-11 -453l11 -536l-312 8l-12 73q-84 -80 -182.5 -121.5t-206.5 -41.5q-191 0 -292 98t-101 285q0 69 5 168t5 129v28zM881 1489l115 -33q-33 -138 -71.5 -191t-100.5 -53
q-37 0 -143.5 42t-172.5 63l-31 -88l-133 -4q5 122 56 200t123 78q33 0 97.5 -22.5t221.5 -91.5z" />
    <glyph glyph-name="Umacron" unicode="&#x16a;" horiz-adv-x="1583" 
d="M139 1507l465 -28l2 -449l37 -711l408 -6l20 684l-35 473l389 15l9 -412q3 -151 4.5 -255.5t1.5 -162.5q0 -229 -30 -344.5t-101 -191.5q-87 -95 -212 -143t-284 -48q-222 0 -372 75t-220 220q-38 80 -58 252t-22 437zM1100 1747h-5q-93 4 -140 4q-91 0 -262 -4
q-77 -2 -113 -2l-94 2v178l102 -2l512 6v-182z" />
    <glyph glyph-name="umacron" unicode="&#x16b;" horiz-adv-x="1337" 
d="M102 1006l213 -11h203l-24 -743h327q5 104 7.5 206t2.5 206q0 43 -3 133.5t-9 226.5l400 -10l-11 -453l11 -536l-312 8l-12 73q-84 -80 -182.5 -121.5t-206.5 -41.5q-191 0 -292 98t-101 285q0 69 5 168t5 129v28zM977 1268h-5q-93 4 -140 4q-91 0 -262 -4
q-77 -2 -113 -2l-94 2v178l102 -2l512 6v-182z" />
    <glyph glyph-name="Ubreve" unicode="&#x16c;" horiz-adv-x="1583" 
d="M139 1507l465 -28l2 -449l37 -711l408 -6l20 684l-35 473l389 15l9 -412q3 -151 4.5 -255.5t1.5 -162.5q0 -229 -30 -344.5t-101 -191.5q-87 -95 -212 -143t-284 -48q-222 0 -372 75t-220 220q-38 80 -58 252t-22 437zM480 1988h141l35 -114h278l23 114l149 -12
q-21 -159 -95.5 -227t-225.5 -68q-141 0 -224 69.5t-83 182.5q0 23 0.5 34.5t1.5 20.5z" />
    <glyph glyph-name="ubreve" unicode="&#x16d;" horiz-adv-x="1337" 
d="M102 1006l213 -11h203l-24 -743h327q5 104 7.5 206t2.5 206q0 43 -3 133.5t-9 226.5l400 -10l-11 -453l11 -536l-312 8l-12 73q-84 -80 -182.5 -121.5t-206.5 -41.5q-191 0 -292 98t-101 285q0 69 5 168t5 129v28zM357 1509h141l35 -114h278l23 114l149 -12
q-21 -159 -95.5 -227t-225.5 -68q-141 0 -224 69.5t-83 182.5q0 23 0.5 34.5t1.5 20.5z" />
    <glyph glyph-name="Uogonek" unicode="&#x172;" horiz-adv-x="1583" 
d="M139 1507l465 -28l2 -449l37 -711l408 -6l20 684l-35 473l389 15l9 -412q3 -151 4.5 -255.5t1.5 -162.5q0 -229 -30 -344.5t-101 -191.5q-87 -95 -212 -143t-284 -48q-222 0 -372 75t-220 220q-38 80 -58 252t-22 437zM805 0h129l-135 -180v-96l76 -9l104 13l-6 -195
q-12 -1 -25 -1.5t-38 -0.5q-155 0 -226 48t-71 151q0 50 18 91t53 73z" />
    <glyph glyph-name="uogonek" unicode="&#x173;" horiz-adv-x="1337" 
d="M102 1006l213 -11h203l-24 -743h327q5 104 7.5 206t2.5 206q0 43 -3 133.5t-9 226.5l400 -10l-11 -453l11 -536h-17l-153 -205v-96l73 -9l105 13l-5 -195q-11 -1 -24.5 -1.5t-38.5 -0.5q-156 0 -227.5 48t-71.5 151q0 48 17.5 87t56.5 77l141 133l-168 6l-12 73
q-84 -80 -182.5 -121.5t-206.5 -41.5q-191 0 -292 98t-101 285q0 69 5 168t5 129v28z" />
    <glyph glyph-name="Wcircumflex" unicode="&#x174;" horiz-adv-x="2142" 
d="M334 -33v4q0 38 -144 733l-157 766l446 -12q5 -98 50.5 -353.5t64.5 -406.5l41 -342l31 191q20 131 78 359t151 540h481q7 -54 13.5 -112t7.5 -62l159 -918q11 90 24 174.5t30 169.5l143 752l352 -8l-202 -985q-8 -43 -44.5 -175t-86.5 -294h-115h-174q-51 0 -109.5 -0.5
t-124.5 -1.5l-145 866l-23 172l-39 -227q-33 -188 -83.5 -382.5t-137.5 -455.5zM944 2011l260 10q26 -76 70.5 -164t115.5 -204h-153l-166 176l-158 -168l-164 -8q64 105 113 195.5t82 162.5z" />
    <glyph glyph-name="wcircumflex" unicode="&#x175;" horiz-adv-x="1688" 
d="M975 -14l-86 356q-24 100 -46 343q-1 12 -1 17q-16 -73 -29.5 -126t-24.5 -78l-194 -512l-350 14q-3 35 -45.5 183.5t-67.5 260.5l-131 576h391l117 -723l57 217l135 481l385 15q62 -219 102 -405t58 -335l164 715l289 -8q-27 -74 -65 -225.5t-62 -223.5l-180 -528z
M717 1532l260 10q26 -76 70.5 -164t115.5 -204h-153l-166 176l-158 -168l-164 -8q64 105 113 195.5t82 162.5z" />
    <glyph glyph-name="Ycircumflex" unicode="&#x176;" horiz-adv-x="1319" 
d="M414 -66q13 158 19.5 293.5t6.5 225.5q0 25 -3 86q0 14 -1 22l-436 926l477 4l172 -436q6 -16 18.5 -60.5l28.5 -105.5l254 608l369 -31l-451 -936l19 -639q-126 16 -244.5 26.5t-228.5 16.5zM532 2011l260 10q26 -76 70.5 -164t115.5 -204h-153l-166 176l-158 -168
l-164 -8q64 105 113 195.5t82 162.5z" />
    <glyph glyph-name="ycircumflex" unicode="&#x177;" horiz-adv-x="1110" 
d="M-25 1028l422 10l138 -405q22 -66 39 -140t28 -153l121 459l49 264l309 -35q-94 -278 -355 -1164l-7 -23q-62 -209 -150.5 -280t-255.5 -71q-172 0 -259 77t-87 230q0 23 6 83q2 14 2 20l304 -35l-17 -137l115 -9l43 220l-314 759zM428 1532l260 10q26 -76 70.5 -164
t115.5 -204h-153l-166 176l-158 -168l-164 -8q64 105 113 195.5t82 162.5z" />
    <glyph glyph-name="slong" unicode="&#x17f;" horiz-adv-x="958" 
d="M547 -53l-408 30q16 128 23.5 282t7.5 347v137h-139l-19 228l160 4q0 18 1 53q5 272 60 346q80 106 187 157.5t246 51.5q170 0 251.5 -87.5t81.5 -268.5q0 -30 -3 -102q0 -9 -1 -13l-319 18l-8 213l-115 -10l-4 -549z" />
    <glyph glyph-name="Aringacute" unicode="&#x1fa;" horiz-adv-x="1403" 
d="M748 2107h104l109 11l-220 -213h-139zM801 1733l-164 -7l-4 -157l164 6zM717 1866q97 0 161 -61t64 -154q0 -90 -68 -152.5t-167 -62.5t-158.5 59t-59.5 156q0 91 65.5 153t162.5 62zM-18 -33l229 701l235 762l545 -17l418 -1446h-514l-92 328l-344 8l-84 -336h-393z
M516 616h297l-90 308l-55 274z" />
    <glyph glyph-name="aringacute" unicode="&#x1fb;" horiz-adv-x="1298" 
d="M666 1536q97 0 162 -61t65 -154q0 -90 -68 -152.5t-168 -62.5q-98 0 -157.5 59t-59.5 156q0 91 65 153t161 62zM750 1401l-162 -6l-6 -156l166 6zM698 1778h105l108 10l-221 -213h-137zM799 61q-90 -61 -197.5 -94t-222.5 -33q-160 0 -251 72t-91 199q0 101 45.5 194.5
t105.5 122.5q63 30 236.5 58.5t413.5 46.5v32q0 32 -2 60.5t-7 54.5q-78 26 -154 39.5t-145 13.5q-7 0 -21 -1t-22 -1l-4 -139q-68 8 -120 11t-99 3q-38 0 -80 -1.5t-90 -3.5v20q0 152 158.5 250t406.5 98q260 0 393.5 -101.5t133.5 -299.5q0 -73 -5 -168t-5 -117
q0 -87 11.5 -183t38.5 -223q-21 2 -56 4q-59 5 -76 5q-31 0 -86 -7.5t-156 -25.5zM449 180l286 21q9 52 13 93.5t4 76.5q0 2 -1 18.5t-2 30.5q-68 -3 -143.5 -16.5t-159.5 -38.5z" />
    <glyph glyph-name="AEacute" unicode="&#x1fc;" horiz-adv-x="2138" 
d="M829 1186h-10l-241 -611h270v226zM827 -39l11 313h-357l-125 -331l-413 -4l333 708l375 823q34 0 138.5 -3t160.5 -3q353 0 647 4t455 11l8 -312l-868 -2l-2 -259q65 -8 158.5 -11.5t222.5 -3.5q121 0 210 2.5t162 7.5l-8 -315q-24 -5 -51.5 -6.5t-77.5 -1.5h-47
q-29 0 -97 1t-108 1q-101 0 -142 -0.5t-71 -2.5v-280q133 -18 301 -27.5t355 -9.5h106l21 -315l-688 16h-609zM1081 2011l168 2l125 8l-305 -368h-174z" />
    <glyph glyph-name="aeacute" unicode="&#x1fd;" horiz-adv-x="1915" 
d="M770 383l-329 -4q-6 -34 -8.5 -58t-2.5 -40q0 -11 2.5 -29.5l7.5 -54.5h330v186zM1149 608h305l-16 207l-289 -8v-199zM1423 301l400 12q-28 -179 -166.5 -280t-358.5 -101q-124 0 -230 32t-189 95q-113 -65 -222.5 -95t-232.5 -30q-191 0 -288 77t-97 229q0 195 169 288
t527 93h13q0 14 2 43q6 91 7 133l-208 22l-127 -2l-16 -110l-328 -10q5 180 123 258.5t385 78.5q96 0 187.5 -12.5t180.5 -38.5q75 39 155 59.5t159 20.5q265 0 420 -163.5t155 -444.5v-37h-407q-63 0 -149 -5t-220 -16q0 -52 4.5 -102t13.5 -100l326 -5zM970 1532l168 2
l125 8l-305 -368h-174z" />
    <glyph glyph-name="Oslashacute" unicode="&#x1fe;" horiz-adv-x="1651" 
d="M365 -158l86 191q-184 95 -277.5 281.5t-93.5 455.5q0 174 28.5 298t84.5 196q109 139 269 207.5t378 68.5q66 0 133 -9t133 -28l45 119l172 -57l-63 -131q157 -97 233 -256.5t76 -393.5q0 -201 -58 -362.5t-176 -288.5q-101 -110 -206.5 -157.5t-251.5 -47.5
q-68 0 -130 8t-124 25l-76 -174zM575 299l196.5 431l178.5 407l-395 18v-459zM1073 289l47 848l-360 -838q70 -5 149 -7.5t164 -2.5zM837 2011l168 2l125 8l-305 -368h-174z" />
    <glyph glyph-name="oslashacute" unicode="&#x1ff;" horiz-adv-x="1294" 
d="M424 336l326 467l-277 -12zM813 240l4 415l-309 -428zM283 -152l-146 84l113 150q-86 68 -132 183t-46 259q0 246 152 392.5t407 146.5q65 0 128.5 -14.5t121.5 -42.5l88 122l125 -75l-88 -123q109 -86 163 -208t54 -282q0 -216 -165.5 -361t-408.5 -145q-75 0 -142 15
t-130 45zM659 1532l168 2l125 8l-305 -368h-174z" />
    <glyph glyph-name="anoteleia" unicode="&#x387;" horiz-adv-x="696" 
d="M100 748q0 102 72.5 174.5t175.5 72.5q105 0 177.5 -71.5t72.5 -175.5t-73.5 -177t-176.5 -73q-101 0 -174.5 74t-73.5 176z" />
    <glyph glyph-name="Wgrave" unicode="&#x1e80;" horiz-adv-x="2142" 
d="M334 -33v4q0 38 -144 733l-157 766l446 -12q5 -98 50.5 -353.5t64.5 -406.5l41 -342l31 191q20 131 78 359t151 540h481q7 -54 13.5 -112t7.5 -62l159 -918q11 90 24 174.5t30 169.5l143 752l352 -8l-202 -985q-8 -43 -44.5 -175t-86.5 -294h-115h-174q-51 0 -109.5 -0.5
t-124.5 -1.5l-145 866l-23 172l-39 -227q-33 -188 -83.5 -382.5t-137.5 -455.5zM766 2021l291 -6l188 -362h-166l-92 122z" />
    <glyph glyph-name="wgrave" unicode="&#x1e81;" horiz-adv-x="1688" 
d="M975 -14l-86 356q-24 100 -46 343q-1 12 -1 17q-16 -73 -29.5 -126t-24.5 -78l-194 -512l-350 14q-3 35 -45.5 183.5t-67.5 260.5l-131 576h391l117 -723l57 217l135 481l385 15q62 -219 102 -405t58 -335l164 715l289 -8q-27 -74 -65 -225.5t-62 -223.5l-180 -528z
M539 1542l291 -6l188 -362h-166l-92 122z" />
    <glyph glyph-name="Wacute" unicode="&#x1e82;" horiz-adv-x="2142" 
d="M334 -33v4q0 38 -144 733l-157 766l446 -12q5 -98 50.5 -353.5t64.5 -406.5l41 -342l31 191q20 131 78 359t151 540h481q7 -54 13.5 -112t7.5 -62l159 -918q11 90 24 174.5t30 169.5l143 752l352 -8l-202 -985q-8 -43 -44.5 -175t-86.5 -294h-115h-174q-51 0 -109.5 -0.5
t-124.5 -1.5l-145 866l-23 172l-39 -227q-33 -188 -83.5 -382.5t-137.5 -455.5zM1083 2011l168 2l125 8l-305 -368h-174z" />
    <glyph glyph-name="wacute" unicode="&#x1e83;" horiz-adv-x="1688" 
d="M975 -14l-86 356q-24 100 -46 343q-1 12 -1 17q-16 -73 -29.5 -126t-24.5 -78l-194 -512l-350 14q-3 35 -45.5 183.5t-67.5 260.5l-131 576h391l117 -723l57 217l135 481l385 15q62 -219 102 -405t58 -335l164 715l289 -8q-27 -74 -65 -225.5t-62 -223.5l-180 -528z
M856 1532l168 2l125 8l-305 -368h-174z" />
    <glyph glyph-name="Wdieresis" unicode="&#x1e84;" horiz-adv-x="2142" 
d="M334 -33v4q0 38 -144 733l-157 766l446 -12q5 -98 50.5 -353.5t64.5 -406.5l41 -342l31 191q20 131 78 359t151 540h481q7 -54 13.5 -112t7.5 -62l159 -918q11 90 24 174.5t30 169.5l143 752l352 -8l-202 -985q-8 -43 -44.5 -175t-86.5 -294h-115h-174q-51 0 -109.5 -0.5
t-124.5 -1.5l-145 866l-23 172l-39 -227q-33 -188 -83.5 -382.5t-137.5 -455.5zM1243 1689q-70 0 -103.5 36t-33.5 112q0 63 41.5 105t109.5 42q72 0 107 -34.5t35 -104.5q0 -73 -41.5 -114.5t-114.5 -41.5zM741 1833q0 63 42.5 107t103.5 44q76 0 112.5 -36.5t36.5 -112.5
q0 -62 -45.5 -104t-114.5 -42q-50 0 -92.5 42.5t-42.5 101.5z" />
    <glyph glyph-name="wdieresis" unicode="&#x1e85;" horiz-adv-x="1688" 
d="M975 -14l-86 356q-24 100 -46 343q-1 12 -1 17q-16 -73 -29.5 -126t-24.5 -78l-194 -512l-350 14q-3 35 -45.5 183.5t-67.5 260.5l-131 576h391l117 -723l57 217l135 481l385 15q62 -219 102 -405t58 -335l164 715l289 -8q-27 -74 -65 -225.5t-62 -223.5l-180 -528z
M1016 1210q-70 0 -103.5 36t-33.5 112q0 63 41.5 105t109.5 42q72 0 107 -34.5t35 -104.5q0 -73 -41.5 -114.5t-114.5 -41.5zM514 1354q0 63 42.5 107t103.5 44q76 0 112.5 -36.5t36.5 -112.5q0 -62 -45.5 -104t-114.5 -42q-50 0 -92.5 42.5t-42.5 101.5z" />
    <glyph glyph-name="Ygrave" unicode="&#x1ef2;" horiz-adv-x="1319" 
d="M414 -66q13 158 19.5 293.5t6.5 225.5q0 25 -3 86q0 14 -1 22l-436 926l477 4l172 -436q6 -16 18.5 -60.5l28.5 -105.5l254 608l369 -31l-451 -936l19 -639q-126 16 -244.5 26.5t-228.5 16.5zM354 2021l291 -6l188 -362h-166l-92 122z" />
    <glyph glyph-name="ygrave" unicode="&#x1ef3;" horiz-adv-x="1110" 
d="M-25 1028l422 10l138 -405q22 -66 39 -140t28 -153l121 459l49 264l309 -35q-94 -278 -355 -1164l-7 -23q-62 -209 -150.5 -280t-255.5 -71q-172 0 -259 77t-87 230q0 23 6 83q2 14 2 20l304 -35l-17 -137l115 -9l43 220l-314 759zM250 1542l291 -6l188 -362h-166
l-92 122z" />
    <glyph glyph-name="quotereversed" unicode="&#x201b;" horiz-adv-x="696" 
d="M537 975l-11 -178q-253 9 -339.5 94t-86.5 313q0 167 69 250.5t206 83.5q91 0 156 -67t65 -154q0 -89 -60.5 -148t-150.5 -59q-12 0 -27 1.5t-28 4.5q-3 -22 -4.5 -40.5t-1.5 -33.5q0 -18 0.5 -30t1.5 -23z" />
    <glyph glyph-name="overline" unicode="&#x203e;" horiz-adv-x="1024" 
d="M829 1268h-12q-94 4 -133 4q-66 0 -159.5 -1.5t-212.5 -4.5l-95 2v178l102 -2l510 6v-182z" />
    <glyph glyph-name="lira" unicode="&#x20a4;" horiz-adv-x="1395" 
d="M238 782l-162 -18l-19 176l156 4v17q0 317 130 460.5t415 143.5q246 0 367.5 -106.5t121.5 -321.5q0 -20 -0.5 -36.5t-1.5 -33.5l-371 -6l-12 229h-254l-18 -166v-168l317 15l15 -217l-355 18l-18 -133l354 20l15 -208l-377 14l-11 -139l467 16q115 4 195 12.5t145 24.5
q-9 -76 -13.5 -142t-4.5 -124q0 -29 3 -95q1 -12 1 -18l-874 18l-261 -8l35 184l25 142l2 117l-174 -11l-19 174l187 5z" />
    <glyph glyph-name="estimated" unicode="&#x212e;" horiz-adv-x="1561" 
d="M397 606v-47q0 -239 105 -365t303 -126q172 0 276 94.5t113 258.5l225 1q-15 -222 -179.5 -342.5t-451.5 -120.5q-330 0 -498.5 165.5t-168.5 489.5q0 332 168 497t508 165q322 0 482.5 -155.5t160.5 -467.5v-47h-1043zM1163 715v33q0 208 -94.5 313.5t-280.5 105.5
q-194 0 -287 -107.5t-104 -344.5h766z" />
    <glyph glyph-name="oneeighth" unicode="&#x215b;" horiz-adv-x="2128" 
d="M1561 356l4 -211l227 2v209h-231zM1614 516l174 -2l4 188h-184zM1495 442q-81 22 -125.5 72.5t-44.5 122.5q0 112 97.5 176t273.5 64q166 0 264 -65.5t98 -172.5q0 -75 -50 -131.5t-140 -83.5q108 -14 162.5 -66t54.5 -143q0 -47 -14 -85.5t-39 -63.5q-49 -48 -136 -77.5
t-180 -29.5q-208 0 -316 65t-108 191q0 80 52 138t151 89zM537 2l507 852l379 711l166 -56l-471 -811l-69 -118l-338 -652zM301 657l37 400l10 272l-139 8l16 133q136 8 230.5 18t154.5 21q-16 -89 -24 -203t-8 -249v-49l4 -365z" />
    <glyph glyph-name="threeeighths" unicode="&#x215c;" horiz-adv-x="2128" 
d="M1561 356l4 -211l227 2v209h-231zM1614 516l174 -2l4 188h-184zM1495 442q-81 22 -125.5 72.5t-44.5 122.5q0 112 97.5 176t273.5 64q166 0 264 -65.5t98 -172.5q0 -75 -50 -131.5t-140 -83.5q108 -14 162.5 -66t54.5 -143q0 -47 -14 -85.5t-39 -63.5q-49 -48 -136 -77.5
t-180 -29.5q-208 0 -316 65t-108 191q0 80 52 138t151 89zM537 2l507 852l379 711l166 -56l-471 -811l-69 -118l-338 -652zM72 909l278 -6l-10 -135h192l-10 207l-205 14l13 160h157l21 188l-184 15l-9 -150l-243 19q3 151 95.5 232t262.5 81q161 0 249.5 -70.5t88.5 -197.5
q0 -70 -38 -111t-132 -72q104 -21 156.5 -73.5t52.5 -135.5q0 -116 -103.5 -187t-275.5 -71q-187 0 -273.5 60.5t-86.5 189.5q0 8 0.5 16.5t3.5 26.5z" />
    <glyph glyph-name="fiveeighths" unicode="&#x215d;" horiz-adv-x="2128" 
d="M1561 356l4 -211l227 2v209h-231zM1614 516l174 -2l4 188h-184zM1495 442q-81 22 -125.5 72.5t-44.5 122.5q0 112 97.5 176t273.5 64q166 0 264 -65.5t98 -172.5q0 -75 -50 -131.5t-140 -83.5q108 -14 162.5 -66t54.5 -143q0 -47 -14 -85.5t-39 -63.5q-49 -48 -136 -77.5
t-180 -29.5q-208 0 -316 65t-108 191q0 80 52 138t151 89zM537 2l507 852l379 711l166 -56l-471 -811l-69 -118l-338 -652zM84 887l274 12v-131q11 -1 23.5 -1.5t34.5 -0.5q36 0 65.5 2.5t56.5 7.5l5 240l-232 8l-20 -53l-193 10l4 113l6 79.5t3 43.5l24 294l303 -16l295 16
q-10 -65 -15 -111.5t-6 -80.5q-22 -3 -45.5 -4.5t-50.5 -1.5q-46 0 -152 4.5t-165 5.5l-8 -174q46 30 94.5 43.5t112.5 13.5q149 0 239 -77t90 -203q0 -130 -105 -220t-263 -90q-173 0 -274 73t-101 198z" />
    <glyph glyph-name="seveneighths" unicode="&#x215e;" horiz-adv-x="2128" 
d="M1561 356l4 -211l227 2v209h-231zM1614 516l174 -2l4 188h-184zM1495 442q-81 22 -125.5 72.5t-44.5 122.5q0 112 97.5 176t273.5 64q166 0 264 -65.5t98 -172.5q0 -75 -50 -131.5t-140 -83.5q108 -14 162.5 -66t54.5 -143q0 -47 -14 -85.5t-39 -63.5q-49 -48 -136 -77.5
t-180 -29.5q-208 0 -316 65t-108 191q0 80 52 138t151 89zM537 2l507 852l379 711l166 -56l-471 -811l-69 -118l-338 -652zM168 625q58 115 134.5 289t107.5 225l108 180h-115q-80 0 -147 -4t-125 -12l21 213l337 -17l287 2q-2 -48 -3 -93t-1 -89q-93 -163 -138.5 -254
t-70.5 -158l-80 -278z" />
    <glyph glyph-name="commaaccent" unicode="&#xf004;" horiz-adv-x="1024" 
d="M369 -662l4 127l141 13l14 94q-13 -3 -26 -4.5t-25 -1.5q-56 0 -91.5 37.5t-35.5 99.5q0 72 40.5 114t111.5 42q77 0 118.5 -52t41.5 -149q0 -165 -63.5 -243.5t-197.5 -78.5q-5 0 -16 1t-16 1z" />
    <glyph glyph-name="undercommaaccent" unicode="&#xf005;" horiz-adv-x="1024" 
d="M522 -143h19q111 0 170 -50t59 -143q0 -108 -69.5 -163.5t-206.5 -55.5q-143 0 -206 45t-75 152l156 -4l8 -37l194 -2v122l-163 7v290h114v-161z" />
    <glyph glyph-name="greekacute" unicode="&#x384;" horiz-adv-x="1024" 
d="M524 1532l168 2l125 8l-305 -368h-174z" />
    <glyph glyph-name="greekacutedieresis" unicode="&#x385;" horiz-adv-x="1024" 
d="M412 1563h108l103 10l-56 -371h-110zM817 1210q-70 0 -104.5 37t-34.5 111q0 64 41.5 104.5t109.5 40.5q73 0 108.5 -34t35.5 -103q0 -72 -42 -114t-114 -42zM53 1354q0 64 42 107.5t104 43.5q76 0 112.5 -36t36.5 -113q0 -63 -45 -104.5t-115 -41.5q-51 0 -93 43
t-42 101z" />
    <glyph glyph-name="Alphaacute" unicode="&#x386;" horiz-adv-x="1403" 
d="M516 616h297l-90 308l-55 274zM-18 -33l229 701l260 829l500 -14l438 -1516h-514l-92 328l-344 8l-84 -336h-393zM66 1532l135 2l125 8l-246 -368h-172z" />
    <glyph glyph-name="Epsilonacute" unicode="&#x388;" horiz-adv-x="1950" 
d="M158 1532l135 2l125 8l-246 -368h-172zM604 -57l32 858l-36 635l860 43l411 -4l-2 -273l-372 -4l-373 -18l14 -282q46 -3 133 -4t197 -1q77 0 140 1.5t113 4.5l-3 -321l-436 18l-316 -31v-229h70q359 0 573.5 3t286.5 9q0 -107 4.5 -207t13.5 -192q-7 -6 -14 -8t-18 -2
q-6 0 -45 1q-167 9 -330 13l-457 12z" />
    <glyph glyph-name="Etaacute" unicode="&#x389;" horiz-adv-x="2091" 
d="M158 1532l135 2l125 8l-246 -368h-172zM636 541l-18 938l395 18l-14 -604h496l-9 559l473 18l-14 -712l4 -729l-426 -29l23 238l-19 331h-411l-49 -624l-453 20z" />
    <glyph glyph-name="Iotaacute" unicode="&#x38a;" horiz-adv-x="1214" 
d="M158 1532l135 2l125 8l-246 -368h-172zM636 723l-14 768l459 -10l-14 -695l14 -798l-459 -8z" />
    <glyph glyph-name="Omicronacute" unicode="&#x38c;" horiz-adv-x="1651" 
d="M582 315q115 -13 237.5 -19.5t253.5 -6.5l31 844l-549 22v-459zM877 -72q-372 0 -584.5 221t-212.5 607q0 185 27.5 310.5t85.5 197.5q109 139 269 207.5t378 68.5q347 0 538 -197.5t191 -558.5q0 -200 -58.5 -362t-175.5 -289q-103 -110 -210 -157.5t-248 -47.5z
M-94 1532l135 2l125 8l-246 -368h-172z" />
    <glyph glyph-name="Upsilonacute" unicode="&#x38e;" horiz-adv-x="1950" 
d="M158 1532l135 2l125 8l-246 -368h-172zM1045 -65q13 173 19.5 304.5t6.5 213.5q0 24 -3 89q0 13 -1 19l-436 926l477 4l172 -436q9 -24 39 -135q5 -20 8 -31l254 608l369 -31l-451 -936l19 -639q-144 18 -261.5 28.5t-211.5 15.5z" />
    <glyph glyph-name="Omegaacute" unicode="&#x38f;" horiz-adv-x="1706" 
d="M1040 1178l-393 -23l-14 -543v-299l137 -14v-315l-598 -41l-18 376l288 -8q-131 99 -196.5 233t-65.5 304q0 310 182.5 499t481.5 189q301 0 490.5 -189.5t189.5 -490.5q0 -153 -62.5 -286.5t-181.5 -233.5l287 -4l-29 -162l-8 -176l-612 6l10 328l135 14l8 401z
M-55 1532l135 2l125 8l-246 -368h-172z" />
    <glyph glyph-name="iotaacutedieresis" unicode="&#x390;" horiz-adv-x="621" 
d="M90 -10l31 395q4 48 6 93.5t2 88.5q0 19 -1 48t-1 40l-8 303l381 27l-6 -461l8 -559zM219 1563h108l103 10l-56 -371h-110zM624 1210q-70 0 -104.5 37t-34.5 111q0 64 41.5 104.5t109.5 40.5q73 0 108.5 -34t35.5 -103q0 -72 -42 -114t-114 -42zM-140 1354q0 64 42 107.5
t104 43.5q76 0 112.5 -36t36.5 -113q0 -63 -45 -104.5t-115 -41.5q-51 0 -93 43t-42 101z" />
    <glyph glyph-name="Alpha" unicode="&#x391;" horiz-adv-x="1403" 
d="M516 616h297l-90 308l-55 274zM-18 -33l229 701l260 829l500 -14l438 -1516h-514l-92 328l-344 8l-84 -336h-393z" />
    <glyph glyph-name="Beta" unicode="&#x392;" horiz-adv-x="1565" 
d="M616 164q155 8 245.5 14.5t162.5 14.5l-6 376l-412 9zM477 834l428 20l25 377h-434zM147 424l-6 1042q195 10 355.5 15.5t275.5 5.5q329 0 491 -89t162 -270q0 -147 -94 -250.5t-272 -152.5q210 -24 329 -129t119 -264q0 -192 -141 -298t-397 -106q-57 0 -343 19.5
t-517 21.5z" />
    <glyph glyph-name="Delta" unicode="&#x394;" horiz-adv-x="1346" 
d="M831 258l-200 836l-182 -813zM938 1493l397 -1544q-184 1 -375 6.5t-387 13.5l-540 21q116 487 257 943q17 55 21 70l146 519z" />
    <glyph glyph-name="Epsilon" unicode="&#x395;" horiz-adv-x="1460" 
d="M115 -57l32 858l-36 635l860 43l411 -4l-2 -273l-372 -4l-373 -18l14 -282q46 -3 133 -4t197 -1q77 0 140 1.5t113 4.5l-3 -321l-436 18l-316 -31v-229h70q359 0 573.5 3t286.5 9q0 -107 4.5 -207t13.5 -192q-7 -6 -14 -8t-18 -2q-6 0 -45 1q-167 9 -330 13l-457 12z" />
    <glyph glyph-name="Zeta" unicode="&#x396;" horiz-adv-x="1489" 
d="M47 0q4 50 6 108t2 130v79l469 460l437 413l-871 -57l16 337q15 0 43 -1q287 -7 416 -7q188 0 397.5 4.5t442.5 13.5l-4 -399q-58 -56 -183 -194q-338 -373 -591 -557h794l13 -328l-748 16z" />
    <glyph glyph-name="Eta" unicode="&#x397;" horiz-adv-x="1602" 
d="M147 541l-18 938l395 18l-14 -604h496l-9 559l473 18l-14 -712l4 -729l-426 -29l23 238l-19 331h-411l-49 -624l-453 20z" />
    <glyph glyph-name="Iota" unicode="&#x399;" horiz-adv-x="725" 
d="M147 723l-14 768l459 -10l-14 -695l14 -798l-459 -8z" />
    <glyph glyph-name="Kappa" unicode="&#x39a;" horiz-adv-x="1612" 
d="M147 545l-16 897l457 12l14 -602l539 608l475 -14l-486 -580l502 -921q-121 5 -199.5 7.5t-136.5 2.5q-95 0 -141 -0.5t-86 -1.5q-71 192 -148.5 353.5t-156.5 281.5l-246 -256l4 -350q-34 1 -74 1.5t-122 0.5q-81 0 -122 -0.5t-77 -1.5z" />
    <glyph glyph-name="Lambda" unicode="&#x39b;" horiz-adv-x="1346" 
d="M938 1493l397 -1544q-88 2 -136.5 3t-88.5 1q-74 0 -227 -4h-6l-91 463l-159 696l-265 -1147l-329 29q135 594 278 1001l4 12l170 519z" />
    <glyph glyph-name="Mu" unicode="&#x39c;" horiz-adv-x="1892" 
d="M147 825l29 621l563 -4l224 -1004l157 727l66 281l555 -10q0 -469 5.5 -843t16.5 -642q-71 0 -205.5 7.5t-193.5 8.5q10 94 16 338.5t6 585.5q0 52 -2.5 98.5t-7.5 89.5l-151 -663l-135 -449h-379l-254 1057l-8 -1096l-349 15z" />
    <glyph glyph-name="Nu" unicode="&#x39d;" horiz-adv-x="1669" 
d="M119 -18q16 394 24.5 769.5t10.5 737.5h483l463 -739q20 -32 50 -102.5t62 -162.5q0 24 1 75.5t1 78.5q0 142 -4.5 332t-15.5 477l336 -4l-8 -858l-6 -604q-74 4 -134.5 6t-101.5 2q-49 0 -172 -3q-27 -1 -41 -1q-290 427 -415 648t-179 388l-18 -1040h-336z" />
    <glyph glyph-name="Xi" unicode="&#x39e;" horiz-adv-x="1460" 
d="M96 1436l836 43l393 -4l-2 -301l-354 -3l-865 -20zM260 852l516 33l385 4l-2 -299l-346 -4l-545 -19zM94 -57l15 368h260q381 0 638 4t343 10q0 -90 4.5 -184.5t13.5 -191.5q-6 -5 -13.5 -7.5t-19.5 -2.5q-1 0 -77.5 3.5t-156.5 6.5l-577 16z" />
    <glyph glyph-name="Omicron" unicode="&#x39f;" horiz-adv-x="1651" 
d="M582 315q115 -13 237.5 -19.5t253.5 -6.5l31 844l-549 22v-459zM877 -72q-372 0 -584.5 221t-212.5 607q0 185 27.5 310.5t85.5 197.5q109 139 269 207.5t378 68.5q347 0 538 -197.5t191 -558.5q0 -200 -58.5 -362t-175.5 -289q-103 -110 -210 -157.5t-248 -47.5z" />
    <glyph glyph-name="Pi" unicode="&#x3a0;" horiz-adv-x="1602" 
d="M147 541l-18 901l381 6l487 4l473 18l-14 -712l4 -729l-426 -29l23 238l-19 938l-442 -25l-18 -1206l-453 20z" />
    <glyph glyph-name="Rho" unicode="&#x3a1;" horiz-adv-x="1460" 
d="M483 815h484v361q-97 8 -167.5 12t-123.5 4q-46 0 -92 -2t-92 -6zM147 629l-14 851q144 12 291 17.5t299 5.5q214 0 336 -31t211 -102q83 -66 122.5 -144.5t39.5 -176.5q0 -279 -168.5 -411t-524.5 -132q-43 0 -135 4h-6l4 -538q-91 9 -207 13.5t-276 4.5z" />
    <glyph glyph-name="Sigma" unicode="&#x3a3;" horiz-adv-x="1460" 
d="M201 -41l-13 258l207 254l191 252l-432 481l-17 240l688 41l449 -10l-19 -277l-372 14l-318 -18l381 -393l4 -109l-302 -378q40 -2 82.5 -2.5t115.5 -0.5q136 0 247 4t205 13q0 -99 4.5 -189.5t12.5 -179.5q-63 0 -210 3.5t-228 4.5l-349 2z" />
    <glyph glyph-name="Tau" unicode="&#x3a4;" horiz-adv-x="1327" 
d="M428 -18q14 268 21.5 540.5t6.5 550.5q-94 5 -147.5 6.5t-101.5 1.5q-56 0 -168 -4h-6l18 430l608 -28l635 10q-11 -77 -16.5 -152t-5.5 -153v-39l-367 22l-12 -850v-188q0 -50 1.5 -96.5t4.5 -89.5q-143 18 -258 27.5t-213 11.5z" />
    <glyph glyph-name="Upsilon" unicode="&#x3a5;" horiz-adv-x="1319" 
d="M414 -65q13 173 19.5 304.5t6.5 213.5q0 24 -3 89q0 13 -1 19l-436 926l477 4l172 -436q9 -24 39 -135q5 -20 8 -31l254 608l369 -31l-451 -936l19 -639q-144 18 -261.5 28.5t-211.5 15.5z" />
    <glyph glyph-name="Chi" unicode="&#x3a7;" horiz-adv-x="1518" 
d="M0 -39l416 705q17 30 32.5 52t30.5 38l-293 446l-84 125q-81 116 -88 145l527 17l260 -451l276 418l416 -24l-104 -138l-357 -512q95 -170 212 -356.5t282 -425.5l-518 -10q-118 168 -191.5 296.5t-89.5 192.5l-221 -403l-4 -7q-45 -79 -74 -108h-428z" />
    <glyph glyph-name="Psi" unicode="&#x3a8;" horiz-adv-x="1745" 
d="M506 1073l10 -520l166 -41l10 485l-2 476l369 18l-19 -705l4 -163l177 -5l6 431l-10 284l401 15l-6 -236l2 -305q0 -9 1 -24.5t1 -22.5q0 -226 -119 -325t-391 -99h-27l8 -402l-434 -22l13 348q-290 6 -412.5 104.5t-122.5 321.5q0 8 1 26t1 27v412l-14 291l393 -19z" />
    <glyph glyph-name="Omega.001" unicode="&#x3a9;" horiz-adv-x="1706" 
d="M1040 1178l-393 -23l-14 -543v-299l137 -14v-315l-598 -41l-18 376l288 -8q-131 99 -196.5 233t-65.5 304q0 310 182.5 499t481.5 189q301 0 490.5 -189.5t189.5 -490.5q0 -153 -62.5 -286.5t-181.5 -233.5l287 -4l-29 -162l-8 -176l-612 6l10 328l135 14l8 401z" />
    <glyph glyph-name="Iotadieresis" unicode="&#x3aa;" horiz-adv-x="725" 
d="M147 723l-14 768l459 -10l-14 -695l14 -798l-459 -8zM542 1689q-70 0 -103.5 36t-33.5 112q0 65 41 105t110 40q72 0 107 -33.5t35 -103.5q0 -72 -42 -114t-114 -42zM40 1833q0 64 42 107.5t104 43.5q76 0 112.5 -36t36.5 -113q0 -63 -45 -104.5t-115 -41.5q-51 0 -93 43
t-42 101z" />
    <glyph glyph-name="Upsilondieresis" unicode="&#x3ab;" horiz-adv-x="1319" 
d="M414 -65q13 173 19.5 304.5t6.5 213.5q0 24 -3 89q0 13 -1 19l-436 926l477 4l172 -436q9 -24 39 -135q5 -20 8 -31l254 608l369 -31l-451 -936l19 -639q-144 18 -261.5 28.5t-211.5 15.5zM831 1689q-70 0 -103.5 36t-33.5 112q0 65 41 105t110 40q72 0 107 -33.5
t35 -103.5q0 -72 -42 -114t-114 -42zM329 1833q0 64 42 107.5t104 43.5q76 0 112.5 -36t36.5 -113q0 -63 -45 -104.5t-115 -41.5q-51 0 -93 43t-42 101z" />
    <glyph glyph-name="alphaacute" unicode="&#x3ac;" horiz-adv-x="1274" 
d="M805 915l-2 84l342 -32l-8 -464q7 -162 25 -297.5t46 -244.5l-389 -4l-16 82q-69 -48 -136.5 -72t-136.5 -24q-195 0 -328.5 160.5t-133.5 400.5q0 98 23 179t71 148q70 98 172 153.5t209 55.5q80 0 145 -31t117 -94zM762 770l-275 -27l-55 -471q74 -24 160.5 -36.5
t185.5 -12.5h25zM649 1532l168 2l125 8l-305 -368h-174z" />
    <glyph glyph-name="epsilonacute" unicode="&#x3ad;" horiz-adv-x="1196" 
d="M1055 289q0 -7 1 -17.5t1 -15.5q0 -155 -113 -230t-346 -75q-235 0 -366.5 85.5t-131.5 237.5q0 112 69.5 182.5t199.5 88.5q-115 33 -167 85t-52 132q0 142 114.5 225.5t313.5 83.5q205 0 329.5 -83t139.5 -228l-306 -19l-24 93l-197 -19l41 -176h141l9 -225l-205 -15
l-14 -206l241 -3l15 105zM610 1532l168 2l125 8l-305 -368h-174z" />
    <glyph glyph-name="etaacute" unicode="&#x3ae;" horiz-adv-x="1298" 
d="M496 393q-8 -144 -11 -227t-4 -156l-372 -12q10 196 15 362.5t5 298.5q0 94 -3.5 174t-10.5 150l297 -18l22 -109q114 91 229 137.5t226 46.5q93 0 163.5 -37t104.5 -104q16 -31 23.5 -71.5t7.5 -108.5v-70l-12 -440q-4 -113 -5.5 -210t-1.5 -179q0 -102 2 -173.5
t6 -123.5q-77 5 -170 8.5t-208 5.5v610l-29 564l-283 -17zM661 1532l168 2l125 8l-305 -368h-174z" />
    <glyph glyph-name="iotaacute" unicode="&#x3af;" horiz-adv-x="621" 
d="M90 -10l31 395q4 48 6 93.5t2 88.5q0 19 -1 48t-1 40l-8 303l381 27l-6 -461l8 -559zM331 1532l168 2l125 8l-305 -368h-174z" />
    <glyph glyph-name="upsilonacutedieresis" unicode="&#x3b0;" horiz-adv-x="1327" 
d="M131 981l193 -8l182 2l-17 -402l17 -321h348q5 116 7.5 204.5t2.5 159.5q0 88 -3 181.5t-9 191.5l365 -8l-9 -467q-6 -332 -118.5 -453.5t-403.5 -121.5q-205 0 -315.5 50t-169.5 167q-38 72 -54 181t-16 314v330zM564 1563h108l103 10l-56 -371h-110zM969 1210
q-70 0 -104.5 37t-34.5 111q0 64 41.5 104.5t109.5 40.5q73 0 108.5 -34t35.5 -103q0 -72 -42 -114t-114 -42zM205 1354q0 64 42 107.5t104 43.5q76 0 112.5 -36t36.5 -113q0 -63 -45 -104.5t-115 -41.5q-51 0 -93 43t-42 101z" />
    <glyph glyph-name="beta" unicode="&#x3b2;" horiz-adv-x="1313" 
d="M176 285v604q0 204 13 303t44 164q53 109 172.5 173t272.5 64q183 0 294 -105.5t111 -279.5q0 -111 -47 -195.5t-137 -135.5q193 -31 303.5 -169t110.5 -348q0 -195 -116.5 -310.5t-313.5 -115.5q-50 0 -95 4.5t-88 12.5l21 303l205 -8l4 432l-260 12l-6 279l122 6
l-16 356l-248 2l-8 -946q0 -65 2.5 -193t7.5 -280l13 -385l-385 25q9 132 18 376v13q3 89 4.5 175t1.5 167z" />
    <glyph glyph-name="gamma" unicode="&#x3b3;" horiz-adv-x="1110" 
d="M-25 1028l422 10l138 -405q22 -64 38.5 -136t28.5 -157l115 459l55 264l309 -35q-73 -218 -150 -473l-161 -559l-4 -240l14 -223q-19 -1 -57 -2q-192 -6 -266 -6h-54l13 471l-310 702z" />
    <glyph glyph-name="zeta" unicode="&#x3b6;" horiz-adv-x="1141" 
d="M674 977q-110 -146 -163.5 -268.5t-53.5 -227.5q0 -135 60.5 -194.5t199.5 -59.5q11 0 39.5 1t44.5 1q149 0 222 -70t73 -214q0 -54 -12 -105t-35 -102l-299 49q15 37 22.5 64.5t7.5 46.5q0 33 -19 50t-56 17q-13 0 -53 -7t-68 -7q-234 0 -365 121.5t-131 339.5
q0 88 18.5 170t55.5 155q39 78 117 186.5t247 315.5h-299l-4 272l320 -14h331l-16 -285z" />
    <glyph glyph-name="eta" unicode="&#x3b7;" horiz-adv-x="1298" 
d="M496 393q-8 -144 -11 -227t-4 -156l-372 -12q10 196 15 362.5t5 298.5q0 94 -3.5 174t-10.5 150l297 -18l22 -109q114 91 229 137.5t226 46.5q93 0 163.5 -37t104.5 -104q16 -31 23.5 -71.5t7.5 -108.5v-70l-12 -440q-4 -113 -5.5 -210t-1.5 -179q0 -102 2 -173.5
t6 -123.5q-77 5 -170 8.5t-208 5.5v610l-29 564l-283 -17z" />
    <glyph glyph-name="theta" unicode="&#x3b8;" horiz-adv-x="1395" 
d="M486 258l436 -14l16 358h-460q1 -58 3 -154q3 -155 5 -190zM922 891l47 360q-57 4 -123.5 6.5t-147.5 2.5q-85 0 -130 -1t-85 -4q-4 -131 -14 -391zM80 696q0 451 150.5 660t471.5 209q322 0 466.5 -186t144.5 -601q0 -413 -154 -631.5t-444 -218.5q-313 0 -474 194.5
t-161 573.5z" />
    <glyph glyph-name="iota" unicode="&#x3b9;" horiz-adv-x="621" 
d="M90 -10l31 395q4 48 6 93.5t2 88.5q0 19 -1 48t-1 40l-8 303l381 27l-6 -461l8 -559z" />
    <glyph glyph-name="kappa" unicode="&#x3ba;" horiz-adv-x="1337" 
d="M127 502l-23 477l404 25l10 -398l385 398l400 -13l-336 -377l356 -585q-87 -3 -196 -17.5t-242 -40.5l-226 414l-159 -164l-6 -231l-367 -4v516z" />
    <glyph glyph-name="lambda" unicode="&#x3bb;" horiz-adv-x="1184" 
d="M33 -6l121 299l307 756l-37 190l-57 227l368 43l45 -194l192.5 -713.5t182.5 -607.5l-373 -33l-84 350l-82 330q-23 -53 -53 -152.5t-45 -140.5l-131 -364z" />
    <glyph glyph-name="greekmu" unicode="&#x3bc;" horiz-adv-x="1337" 
d="M102 1006l213 -11h203l-24 -743h327q6 121 8 208.5t2 155.5q0 80 -3 181.5t-9 226.5l400 -10l-11 -453l11 -536l-312 8l-12 73q-36 -68 -100 -105.5t-146 -37.5q-45 0 -91.5 16t-96.5 49q-3 -94 -4.5 -174.5t-1.5 -146.5q0 -57 1.5 -103t3.5 -81q-76 7 -163 10.5
t-191 3.5l15 692q0 9 -1 26q-3 115 -3 163q0 66 2 139.5t2 81.5v12z" />
    <glyph glyph-name="nu" unicode="&#x3bd;" horiz-adv-x="1053" 
d="M319 0l-147 469l-90 301.5t-82 249.5l426 18q18 -125 53.5 -310t91.5 -439l60 264l131 453h301l-68 -232l-173.5 -442t-119.5 -332h-383z" />
    <glyph glyph-name="xi" unicode="&#x3be;" horiz-adv-x="1163" 
d="M1075 -252l-284 57q8 32 12 56t4 41q0 42 -23.5 61t-76.5 19q-5 0 -26 -2q-85 -5 -163 -5q-212 0 -320 105t-108 309q0 156 80.5 244.5t255.5 124.5q-135 40 -198.5 101t-63.5 149q0 95 73.5 160.5t211.5 93.5l-287 -2l10 260l467 -29l350 4l-12 -258l-371 -10l-4 -348
h215l19 -254l-338 -45l14 -344q242 0 340 -8.5t137 -28.5q65 -34 98 -95.5t33 -148.5q0 -42 -11 -92t-34 -115z" />
    <glyph glyph-name="omicron" unicode="&#x3bf;" horiz-adv-x="1290" 
d="M762 788l-275 -26l-55 -471q74 -25 160.5 -37t185.5 -12h25zM627 1063q123 0 238 -50.5t200 -142.5q77 -83 115.5 -190t38.5 -240q0 -100 -33.5 -181t-106.5 -157q-74 -76 -192 -122t-242 -46q-258 0 -417.5 163t-159.5 427q0 248 151 393.5t408 145.5z" />
    <glyph glyph-name="rho" unicode="&#x3c1;" horiz-adv-x="1294" 
d="M827 786l-383 -24l-6 -561l400 86zM416 10l10 -235l23 -236l-349 15q8 71 11.5 150t3.5 169q0 91 -3.5 179.5t-11.5 177.5q-14 87 -21 154t-7 118q0 260 146 410.5t396 150.5q263 0 435 -167t172 -421q0 -241 -149 -395t-378 -154q-70 0 -138.5 21t-139.5 63z" />
    <glyph glyph-name="sigmaalt" unicode="&#x3c2;" horiz-adv-x="1298" 
d="M1196 -297l-294 49q6 24 9.5 47t3.5 43q0 51 -27.5 75t-86.5 24q-15 0 -66 -3.5t-86 -3.5q-255 0 -416 160t-161 410q0 256 158 407.5t427 151.5q267 0 417.5 -125.5t151.5 -349.5l-366 12l-24 201l-320 -19l10.5 -342.5t8.5 -224.5l86 -3q380 -13 448 -46
q75 -37 117.5 -113t42.5 -172q0 -41 -8.5 -85.5t-24.5 -92.5z" />
    <glyph glyph-name="upsilon" unicode="&#x3c5;" horiz-adv-x="1327" 
d="M131 981l193 -8l182 2l-17 -402l17 -321h348q5 116 7.5 204.5t2.5 159.5q0 88 -3 181.5t-9 191.5l365 -8l-9 -467q-6 -332 -118.5 -453.5t-403.5 -121.5q-205 0 -315.5 50t-169.5 167q-38 72 -54 181t-16 314v330z" />
    <glyph glyph-name="chi" unicode="&#x3c7;" horiz-adv-x="1044" 
d="M-29 -477l330 764l-213 422l-46 89q-68 132 -79 167l350 12l195 -471l225 446l318 -22l-66 -129l-240 -508l237.5 -523.5t94.5 -211.5l-356 -4l-107 272l-55 141q-48 120 -49 133l-172 -460q-11 -30 -24.5 -59t-30.5 -58h-312z" />
    <glyph glyph-name="psi" unicode="&#x3c8;" horiz-adv-x="1380" 
d="M383 657l2 -469l160 15l6 385l-12 379l331 18l-18 -741v-140l149 -6l29 559l-8 199l311 2l-4 -180l-8 -414q0 -7 1 -22t1 -21q0 -178 -96 -258t-309 -80q-27 0 -40.5 0.5t-25.5 1.5l6 -358l-340 -8l8 430q-25 -1 -65 -2q-56 -2 -72 -2q-175 0 -252.5 78.5t-77.5 257.5v28
v400l-14 204l340 7z" />
    <glyph glyph-name="omega" unicode="&#x3c9;" horiz-adv-x="1339" 
d="M356 533l6 -334l166 -21l2 180v293l258 19l15 -348l-8 -164l196 6l13 299v6q0 82 -35 161.5t-107 162.5l246 149q107 -104 158 -233.5t51 -298.5q0 -233 -94 -357.5t-269 -124.5q-91 0 -159 30.5t-125 96.5q-48 -83 -114 -122t-159 -39q-190 0 -284.5 145t-94.5 438
q0 219 72 354.5t229 215.5l154 -222q-62 -47 -90.5 -104.5t-28.5 -136.5q0 -21 0.5 -31t1.5 -20z" />
    <glyph glyph-name="iotadieresis" unicode="&#x3ca;" horiz-adv-x="621" 
d="M90 -10l31 395q4 48 6 93.5t2 88.5q0 19 -1 48t-1 40l-8 303l381 27l-6 -461l8 -559zM491 1210q-70 0 -103.5 36t-33.5 112q0 65 41 105t110 40q72 0 107 -33.5t35 -103.5q0 -72 -42 -114t-114 -42zM-11 1354q0 64 42 107.5t104 43.5q76 0 112.5 -36t36.5 -113
q0 -63 -45 -104.5t-115 -41.5q-51 0 -93 43t-42 101z" />
    <glyph glyph-name="upsilondieresis" unicode="&#x3cb;" horiz-adv-x="1327" 
d="M131 981l193 -8l182 2l-17 -402l17 -321h348q5 116 7.5 204.5t2.5 159.5q0 88 -3 181.5t-9 191.5l365 -8l-9 -467q-6 -332 -118.5 -453.5t-403.5 -121.5q-205 0 -315.5 50t-169.5 167q-38 72 -54 181t-16 314v330zM836 1210q-70 0 -103.5 36t-33.5 112q0 65 41 105
t110 40q72 0 107 -33.5t35 -103.5q0 -72 -42 -114t-114 -42zM334 1354q0 64 42 107.5t104 43.5q76 0 112.5 -36t36.5 -113q0 -63 -45 -104.5t-115 -41.5q-51 0 -93 43t-42 101z" />
    <glyph glyph-name="omicronacute" unicode="&#x3cc;" horiz-adv-x="1290" 
d="M762 788l-275 -26l-55 -471q74 -25 160.5 -37t185.5 -12h25zM627 1063q123 0 238 -50.5t200 -142.5q77 -83 115.5 -190t38.5 -240q0 -100 -33.5 -181t-106.5 -157q-74 -76 -192 -122t-242 -46q-258 0 -417.5 163t-159.5 427q0 248 151 393.5t408 145.5zM657 1532l168 2
l125 8l-305 -368h-174z" />
    <glyph glyph-name="upsilonacute" unicode="&#x3cd;" horiz-adv-x="1327" 
d="M131 981l193 -8l182 2l-17 -402l17 -321h348q5 116 7.5 204.5t2.5 159.5q0 88 -3 181.5t-9 191.5l365 -8l-9 -467q-6 -332 -118.5 -453.5t-403.5 -121.5q-205 0 -315.5 50t-169.5 167q-38 72 -54 181t-16 314v330zM676 1532l168 2l125 8l-305 -368h-174z" />
    <glyph glyph-name="omegaacute" unicode="&#x3ce;" horiz-adv-x="1339" 
d="M356 533l6 -334l166 -21l2 180v293l258 19l15 -348l-8 -164l196 6l13 299v6q0 82 -35 161.5t-107 162.5l246 149q107 -104 158 -233.5t51 -298.5q0 -233 -94 -357.5t-269 -124.5q-91 0 -159 30.5t-125 96.5q-48 -83 -114 -122t-159 -39q-190 0 -284.5 145t-94.5 438
q0 219 72 354.5t229 215.5l154 -222q-62 -47 -90.5 -104.5t-28.5 -136.5q0 -21 0.5 -31t1.5 -20zM682 1532l168 2l125 8l-305 -368h-174z" />
    <glyph glyph-name="afii10023" unicode="&#x401;" horiz-adv-x="1460" 
d="M412 1698q0 64 41 107.5t102 43.5q77 0 113.5 -36t36.5 -113q0 -62 -45.5 -103t-114.5 -41q-51 0 -92 42t-41 100zM913 1554q-70 0 -104.5 36.5t-34.5 111.5q0 65 41.5 106t110.5 41q71 0 106 -34.5t35 -104.5q0 -73 -41 -114.5t-113 -41.5zM115 -57l32 858l-36 635
l860 43l411 -4l-2 -273l-372 -4l-373 -18l14 -282q46 -3 133 -4t197 -1q77 0 140 1.5t113 4.5l-3 -321l-436 18l-316 -31v-229h70q359 0 573.5 3t286.5 9q0 -107 4.5 -207t13.5 -192q-7 -6 -14 -8t-18 -2q-6 0 -45 1q-167 9 -330 13l-457 12z" />
    <glyph glyph-name="afii10051" unicode="&#x402;" horiz-adv-x="1706" 
d="M428 -18q14 268 21.5 540.5t6.5 550.5q-94 5 -147.5 6.5t-101.5 1.5q-56 0 -168 -4h-6l18 430l608 -28l635 10q-11 -77 -16.5 -152t-5.5 -153v-39l-381 16l-2 -370q78 67 168 101t190 34q170 0 244 -76.5t78 -260.5l2 -214v-33q0 -240 -79.5 -339t-268.5 -99
q-52 0 -100.5 5t-88.5 15v289l166 -2l-4 188l-8 199l-301 -8l-8 -273v-55v-133q0 -49 1.5 -95.5t3.5 -90.5q-143 18 -254 27.5t-202 11.5z" />
    <glyph glyph-name="afii10052" unicode="&#x403;" horiz-adv-x="1272" 
d="M115 -57l32 858l-36 635l733 43l413 -4l-4 -291l-372 -4l-287 -27l-12 -1188zM649 2011l168 2l125 8l-305 -368h-174z" />
    <glyph glyph-name="afii10053" unicode="&#x404;" horiz-adv-x="1544" 
d="M1448 520q-5 -264 -182 -428t-457 -164q-109 0 -209 28t-186 83q-164 103 -251 277.5t-87 400.5q0 198 59 354.5t178 274.5q91 90 224.5 143t271.5 53q141 0 273.5 -50t222.5 -136q74 -71 116.5 -173.5t42.5 -209.5q0 -12 -3 -41q0 -6 -1 -10q-26 -1 -57.5 -1.5
t-91.5 -0.5q-72 0 -134 2t-118 6l-21 286h-516l-20 -309l297 -4l12 -291l-231 -18l26 -270h461l16 223z" />
    <glyph glyph-name="afii10054" unicode="&#x405;" horiz-adv-x="1612" 
d="M90 461l481 -23q0 -48 2 -87t7 -72l458 -21q3 51 3.5 79t0.5 52q0 37 -1.5 74t-4.5 73q-60 6 -170 13q-454 33 -600 129q-87 57 -133.5 157.5t-46.5 229.5q0 254 171.5 364.5t573.5 110.5q296 0 457.5 -111t161.5 -313q0 -10 -2.5 -31.5t-3.5 -31.5l-467 16l8 155
q-65 10 -137 14.5t-154 4.5q-36 0 -77 -1.5t-87 -5.5l-2 -247q15 0 43.5 1t42.5 1q463 0 692.5 -131.5t229.5 -396.5q0 -254 -181.5 -394.5t-510.5 -140.5q-361 0 -557.5 130.5t-196.5 369.5v33z" />
    <glyph glyph-name="afii10055" unicode="&#x406;" horiz-adv-x="725" 
d="M147 723l-14 768l459 -10l-14 -695l14 -798l-459 -8z" />
    <glyph glyph-name="afii10056" unicode="&#x407;" horiz-adv-x="725" 
d="M39 1698q0 64 42 107.5t103 43.5q77 0 113.5 -36t36.5 -113q0 -62 -45 -103t-115 -41q-51 0 -93 42t-42 100zM541 1554q-71 0 -104.5 36t-33.5 112q0 65 41.5 106t110.5 41q71 0 106 -34.5t35 -104.5q0 -72 -41.5 -114t-113.5 -42zM147 723l-14 768l459 -10l-14 -695
l14 -798l-459 -8z" />
    <glyph glyph-name="afii10057" unicode="&#x408;" horiz-adv-x="1219" 
d="M449 592v-352h182l8 252l-12 1048l463 -18l-19 -813v-35q0 -22 1 -87.5t1 -107.5q0 -130 -16.5 -203.5t-55.5 -134.5q-71 -110 -191 -165.5t-288 -55.5q-246 0 -356.5 121.5t-110.5 394.5q0 42 0.5 78.5t2.5 77.5h391z" />
    <glyph glyph-name="afii10058" unicode="&#x409;" horiz-adv-x="2068" 
d="M1241 164q61 4 135 11t172 18l-6 376l-311 9zM1247 1470l-18 -438l12 -207q74 11 132 16t106 5q264 0 399 -118t135 -349q0 -226 -135.5 -337.5t-409.5 -111.5q-30 0 -83.5 1.5t-128.5 4.5l-406 -6l24 416l-38 832h-261q0 -469 -15 -681.5t-50 -297.5
q-54 -135 -150.5 -190.5t-281.5 -55.5q-31 0 -46.5 0.5t-29.5 1.5l23 311h22q77 0 109 50.5t32 172.5v37q0 90 5.5 270.5t5.5 270.5q0 73 -2.5 167t-7.5 228l638 -4z" />
    <glyph glyph-name="afii10059" unicode="&#x40a;" horiz-adv-x="2144" 
d="M1298 164q62 4 135.5 11t172.5 18l-7 376l-313 9zM1307 830q65 9 123.5 13.5t111.5 4.5q277 0 415 -117t138 -352q0 -223 -136.5 -337t-402.5 -114q-34 0 -195 11.5t-288 15.5l-221 -12l16 262l-14 364h-246l-49 -624l-434 20l16 590l-12 924l395 18l-14 -604h354l-4 229
l-24 314l460 39l-10 -396z" />
    <glyph glyph-name="afii10060" unicode="&#x40b;" horiz-adv-x="1702" 
d="M428 -18q14 269 21.5 542.5t7.5 556.5q-60 5 -127.5 7t-149.5 2q-61 0 -91 -0.5t-56 -1.5l18 419l608 -28l635 10q-11 -77 -16.5 -152t-5.5 -153v-39l-381 16l-2 -373q78 68 168.5 102t193.5 34q169 0 243.5 -78t74.5 -258v-621l-375 -6l-4 340l-16 295l-287 -8l-8 -270
q-1 -29 -1.5 -61.5t-0.5 -90.5q0 -77 2 -131.5t6 -91.5q-144 18 -255 27.5t-202 11.5z" />
    <glyph glyph-name="afii10061" unicode="&#x40c;" horiz-adv-x="1612" 
d="M147 545l-16 897l457 12l14 -602l539 608l475 -14l-486 -580l502 -921q-121 5 -199.5 7.5t-136.5 2.5q-95 0 -141 -0.5t-86 -1.5q-71 192 -148.5 353.5t-156.5 281.5l-246 -256l4 -350q-34 1 -74 1.5t-122 0.5q-81 0 -122 -0.5t-77 -1.5zM819 2011l168 2l125 8l-305 -368
h-174z" />
    <glyph glyph-name="afii10062" unicode="&#x40e;" horiz-adv-x="1110" 
d="M12 1485l422 8l135 -406q20 -59 44.5 -157.5t35.5 -134.5l133 436l64 287l309 -33l-244 -754q-161 -504 -190 -571q-48 -110 -135.5 -162.5t-225.5 -52.5q-172 0 -259 77t-87 230q0 20 1.5 45.5t5.5 56.5l303 -35l-17 -135l115 -10l45 219l-324 762zM418 1863
q27 -17 62 -25.5t77 -8.5q43 0 77.5 8t65.5 26q0 2 -1 6q-13 41 -13 56q0 40 24.5 65t63.5 25q48 0 80.5 -35.5t32.5 -87.5q0 -93 -93.5 -160t-230.5 -67q-148 0 -245 70.5t-97 170.5q0 49 29 76t82 27q46 0 72 -23.5t26 -64.5q0 -13 -3 -28t-9 -30z" />
    <glyph glyph-name="afii10145" unicode="&#x40f;" horiz-adv-x="1602" 
d="M147 541l-18 938l410 18l-25 -1208l528 -17l-24 1180l452 18l-16 -712l6 -795l-313 2l-168 -2l10 -270l-426 -27l23 301l-461 -2z" />
    <glyph glyph-name="afii10099" unicode="&#x452;" horiz-adv-x="1229" 
d="M121 33l6 780l-2 344l-141 -4l2 164l131 -2l-2 178q86 -9 185.5 -13.5t227.5 -4.5l-8 -146l314 2l-11 -172l-303 6v-288q78 68 152.5 100.5t154.5 32.5q139 0 208 -83.5t69 -250.5v-273q0 -298 -9.5 -414t-33.5 -163q-42 -83 -135.5 -129.5t-216.5 -46.5q-33 0 -67 4.5
t-72 13.5l-1 285h176l-8 496l-24 235l-279 -8l12 -672z" />
    <glyph glyph-name="afii10100" unicode="&#x453;" horiz-adv-x="1006" 
d="M90 -37l27 549l-27 459l574 26l315 -2l-2 -286l-285 -2l-192 -17l-13 -713zM518 1532l168 2l125 8l-305 -368h-174z" />
    <glyph glyph-name="afii10101" unicode="&#x454;" horiz-adv-x="1219" 
d="M1134 346q-3 -184 -143.5 -299t-363.5 -115q-251 0 -411.5 154.5t-160.5 396.5q0 259 158.5 417.5t417.5 158.5q224 0 370 -113.5t146 -283.5q0 -13 -0.5 -20t-1.5 -15q-28 0 -81 1q-192 2 -238 7l-21 186h-383l-14 -205l256 -4l8 -204l-223 -15l22 -182h320l12 162z" />
    <glyph glyph-name="afii10102" unicode="&#x455;" horiz-adv-x="1157" 
d="M90 287l328 -25l18 -74l359 -6v144q-420 18 -568.5 105.5t-148.5 295.5q0 184 106.5 264t356.5 80q237 0 351 -74.5t138 -242.5q-119 5 -184 6.5t-123 1.5l-27 86h-319v-146q408 -15 562.5 -101.5t154.5 -287.5q0 -179 -133 -279t-373 -100q-243 0 -370.5 88t-127.5 257
v8z" />
    <glyph glyph-name="afii10103" unicode="&#x456;" horiz-adv-x="621" 
d="M352 1090q-93 0 -162 61.5t-69 144.5q0 82 67 151t138 69q80 0 149.5 -63.5t69.5 -139.5q0 -88 -56 -155.5t-137 -67.5zM90 -10l31 395q4 48 6 93.5t2 88.5q0 19 -1 48t-1 40l-8 303l381 27l-6 -461l8 -559z" />
    <glyph glyph-name="afii10104" unicode="&#x457;" horiz-adv-x="621" 
d="M500 1159q-71 0 -104.5 35.5t-33.5 110.5q0 65 41.5 106t110.5 41q71 0 106 -34.5t35 -104.5q0 -72 -41.5 -113t-113.5 -41zM0 1300q0 65 41 108.5t102 43.5q77 0 113.5 -36.5t36.5 -112.5q0 -63 -45 -103.5t-115 -40.5q-51 0 -92 42t-41 99zM90 -10l31 395q4 48 6 93.5
t2 88.5q0 19 -1 48t-1 40l-8 303l381 27l-6 -461l8 -559z" />
    <glyph glyph-name="afii10105" unicode="&#x458;" horiz-adv-x="649" 
d="M-12 -195h162l-13 1190l398 4l-13 -688q1 -131 2.5 -279.5t1.5 -164.5q0 -186 -97 -275.5t-300 -89.5q-33 0 -69.5 5t-71.5 14v284zM354 1092q-103 0 -170 65t-67 166q0 84 71.5 149.5t155.5 65.5q101 0 176.5 -69.5t75.5 -155.5q0 -82 -73.5 -151.5t-168.5 -69.5z" />
    <glyph glyph-name="afii1016" unicode="&#x459;" horiz-adv-x="1712" 
d="M170 970l473 -7l373 12l-8 -270l6 -158q49 6 93.5 9t84.5 3q210 0 316 -77t106 -230q0 -149 -107.5 -224t-322.5 -75q-27 0 -107 2q-32 1 -51 2l-342 -4l18 285l-26 501l-180 -2l-6 -117q-17 -403 -80 -516q-41 -70 -117.5 -107.5t-181.5 -37.5q-28 0 -54 2t-51 6l6 207
q92 0 126 81t34 435q0 85 -0.5 150t-1.5 130zM1006 109q61 1 116 5.5t105 12.5l-4 250l-226 6z" />
    <glyph glyph-name="afii10107" unicode="&#x45a;" horiz-adv-x="1769" 
d="M1047 549q52 6 99.5 9t90.5 3q220 0 329 -77t109 -232q0 -149 -108 -224t-320 -75q-26 0 -155 7t-233 9l-175 -6l18 182l7 230l-203 2l-39 -414l-367 14l15 392l-13 612l336 12l-12 -401h272l-8 135l-22 236l381 14l-9 -281zM1040 109q63 3 121.5 7.5t114.5 10.5l-6 250
l-240 6z" />
    <glyph glyph-name="afii10108" unicode="&#x45b;" horiz-adv-x="1229" 
d="M121 33l6 780l-8 344l-135 -4l2 164l131 -2l-2 178q86 -9 185.5 -13.5t227.5 -4.5l-8 -158l303 2v-168l-303 2v-276q78 68 152.5 100.5t154.5 32.5q139 0 208 -82.5t69 -249.5v-711l-375 -6l8 340l-28 385l-275 -8l12 -674z" />
    <glyph glyph-name="afii10109" unicode="&#x45c;" horiz-adv-x="1337" 
d="M127 502l-23 506l404 24l10 -407l385 407l400 -12l-336 -377l356 -614q-87 -3 -196 -17.5t-242 -40.5l-234 461l-159 -174l2 -268l-367 -4v516zM682 1532l168 2l125 8l-305 -368h-174z" />
    <glyph glyph-name="afii10110" unicode="&#x45e;" horiz-adv-x="1110" 
d="M-25 1028l422 10l138 -405q22 -64 38.5 -136t28.5 -157l121 459l49 264l309 -35q-179 -553 -334 -1090q-22 -79 -28 -98q-4 -11 -10 -30q-61 -197 -160 -263q-42 -27 -103 -42t-133 -15q-172 0 -259 77t-87 230q0 23 6 83q2 14 2 20l304 -35l-17 -137l115 -9l43 220
l-314 759zM418 1384q27 -17 62 -25.5t77 -8.5q43 0 77.5 8t65.5 26q0 2 -1 6q-13 41 -13 56q0 40 24.5 65t63.5 25q48 0 80.5 -35.5t32.5 -87.5q0 -93 -93.5 -160t-230.5 -67q-148 0 -245 70.5t-97 170.5q0 49 29 76t82 27q46 0 72 -23.5t26 -64.5q0 -13 -3 -28t-9 -30z" />
    <glyph glyph-name="afii10193" unicode="&#x45f;" horiz-adv-x="1284" 
d="M1155 590l14 -608h-364l10 -236l-373 -29l9 260l-355 -14l13 483l-5 519l340 8l-12 -156l8 -624l357 16l14 776l363 -12z" />
    <glyph glyph-name="afii10050" unicode="&#x490;" horiz-adv-x="1370" 
d="M115 -57l32 858l-36 635l827 39l-6 221l399 28l-8 -258l-4 -292l-373 -9l-352 -22l-12 -1178z" />
    <glyph glyph-name="afii10098" unicode="&#x491;" horiz-adv-x="1006" 
d="M90 -37l27 549l-27 459l582 26l-6 164l313 4v-170l-2 -280l-285 -4l-192 -17l-13 -717z" />
    <glyph glyph-name="longdash" unicode="&#x2015;" 
d="M358 412l-16 221q14 0 43 -1q664 -7 979 -7q75 0 160 1.5t182 3.5v-220l-500 -19q-229 7 -521 11t-327 10z" />
    <glyph glyph-name="numero" unicode="&#x2116;" horiz-adv-x="1794" 
d="M1073 270l-18 209q190 -3 295 -4.5t133 -1.5q25 0 112 2q53 2 82 2l-2 -208q-95 -4 -181 -5.5t-161 -1.5q-83 0 -146 2t-114 6zM1354 1452q171 0 280 -138t109 -360q0 -174 -105.5 -288.5t-261.5 -114.5q-165 0 -267.5 129.5t-102.5 341.5q0 194 95.5 312t252.5 118z
M1450 1235l-176 -23l-35 -376q45 -20 103.5 -29.5t134.5 -9.5zM72 -18q10 384 15 761t5 746h291l276 -739q15 -42 33 -112.5t35 -152.5v172q0 202 -2.5 397t-7.5 394l205 -4l-4 -858l-3 -604q-44 4 -81.5 6t-65.5 2q-32 0 -111 -4h-18q-168 414 -245 641.5t-109 394.5
l-13 -1040h-200z" />
    <glyph glyph-name="c8074.001" horiz-adv-x="696" 
d="M119 801l16 180l207 16l24 129q-23 -5 -40.5 -7.5t-30.5 -2.5q-87 0 -140 55.5t-53 147.5q0 103 61.5 162t170.5 59q57 0 108.5 -20.5t102.5 -63.5q28 -24 41.5 -73t13.5 -128q0 -136 -46 -250.5t-112 -150.5q-47 -26 -122 -38.5t-201 -14.5z" />
    <glyph glyph-name="sfthyphen" unicode="&#xad;" horiz-adv-x="664" 
d="M584 373q-20 0 -46.5 1t-33.5 1t-121 -5t-223 -5h-82l-6 286q57 6 122 8t154 3q80 0 138 -2.5t106 -8.5z" />
    <glyph glyph-name="U037e" unicode="&#x37e;" horiz-adv-x="696" 
d="M592 809q0 -85 -74.5 -153t-173.5 -68q-107 0 -178.5 68t-71.5 171q0 100 64 168t159 68q123 0 199 -71t76 -183zM162 -305l-10 182l221 14l-2 127h-6q-131 0 -205 56.5t-74 154.5q0 95 68 169.5t149 74.5q83 0 158.5 -39t109.5 -98q17 -29 28 -93.5t11 -142.5
q0 -209 -89 -309t-275 -100q-15 0 -31.5 0.5t-52.5 3.5z" />
    <glyph glyph-name="U2215" unicode="&#x2215;" horiz-adv-x="371" 
d="M-342 2l508 852l379 711l166 -56l-471 -811l-70 -118l-338 -652z" />
    <glyph glyph-name="c6461.001" horiz-adv-x="459" 
d="M23 831l6 173l192 14l22 125q-29 -5 -43.5 -6.5t-25.5 -1.5q-78 0 -126 53t-48 139q0 101 58 157t163 56q115 0 176.5 -70t61.5 -202q0 -128 -44 -239.5t-104 -145.5q-41 -24 -103.5 -36t-184.5 -16z" />
    <glyph glyph-name="c6462" horiz-adv-x="649" 
d="M-12 -195h162l-13 1190l398 4l-13 -688q0 -97 2 -248t2 -204q0 -180 -98 -268.5t-299 -88.5q-32 0 -67.5 5t-73.5 14v284z" />
    <glyph glyph-name="c6464" horiz-adv-x="418" 
d="M158 1532l135 2l125 8l-246 -368h-172z" />
    <glyph glyph-name="c6469" horiz-adv-x="1024" 
d="M684 1210q-70 0 -103.5 36t-33.5 112q0 65 41 105t110 40q72 0 107 -33.5t35 -103.5q0 -72 -42 -114t-114 -42zM182 1354q0 64 42 107.5t104 43.5q76 0 112.5 -36t36.5 -113q0 -63 -45 -104.5t-115 -41.5q-51 0 -93 43t-42 101z" />
    <glyph glyph-name="c6470" horiz-adv-x="1024" 
d="M524 1532l168 2l125 8l-305 -368h-174z" />
    <glyph glyph-name="c6471" horiz-adv-x="1024" 
d="M375 1384q27 -17 62 -25.5t77 -8.5q43 0 77.5 8t65.5 26q0 2 -1 6q-13 41 -13 56q0 40 24.5 65t63.5 25q48 0 80.5 -35.5t32.5 -87.5q0 -93 -93.5 -160t-230.5 -67q-148 0 -245 70.5t-97 170.5q0 49 29 76t82 27q46 0 72 -23.5t26 -64.5q0 -13 -3 -28t-9 -30z" />
    <glyph glyph-name="exclam" unicode="!" horiz-adv-x="1585" 
d="M860 -63q-63 22 -113.5 58t-82 79t-43 90t5.5 90q14 43 51 73.5t89 45t113.5 11.5t125.5 -24q63 -22 113 -58t82 -79t42 -90t-4 -90t-51 -72.5t-89 -45t-113.5 -13.5t-125.5 25zM1253 416q-53 37 -121.5 60.5t-146.5 29.5q-76 6 -144.5 -5.5t-125.5 -37.5l108 1417
l607 25z" />
    <glyph glyph-name="dollar" unicode="$" horiz-adv-x="1313" 
d="M1303 586q4 -117 -31 -213.5t-101.5 -169t-162 -122.5t-207.5 -77v-205l-391 -14l53 192q-119 11 -238 47.5t-215 84.5l156 436l74 -32t92 -35.5t101 -29t104 -10.5q75 4 127.5 26.5t50.5 76.5q-2 34 -35 52.5t-82 37.5q-31 8 -80 22.5t-106.5 39t-116.5 59t-107.5 84
t-79 115t-32.5 147.5q-4 116 31.5 213.5t99 171t153 125t193.5 78.5v200l391 15l-51 -191q92 -6 180 -24.5t166 -51.5l-121 -473q-82 35 -149.5 58.5t-157.5 35.5q-27 5 -70 5t-86 -8.5t-73.5 -29t-32.5 -57.5q0 -16 15.5 -25.5t37 -15.5t45 -9t35.5 -5q59 -12 93 -20.5
l34 -8.5q57 -12 111 -34q63 -27 129.5 -64t121 -91t91 -129t41.5 -177z" />
    <glyph glyph-name="percent" unicode="%" horiz-adv-x="1959" 
d="M893 1132q-47 -49 -127.5 -79.5t-167.5 -32.5t-170.5 30.5t-133.5 116.5q-56 92 -54.5 184t46 171.5t123 138.5t178.5 88q64 17 121 15t105 -17.5t83 -41t53 -51.5q34 -50 53.5 -111.5t16.5 -130.5t-32 -140.5t-94 -139.5zM729 1489q-23 40 -62.5 45.5t-76 -17.5
t-63 -70.5t-19.5 -112.5q3 -60 30 -86t60 -26q36 0 69.5 22t50.5 55q36 67 32 113.5t-21 76.5zM1472 1741l315 -143l-1449 -1537l-273 124zM1405 101q-47 -49 -127.5 -79.5t-167.5 -32.5t-170.5 30.5t-133.5 116.5q-56 92 -54.5 184t46 171.5t123 138.5t178.5 88
q64 17 121 15t105 -17.5t83 -41t53 -51.5q34 -50 53.5 -111.5t16.5 -130.5t-32 -140.5t-94 -139.5zM1241 458q-23 40 -62.5 45.5t-76 -17.5t-63 -70.5t-19.5 -112.5q3 -60 30 -86t60 -26q36 0 69.5 22t50.5 55q36 67 32 113.5t-21 76.5z" />
    <glyph glyph-name="ampersand" unicode="&#x26;" horiz-adv-x="1731" 
d="M1157 172q-117 -92 -236.5 -136t-267.5 -54q-121 -11 -237.5 4.5t-210.5 65.5t-155.5 140.5t-72.5 229.5q-6 90 18.5 166t74 134t117 99t147.5 64q-76 59 -122 130.5t-54 170.5q-11 121 36.5 211t128 150.5t184 94t208.5 41.5q98 9 205.5 -6.5t198.5 -59.5t153.5 -122
t73.5 -192q6 -72 -12.5 -142.5t-56.5 -132t-92.5 -110t-119.5 -72.5l160 -139q71 55 124.5 125.5l106.5 142.5l338 -326l-240 -215l177 -137l-437 -307zM686 1217q2 -35 30.5 -71t59.5 -50q19 12 37 27.5t33.5 35t24 41t6.5 43.5q-3 35 -31.5 63.5t-65.5 24.5
q-45 -4 -71.5 -36.5t-22.5 -77.5zM598 637q-33 -25 -61.5 -55.5t-24.5 -77.5q4 -64 50 -90.5t106 -20.5q47 4 80.5 19.5t72.5 36.5z" />
    <glyph glyph-name="quotesingle" unicode="'" horiz-adv-x="522" 
d="M440 1888l-243 -313l-86 29l172 413z" />
    <glyph glyph-name="parenleft" unicode="(" horiz-adv-x="827" 
d="M729 1780q-147 -226 -222 -418.5t-105.5 -331.5t-32.5 -218l-2 -79l10 -74.5t48 -193.5t113.5 -263.5t206.5 -283.5l-100 -72q-133 115 -222 241t-139.5 237.5t-77 207t-32.5 146.5t-6 55l3 88t43 242t135 359.5t278 443.5z" />
    <glyph glyph-name="parenright" unicode=")" horiz-adv-x="791" 
d="M96 -68q148 228 222.5 419.5t105.5 330.5t33 218l2 79l-10.5 74.5t-48.5 193.5t-113.5 263.5t-206.5 283.5l100 72q133 -115 222.5 -241t139.5 -237.5t76.5 -207t32.5 -146.5t6 -55l-3 -88t-43 -240.5t-135 -359.5t-277 -445z" />
    <glyph glyph-name="plus" unicode="+" horiz-adv-x="1581" 
d="M1460 977l-39 -426l-475 -4l-22 -389l-387 -39l4 426l-437 -2l39 387l400 14l4 492l454 65l-30 -543z" />
    <glyph glyph-name="comma" unicode="," horiz-adv-x="485" 
d="M389 109l-244 -316l-86 29l172 416z" />
    <glyph glyph-name="hyphen" unicode="-" horiz-adv-x="934" 
d="M154 825l649 29l-21 -274l-647 10z" />
    <glyph glyph-name="period" unicode="." horiz-adv-x="449" 
d="M82 63l14 175l215 -13l-41 -215z" />
    <glyph glyph-name="slash" unicode="/" horiz-adv-x="1057" 
d="M836 1718l278 -143l-823 -1561l-244 43z" />
    <glyph glyph-name="zero" unicode="0" horiz-adv-x="1384" 
d="M1161 209q-55 -74 -137 -133.5t-179 -93t-201.5 -37.5t-204 29.5t-184.5 110.5t-144 206q-66 143 -86.5 287.5t-2 280.5t70.5 260t131 226.5t180.5 180.5t218.5 121q110 43 211.5 35.5t183.5 -44t143.5 -95t91.5 -120.5q60 -114 95.5 -260.5t31.5 -306.5t-55 -325.5
t-164 -321.5zM872 1042q-38 91 -107 102t-134.5 -41t-111.5 -162t-36 -261q9 -141 56 -201.5t106 -60.5q62 0 120 49t89 127q31 80 43 146.5t11 122t-11 100.5t-25 79z" />
    <glyph glyph-name="one" unicode="1" horiz-adv-x="1061" 
d="M195 999l-201 258l403 383l566 58l-78 -1725l-502 66l-6 1114z" />
    <glyph glyph-name="two" unicode="2" horiz-adv-x="1380" 
d="M1309 1421q84 -149 59 -279t-117 -243t-227 -210t-272 -183l555 63l-13 -518l-1214 -61l-2 313q-15 51 14 112.5t84 128t129 135.5l152 136.5l150.5 130t125.5 114.5t79 93t9 64q-24 32 -94 13.5t-155 -64.5t-172 -107.5t-146 -114.5l-274 395q190 181 356 272t300 115.5
t243.5 2t188.5 -71.5t134 -103.5t80 -92.5t27 -40z" />
    <glyph glyph-name="three" unicode="3" horiz-adv-x="1307" 
d="M1028 934q135 -80 196.5 -179.5t74 -194.5t-4 -179t-37 -130t-22.5 -50l-27.5 -40t-88 -88t-158 -86t-235.5 -33t-321.5 69.5t-414.5 220.5l301 430q147 -107 239.5 -140.5t143.5 -30.5t69.5 22.5l18.5 19.5q0 2 8 23.5t4 54t-33.5 61.5t-103.5 44t-205 3l23 350
q139 -12 197.5 7.5t71.5 49t1 55.5l-12 26l-21.5 20.5t-74 25.5t-141.5 -20.5t-222 -118.5l-201 373q201 141 373 189.5t301 39t222 -49.5t137 -75.5l49 -39.5q2 -2 30.5 -38t58 -101.5t33 -145.5t-47 -170t-181.5 -174z" />
    <glyph glyph-name="four" unicode="4" horiz-adv-x="1235" 
d="M676 1714l502 -155l-766 -721h209l6 118h471l-21 -120l183 32l-29 -475l-182 -2l-23 -375l-522 -22l37 393l-508 -39l-43 682z" />
    <glyph glyph-name="five" unicode="5" horiz-adv-x="1169" 
d="M449 1104q110 31 233 20.5t227.5 -59.5t176 -135t79.5 -209v-45q0 -41 -15 -112.5t-52 -153.5t-110 -163t-188.5 -142.5t-289.5 -92t-412 -12.5l-92 479q160 -35 269.5 -25.5t174 43t100.5 76.5t46 73t10 32q8 39 -15.5 62.5t-67.5 34.5t-102.5 12t-119.5 -6
t-122.5 -23.5t-108.5 -36.5l69 883l973 47l10 -408l-622 6l-51 -145v0z" />
    <glyph glyph-name="six" unicode="6" horiz-adv-x="1149" 
d="M1042 977q125 -135 141.5 -276.5t-41 -269.5t-170 -231.5t-246.5 -163t-271.5 -62.5t-241.5 69q-2 2 -40 35t-88 102.5t-86 172t-33 242.5t70.5 313t223.5 385t426 456l313 -303q-79 -64 -148 -130.5t-119 -121.5t-78.5 -90l-28.5 -35q65 35 127.5 36t114 -16.5t92 -44
t61 -46zM641 434q68 41 97.5 108.5t4.5 127.5q-24 59 -90.5 71.5t-134.5 -26.5q-67 -41 -97 -108.5t-5 -127.5q24 -59 89.5 -71.5t135.5 26.5z" />
    <glyph glyph-name="seven" unicode="7" horiz-adv-x="1104" 
d="M1147 1690l-182 -627l133 4l-66 -373l-145 -6l-168 -696l-563 65l192 615l-164 -6l23 364l256 14l80 195l-531 -63l-28 450z" />
    <glyph glyph-name="eight" unicode="8" horiz-adv-x="1237" 
d="M1135 862q45 -74 68.5 -166t11 -192.5t-67.5 -201.5t-166 -193q-53 -46 -130 -78.5t-165 -50t-181 -15.5t-179 27.5t-158 77t-117 133.5q-49 92 -59 182t13.5 174t75.5 159t128 136q-43 39 -70 90q-67 125 -55 246t84 221t190.5 174t264.5 105q92 18 171.5 11
t144.5 -30.5t111 -58.5t68 -72q37 -59 58.5 -131t18.5 -150.5t-35 -160.5t-99 -160q47 -33 74 -76zM729 1292q-18 37 -56 43t-76 -13t-67.5 -61t-29.5 -104q0 -57 24.5 -82.5t57 -26.5t66.5 17t54 49q39 62 39 105q0 45 -12 73zM698 379q54 82 54 139t-19 96
q-24 50 -74.5 59t-100.5 -16.5t-89 -83t-39 -137.5q0 -76 32 -109.5t76 -35.5t89 22.5t71 65.5z" />
    <glyph glyph-name="nine" unicode="9" horiz-adv-x="1163" 
d="M117 702q-94 101 -125 207.5t-15.5 208t71.5 194.5t137 168.5t180.5 130t202 79t200.5 13.5t176 -67q2 -2 40 -34.5t88 -102t86 -172t34 -243t-69.5 -313.5t-223.5 -385t-426 -456l-315 306q80 63 149.5 129.5t119.5 121t79 89l29 34.5q-66 -35 -128.5 -36t-113.5 16.5
t-92 44.5t-61.5 46t-22.5 21zM518 1245q-67 -41 -98 -108.5t-4 -126.5q24 -58 89.5 -71t133.5 28q68 39 98.5 107.5t5.5 125.5q-26 60 -91.5 72t-133.5 -27z" />
    <glyph glyph-name="colon" unicode=":" horiz-adv-x="365" 
d="M14 63l13 175l215 -13l-41 -215zM94 768l15 193l237 -15l-45 -237z" />
    <glyph glyph-name="semicolon" unicode=";" horiz-adv-x="428" 
d="M305 109l-244 -316l-86 29l172 416zM174 397l12 174l215 -12l-39 -215z" />
    <glyph glyph-name="equal" unicode="=" horiz-adv-x="1419" 
d="M45 436l1317 47l-39 -426l-1317 -8zM92 1065l1317 47l-39 -424l-1315 -10z" />
    <glyph glyph-name="question" unicode="?" horiz-adv-x="1485" 
d="M733 -53q-63 -23 -124.5 -25t-113 12.5t-89 45t-52.5 73.5q-14 43 -3 90t43 90t82 78t114 58q63 22 124.5 24t113 -12t88 -45t53.5 -74q14 -43 3 -90t-43 -90t-82 -79t-114 -56zM2 1505q207 197 384 299.5t319.5 134t257 13t196.5 -64.5t137.5 -99t81 -91t27.5 -40
q72 -127 62.5 -239.5t-72 -213t-165 -188.5t-219 -168t-232 -150.5t-206 -135t-139.5 -124t-33 -114.5l-335 260q-19 51 13 110.5t93 123t145 128l173.5 128l173.5 121.5t146 107.5t93 88.5t15 61q-17 23 -54 20.5t-87 -20.5t-108.5 -49t-115.5 -69t-110.5 -79t-92.5 -75z
" />
    <glyph glyph-name="at" unicode="@" horiz-adv-x="1602" 
d="M1174 690q-5 -18 -10 -43.5t-5 -48.5q0 -20 8.5 -34.5t32.5 -12.5q29 2 62.5 34.5t63.5 85t50.5 118t24.5 135.5q6 135 -35 237.5t-119 170t-185.5 102t-232.5 34.5q-137 0 -248.5 -46t-191.5 -130t-123 -200.5t-43 -257.5q0 -148 48 -265.5t134.5 -198.5t204 -124
t256.5 -43q138 0 238 18.5t153 50.5l-32 -204l-90.5 -47.5t-66.5 -23.5t-82 -9t-136 -2q-176 0 -329.5 63.5t-268.5 177t-180.5 268t-65.5 339.5q0 182 64.5 337.5t177 270t264.5 179.5t326 65q143 0 272 -45.5t238 -143.5q110 -98 176.5 -222t66.5 -278
q0 -135 -34.5 -251.5t-100.5 -202.5q-78 -105 -167 -149t-167 -40q-47 2 -85 37t-50 86q-43 -47 -111.5 -85t-166.5 -38q-72 0 -138.5 32t-118 85t-81 126t-29.5 155q0 98 32 191t89 166t139 116t184 43q84 0 149.5 -23.5t115.5 -93.5l16 70h215zM762 584q49 0 86 21.5
t61.5 56t38 75.5t17.5 82q12 94 -32 151.5t-124 57.5q-47 0 -86 -21.5t-67.5 -57.5t-44 -80t-15.5 -87q0 -39 11 -74.5t31.5 -63.5t51.5 -44t72 -16z" />
    <glyph glyph-name="A" unicode="A" horiz-adv-x="1741" 
d="M809 1788l1034 -1573l-643 -244l-172 287l-430 -14l-84 -307l-616 200zM705 569l243 43l-102 279z" />
    <glyph glyph-name="B" unicode="B" horiz-adv-x="1411" 
d="M66 1599q288 56 475.5 74.5t296 17.5t151.5 -10.5l43 -9.5l42 -19.5t95.5 -57.5t101.5 -96t59 -135t-31 -173t-166 -213q172 -90 244.5 -193.5t79.5 -204t-30.5 -192.5t-88 -161.5t-92.5 -111.5l-42 -42q-2 -2 -27.5 -17.5t-100.5 -37t-199.5 -36t-323.5 -13.5t-473 32z
M803 1141l1 23.5t-14.5 45t-56.5 28.5t-123 -26l-8 -215q64 -10 103.5 11.5t61 51.5t29 55.5zM911 563q0 2 -3 22.5t-18.5 48.5t-50 44t-97 10t-160.5 -53l26 -215q113 -10 175.5 10.5t90 50t32.5 56z" />
    <glyph glyph-name="C" unicode="C" horiz-adv-x="1532" 
d="M1470 1380l-358 -440q-111 117 -193.5 149.5t-143 15t-101.5 -71.5t-65.5 -110.5t-35 -101.5l-10.5 -45q0 -4 9.5 -53t43 -109.5t96 -89t170 8t265.5 182.5l399 -426q-30 -60 -106 -121.5t-180.5 -112.5t-229.5 -84.5t-255 -39t-256 27.5t-232 115q-154 119 -227.5 262
t-88 294.5t23.5 303t106.5 285t161.5 240t190 169.5l41 22.5t112.5 44t168.5 31t211 -18.5t238 -103.5t246 -223.5z" />
    <glyph glyph-name="D" unicode="D" horiz-adv-x="1475" 
d="M86 1602q371 71 548 92.5l177 21.5q172 27 305 -13t225.5 -128t141.5 -215t55 -272.5t-32 -300t-123 -299t-217 -268.5t-312 -208l-36 -11t-121 -20.5t-226 -7.5t-352 29zM614 467q117 27 190 81t109.5 112.5t52 116t15.5 89.5v37q0 4 -6 40t-26.5 85t-57.5 81
t-100.5 25.5t-155.5 -79.5z" />
    <glyph glyph-name="E" unicode="E" horiz-adv-x="1212" 
d="M72 1585l1130 84l-63 -518l-514 -23l-2 -98l372 27l-43 -359l-342 -26l-4 -113l586 55l-10 -565l-1096 -59z" />
    <glyph glyph-name="F" unicode="F" horiz-adv-x="1118" 
d="M76 1587l1132 82l-63 -532l-516 -21l-23 -160l430 27l29 -430l-432 -27l-21 -524l-522 -12z" />
    <glyph glyph-name="G" unicode="G" horiz-adv-x="1669" 
d="M1202 1016q-28 69 -90.5 101t-140.5 32q-76 0 -158 -33t-149.5 -92t-111.5 -145t-44 -195q-2 -100 31.5 -160.5t86 -87t116 -23.5t125 30.5t111.5 73.5t75 106l-291 -56l33 330l893 113q18 -129 -11.5 -255t-82 -230.5t-110 -187.5t-95 -126t-41.5 -47
q-74 -74 -179.5 -129t-226.5 -84t-250 -26t-245.5 45t-216 128t-160.5 224q-70 153 -80 305.5t24.5 295t111.5 269.5t184.5 228.5t240.5 173t280 102.5q5 0 44.5 5t115.5 1t170 -29.5t205 -86t219 -167.5z" />
    <glyph glyph-name="H" unicode="H" horiz-adv-x="1477" 
d="M27 1612l598 57l-72 -751l303 22l25 715l583 28l-166 -1581l-475 -57l27 451l-215 -31l-21 -471l-510 -10z" />
    <glyph glyph-name="I" unicode="I" horiz-adv-x="760" 
d="M700 1683l-84 -1656l-538 -62l20 1647z" />
    <glyph glyph-name="J" unicode="J" horiz-adv-x="1190" 
d="M1098 1692q12 -328 17 -554.5t6 -360.5t-2 -206.5t-5 -94l-2 -21.5q-12 -52 -42 -119.5t-80 -135t-121.5 -127t-168 -92t-217.5 -30.5t-268 57l-43 23.5t-90 86t-78 171t-8 278.5l450 144q-20 -107 -19 -169.5t12.5 -90t27.5 -33.5t27.5 -2t13.5 4q2 2 20.5 18.5t37 59.5
t14.5 110l-68 981z" />
    <glyph glyph-name="K" unicode="K" horiz-adv-x="1303" 
d="M1389 1296l-572 -530l504 -424l-287 -430l-397 375l-4 -260l-537 -62l-33 1647l601 71l-7 -370l330 456z" />
    <glyph glyph-name="L" unicode="L" horiz-adv-x="1147" 
d="M82 1602l616 86l-53 -1153l502 104l24 -576l-1075 -108z" />
    <glyph glyph-name="M" unicode="M" horiz-adv-x="1808" 
d="M432 1772l502 -633l483 499l502 -1380l-494 -403l-223 665l-278 -487l-336 516l-199 -606l-477 309z" />
    <glyph glyph-name="N" unicode="N" horiz-adv-x="1561" 
d="M104 1669l783 -649l18 678l611 -41l-95 -1563l-784 391l29 -483l-588 -37z" />
    <glyph glyph-name="O" unicode="O" horiz-adv-x="1565" 
d="M1309 168q-74 -74 -179.5 -129t-226.5 -84t-249 -27t-245.5 44t-216 128t-159.5 224q-70 153 -83 304.5t19.5 292t106.5 265.5t178 226t234 175t278 113q139 35 261 21.5t220.5 -58.5t167 -109.5t103.5 -130.5q63 -123 95 -277.5t14.5 -320.5t-93.5 -334.5t-225 -322.5z
M1036 1040q-30 66 -86.5 94.5t-122 24.5t-133 -38t-123 -94t-91.5 -146t-36 -191q-2 -98 28 -159.5t76 -91t105.5 -33t117.5 17t109.5 60.5t86.5 94q51 79 74.5 148t28.5 126t-5 104.5t-29 83.5z" />
    <glyph glyph-name="P" unicode="P" horiz-adv-x="1311" 
d="M831 1681q173 19 292.5 -23t190 -124t95.5 -195.5t4.5 -237.5t-82 -250t-163 -233.5t-239.5 -186.5t-311 -112l-8 -368l-495 51l-33 1600q389 45 569 62zM864 1044q0 3 2 23t-6 49t-34.5 48.5t-85 18.5t-156.5 -40l-21 -328q74 16 128 47t91 66t57.5 66.5t24.5 49.5z" />
    <glyph glyph-name="Q" unicode="Q" horiz-adv-x="1585" 
d="M1511 1423q60 -114 91.5 -255.5t22.5 -294t-66.5 -310t-176.5 -305.5l95 -92l-303 -301l-107 145q-129 -57 -280.5 -75.5t-296 13.5t-268.5 123t-197 253q-103 231 -83.5 453t128 408.5t290 321.5t400.5 193q139 35 261 21.5t220 -58.5t167 -109.5t103 -130.5zM438 690
q0 -98 29 -159.5t75 -92t104.5 -33t117.5 18.5l-47 63l172 252l106 -104q37 67 53.5 126.5t17.5 111t-9 92.5t-27 75q-31 66 -87 94.5t-121.5 24.5t-133 -38t-123 -94t-91.5 -146t-36 -191z" />
    <glyph glyph-name="R" unicode="R" horiz-adv-x="1372" 
d="M1417 293l-317 -359l-498 367l-6 -350l-496 51l-32 1600q389 45 569 62l180 17q193 21 321 -28t194.5 -142.5t75.5 -217.5t-36 -254t-142 -252.5t-241 -213.5zM571 1143l-20 -328q74 16 128 47t91 66t56.5 66.5t23.5 49.5q0 3 2 23t-5 49t-35 48.5t-85 18.5t-156 -40z
" />
    <glyph glyph-name="S" unicode="S" horiz-adv-x="1210" 
d="M864 1028q64 -29 130.5 -65.5t120.5 -90t90 -128t40 -177.5q6 -145 -47 -256.5t-150.5 -188.5t-232.5 -119t-291 -48q-71 -2 -147 7t-149.5 27.5t-143.5 44t-131 54.5l156 438q30 -12 73 -31.5t92.5 -36t102.5 -28.5t104 -10q76 4 128.5 26.5t49.5 75.5q-2 35 -35.5 53.5
t-80.5 36.5l-81 23t-107.5 38.5t-116 59.5t-106.5 84t-80 113.5t-34 148.5q-4 144 49.5 255.5t145.5 190.5t215 121t262 48q129 6 256 -13.5t238 -64.5l-121 -473q-82 35 -149.5 58.5t-157.5 35.5q-27 4 -72 4q-43 0 -85 -9t-72.5 -29.5t-32.5 -57.5q0 -17 15 -26t36.5 -14
t44 -8l37.5 -5l93 -21l34 -8q57 -12 110 -35z" />
    <glyph glyph-name="T" unicode="T" horiz-adv-x="1067" 
d="M1061 1219l-246 -29v-1153l-582 -72l31 1170l-270 -27l14 504l1106 94z" />
    <glyph glyph-name="U" unicode="U" horiz-adv-x="1319" 
d="M1266 1618q12 -313 17 -503.5t7 -293t2 -135.5v-33q2 -125 -18.5 -239.5t-74.5 -207.5t-147.5 -159.5t-232.5 -93.5q-213 -41 -366.5 -8.5t-253 123t-144.5 228.5t-41 304v21q0 20 2 85.5t4.5 184.5t8.5 317.5l14 483.5l586 -103l-54 -962q-8 -54 1.5 -94.5t19.5 -59
t12 -20.5q21 -23 47.5 -27t59.5 49q2 2 12 25.5t20.5 83t6.5 145.5l-43 787z" />
    <glyph glyph-name="V" unicode="V" horiz-adv-x="1532" 
d="M485 1712l301 -721l351 705l510 -295l-902 -1546l-843 1513z" />
    <glyph glyph-name="W" unicode="W" horiz-adv-x="2017" 
d="M-86 1493l557 242l217 -670l371 569l309 -536l246 733l471 -338l-508 -1505l-510 522l-526 -664z" />
    <glyph glyph-name="X" unicode="X" horiz-adv-x="1651" 
d="M436 1714l402 -411l379 411l458 -344l-485 -504l496 -506l-392 -419l-465 583l-372 -602l-467 391l467 525l-477 532z" />
    <glyph glyph-name="Y" unicode="Y" horiz-adv-x="1436" 
d="M317 1704l363 -569l393 569l502 -344l-625 -807l-6 -590l-551 74v602l-516 721z" />
    <glyph glyph-name="Z" unicode="Z" horiz-adv-x="1673" 
d="M68 -63l497 1206l-598 -39l115 536l1522 50l-695 -1153l770 94l-102 -596z" />
    <glyph glyph-name="a" unicode="a" horiz-adv-x="1235" 
d="M715 139h-4q-56 -78 -141 -108.5t-183 -30.5q-82 0 -155.5 29.5t-129 85t-88 133.5t-32.5 174q0 84 32.5 154.5t89 123t133 82t166.5 29.5q95 0 159.5 -27.5t109.5 -62.5v61q0 95 -61.5 125.5t-159.5 30.5q-91 0 -168.5 -18.5t-157.5 -42.5l80 325q98 29 204.5 40
t217.5 11q100 0 196.5 -23.5t169 -76.5t115.5 -137t41 -207l-23 -774l-411 -35v139zM455 518q-70 -10 -115 -48t-39 -85q8 -47 58.5 -70.5t129.5 -11.5q80 12 119 51t31 84q-6 39 -52 66.5t-132 13.5z" />
    <glyph glyph-name="b" unicode="b" horiz-adv-x="1311" 
d="M797 1243q123 0 225 -53t178 -140t118 -198t42 -225q0 -154 -52.5 -272.5t-138.5 -199.5t-199.5 -123t-236.5 -42q-94 0 -177 32.5t-155 69.5v-88h-323l-12 1651l473 37l-19 -533q64 35 123 59.5t154 24.5zM760 418q49 14 84 39.5t56.5 58.5t27.5 70t-4 73
q-11 37 -35.5 65t-60 45t-79.5 20.5t-94 -11.5q-49 -14 -84.5 -40.5t-57 -59.5t-28 -70t3.5 -73q11 -37 35.5 -65t60.5 -44t81 -19.5t94 11.5z" />
    <glyph glyph-name="c" unicode="c" horiz-adv-x="1081" 
d="M1110 145q-51 -45 -109.5 -74.5t-120 -48t-125 -25.5t-122.5 -7q-139 0 -257 47t-205 130t-136 194.5t-49 240.5q0 150 51 269.5t142 202.5t216 127t271 44q145 0 252.5 -47t181.5 -96l-271 -354q-28 22 -66 36.5t-77 20.5t-75 4t-58 -14q-39 -21 -66.5 -48.5t-43 -60.5
t-14.5 -70.5t22 -76.5q41 -82 116.5 -100.5t159.5 22.5l104 53l279 -369v0z" />
    <glyph glyph-name="d" unicode="d" horiz-adv-x="1360" 
d="M1233 14l-402 -26v116h-4q-49 -65 -134 -94.5t-171 -29.5q-104 0 -201.5 41.5t-173 120.5t-120.5 194t-45 260q0 131 37.5 246.5t109.5 203t177.5 137.5t240.5 50q67 0 130.5 -17.5t110.5 -58.5l-18 488l471 36zM666 420q45 16 75.5 44t48 61.5t19.5 70.5t-10 72
q-13 32 -38.5 59t-60 42t-76.5 17t-87 -14q-48 -16 -78.5 -45t-48 -62.5t-19.5 -71.5t10 -71q13 -35 38.5 -60.5t60.5 -40.5t76.5 -16.5t89.5 15.5z" />
    <glyph glyph-name="e" unicode="e" horiz-adv-x="1171" 
d="M1167 152q-125 -91 -256 -130.5t-301 -39.5q-139 0 -254.5 48t-199.5 130t-131.5 191.5t-47.5 232.5q0 153 49.5 274t133.5 205t195.5 128t238.5 44q205 0 355.5 -104.5t224.5 -278.5l-613 -461q23 -12 59.5 -16t67.5 -4q94 0 158.5 33.5t118.5 80.5zM729 823
q-29 35 -62.5 47.5t-76.5 12.5q-41 0 -75 -17.5t-58.5 -47.5t-37.5 -66.5t-13 -75.5q0 -37 5 -52.5t13 -31.5z" />
    <glyph glyph-name="f" unicode="f" horiz-adv-x="852" 
d="M166 827h-141l65 353h76q0 110 28.5 200t87 152.5t148.5 97.5t215 35q35 0 62.5 -5t58.5 -9l53 -340h-69q-68 0 -104 -35t-36 -96h176v-353h-176l13 -811l-459 -36z" />
    <glyph glyph-name="g" unicode="g" horiz-adv-x="1212" 
d="M197 33q71 -25 144 -41.5t151 -16.5q32 0 65 4.5t59.5 17.5t43 36.5t16.5 62.5t-19.5 64.5t-53.5 41t-77 20.5t-88 5q-53 0 -108.5 -15t-102.5 -40l39 123q-135 65 -209.5 179t-74.5 276q0 84 31.5 173t99 162.5t172 120.5t250.5 47q73 0 128.5 -10t104.5 -26l35 215
l327 -142l-106 -209q66 -63 99.5 -146t33.5 -177q0 -129 -52 -220.5t-155 -158.5q201 -113 201 -340q0 -109 -47 -194t-134 -142t-209 -87t-272 -30q-180 0 -298.5 31t-192.5 55zM592 608q70 15 104.5 58t24.5 96q-12 53 -62.5 77.5t-117.5 10.5q-70 -16 -105 -59t-24 -95
q10 -53 60 -78.5t120 -9.5z" />
    <glyph glyph-name="h" unicode="h" horiz-adv-x="1202" 
d="M508 1094h4q51 67 118.5 97t151.5 30q86 0 152.5 -31t112 -86t69 -130t21.5 -161l-13 -793l-432 -36v747q0 35 -24.5 59.5t-65.5 24.5q-39 0 -66.5 -23.5t-27.5 -64.5v-745l-430 36l-15 1614l459 37z" />
    <glyph glyph-name="i" unicode="i" horiz-adv-x="625" 
d="M82 1161l457 37l-23 -1182l-434 -36v1181zM80 1679l469 21l-25 -361l-446 -32z" />
    <glyph glyph-name="j" unicode="j" horiz-adv-x="803" 
d="M686 115q0 -127 -32.5 -222.5t-94 -159t-148.5 -96t-194 -32.5h-96l-113 375h47q92 0 139.5 38.5t47.5 133.5v1003l444 37v-1077zM684 1335l-446 -35l2 375l469 21z" />
    <glyph glyph-name="k" unicode="k" horiz-adv-x="1184" 
d="M59 1628l465 37l-41 -864h4l195 416l453 -37l-267 -516l308 -474l-426 -210l-267 514h-4l17 -478l-426 -36z" />
    <glyph glyph-name="l" unicode="l" horiz-adv-x="612" 
d="M72 1628l463 37l-19 -1649l-430 -36z" />
    <glyph glyph-name="m" unicode="m" horiz-adv-x="1825" 
d="M1339 729q0 39 -28.5 63.5t-75.5 24.5q-49 0 -78 -30.5t-29 -63.5l13 -700l-445 -37l9 739q2 41 -29 66.5t-80 25.5q-39 0 -73 -24.5t-31 -69.5l20 -739l-430 36l-25 1166l418 37v-189h4q66 88 149 138.5t199 50.5q97 0 161.5 -30t117.5 -93q53 55 120.5 89t149.5 34
q92 0 163 -32t119 -89.5t73.5 -134t27.5 -164.5l13 -780l-445 -37z" />
    <glyph glyph-name="n" unicode="n" horiz-adv-x="1210" 
d="M483 1053h9q67 92 137.5 124.5t154.5 32.5q86 0 151.5 -30.5t111 -86t69 -129t23.5 -159.5v-793l-443 -37l6 746q3 37 -27 61.5t-71 24.5q-39 0 -70.5 -23.5t-31.5 -64.5l8 -739l-436 30l-17 1166l426 34v-157z" />
    <glyph glyph-name="o" unicode="o" horiz-adv-x="1264" 
d="M1276 705q20 -142 -13.5 -264t-108.5 -215t-186.5 -153.5t-248.5 -78.5q-137 -19 -262 8t-223.5 95.5t-164 176t-83.5 248.5q-21 142 13 263.5t108.5 216t186.5 155t249 78.5t261 -8.5t222 -95t163.5 -177t86.5 -249.5zM416 530q35 -79 110.5 -104t171.5 16
q95 41 130.5 112t2.5 151q-34 77 -110 103t-170 -15q-96 -41 -132 -113t-3 -150z" />
    <glyph glyph-name="p" unicode="p" horiz-adv-x="1309" 
d="M489 1225v-140q66 72 136.5 106t169.5 34q123 0 224 -54.5t172 -142.5t109.5 -199.5t38.5 -226.5q0 -123 -41 -236.5t-115.5 -201.5t-179 -141.5t-229.5 -53.5q-63 0 -136 18.5t-130 73.5l12 -407l-432 -37l-22 1571zM768 432q92 43 124 121t-1 145q-33 70 -112 93.5
t-171 -19.5q-94 -45 -126.5 -122t1.5 -146q17 -35 45.5 -58.5t66.5 -34t82 -6t91 26.5z" />
    <glyph glyph-name="q" unicode="q" horiz-adv-x="1305" 
d="M782 -338l13 408q-58 -54 -130.5 -72t-136.5 -18q-127 0 -230 53t-178 140t-116 200.5t-41 236.5q0 115 39 226.5t109.5 199.5t172 142.5t224.5 54.5q98 0 169 -34t136 -105v139l426 -37l-22 -1571zM821 707q-16 34 -46 57.5t-67.5 34t-82.5 6.5t-90 -27
q-93 -43 -124.5 -119.5t1.5 -146.5q32 -68 111 -91.5t171 19.5q94 45 127 122t0 145z" />
    <glyph glyph-name="r" unicode="r" horiz-adv-x="856" 
d="M471 1225v-228h4q53 228 307 228q56 0 105 -6l-107 -437q-14 2 -30 2h-41q-86 0 -148.5 -56t-62.5 -177v-526l-430 -37l-13 1200z" />
    <glyph glyph-name="s" unicode="s" horiz-adv-x="913" 
d="M29 406q55 -17 111.5 -27t121.5 -10q29 0 60.5 1t57.5 6t43 17.5t17 36.5q0 31 -31.5 46.5t-77.5 29.5t-101.5 33.5t-101.5 57.5t-78 101.5t-32 165.5q0 68 27 133.5t86 118.5t153.5 86t227.5 33q51 0 102.5 -4t97.5 -11.5t85 -14.5t65 -13v-361q-51 13 -100 21t-107 8
q-12 0 -38.5 -1t-53 -6t-47 -17.5t-20.5 -32.5q0 -33 32.5 -49.5t80.5 -30.5t105.5 -34.5t105.5 -58.5t81 -101.5t33 -166.5q0 -110 -48 -184t-127 -118t-181.5 -62t-212.5 -18q-86 0 -169 10t-167 33v383v0z" />
    <glyph glyph-name="t" unicode="t" horiz-adv-x="760" 
d="M674 -14q-33 -4 -62.5 -5t-64.5 -1q-197 0 -306.5 89t-109.5 289v486l-113 -2l13 354h96v135l444 201v-336l166 25l-22 -377h-140v-359q0 -61 17.5 -81.5t79.5 -20.5q26 0 42.5 2t30.5 6l-71 -405v0z" />
    <glyph glyph-name="u" unicode="u" horiz-adv-x="1210" 
d="M741 180h-4q-41 -112 -128 -159.5t-203 -47.5q-154 0 -249.5 91.5t-95.5 265.5v860l457 37l-12 -758q-2 -49 21.5 -70.5t72.5 -21.5q41 0 66.5 20.5t23.5 69.5l-12 723l471 37l-31 -1219l-377 -16v188z" />
    <glyph glyph-name="v" unicode="v" horiz-adv-x="1051" 
d="M395 1235l117 -809h4l135 809l445 -35l-283 -1182l-590 -34l-268 1216z" />
    <glyph glyph-name="w" unicode="w" horiz-adv-x="1614" 
d="M530 670l117 530l322 25l121 -561h4l120 579l447 -37l-315 -1181l-424 -33l-115 571h-4l-117 -538l-420 -35l-319 1216l459 37l120 -573h4z" />
    </font>
</defs>
</svg>
